<svg width="46" height="46" viewBox="0 0 46 46" fill="none" xmlns="http://www.w3.org/2000/svg">
<mask id="mask0" mask-type="alpha" maskUnits="userSpaceOnUse" x="0" y="0" width="46" height="46">
<path d="M23 46C35.7025 46 46 35.7026 46 23C46 10.2975 35.7025 0 23 0C10.2974 0 0 10.2975 0 23C0 35.7026 10.2974 46 23 46Z" fill="#FFECC8"/>
</mask>
<g mask="url(#mask0)">
<path d="M22.6807 46C35.3832 46 45.6807 35.7026 45.6807 23C45.6807 10.2975 35.3832 0 22.6807 0C9.97811 0 -0.319336 10.2975 -0.319336 23C-0.319336 35.7026 9.97811 46 22.6807 46Z" fill="#FFECC8"/>
<path d="M18.6465 23.8451C25.6893 21.4404 37.5415 15.1522 44.0511 34.2484C50.5607 53.3446 41.8276 53.0629 36.5152 54.8739C31.2029 56.685 -3.68949 57.188 -0.842155 42.2571C2.00518 27.3263 9.02792 27.1653 18.6465 23.8451Z" fill="#FFD991"/>
<path d="M25.77 26.7124C25.77 26.7124 31.8068 29.107 32.6418 30.2137C34.8754 33.2321 38.6786 42.0357 38.6786 43.6354C38.6786 45.2351 35.9621 47.1468 35.3282 47.1468C34.6943 47.1468 29.7643 36.6026 29.7643 36.6026L25.77 26.7124Z" fill="#4E1ABA"/>
<path d="M36.0533 42.3577L30.1272 49.7426L28.115 53.2439C28.115 53.2439 36.325 50.9802 37.7738 48.9075C40.9833 44.3095 38.2467 42.3577 38.2467 42.3577H36.0533Z" fill="#4E1ABA"/>
<path d="M12.5993 36.8844L15.829 58.013L30.4882 58.4557C30.4882 58.4557 33.416 35.7273 33.1243 33.3831C33.0035 32.4373 28.4659 28.4933 25.528 26.8735C21.8154 24.8612 19.4913 26.793 19.4913 26.793C19.4913 26.793 10.8487 31.3105 12.5993 36.8844Z" fill="#4E1ABA"/>
<path d="M17.0866 18.9956C17.5723 18.6809 18.1631 18.572 18.729 18.6928C19.295 18.8135 19.7899 19.154 20.1049 19.6395C20.1049 19.6395 21.1111 18.7642 20.0144 15.1622C19.0083 11.8722 23.4553 12.6469 24.5621 11.3691C25.0721 11.7104 25.5442 12.105 25.9706 12.5463C26.5852 13.1355 27.1075 13.8138 27.5201 14.5586C27.7139 14.9337 27.8852 15.3201 28.0332 15.7156C28.9588 18.1504 29.5122 21.8831 27.2082 23.6539C26.7316 24.0196 26.1829 24.2802 25.5984 24.4186L25.7694 26.6622C25.8025 27.0778 25.7533 27.4957 25.6248 27.8923C25.4963 28.2888 25.291 28.6562 25.0205 28.9734C24.75 29.2906 24.4197 29.5514 24.0485 29.7409C23.6772 29.9304 23.2722 30.045 22.8567 30.078C22.4412 30.1111 22.0232 30.0619 21.6266 29.9334C21.2301 29.8049 20.8627 29.5996 20.5456 29.3291C20.2284 29.0586 19.9676 28.7283 19.778 28.3571C19.5885 27.9858 19.4739 27.5808 19.4409 27.1653L19.1089 23.01C19.0938 22.8595 19.0938 22.7078 19.1089 22.5572C18.6311 22.2215 18.1894 21.8371 17.7909 21.4103C17.5752 21.1566 17.3736 20.8913 17.1872 20.6154C16.945 20.2474 16.7266 19.8643 16.5332 19.4684C16.6886 19.2797 16.8759 19.1197 17.0866 18.9956Z" fill="#FF458B"/>
<path d="M23.4961 11.8017C23.6068 12.1941 24.9952 12.5261 25.8202 16.3292C27.5508 18.0598 28.5167 18.3415 27.7218 18.9854C26.927 19.6293 26.7157 19.5488 26.7157 19.5488V20.1223L28.1041 21.2995L28.8286 19.7802C28.8286 19.7802 29.6435 15.1521 24.5928 11.3892C24.2641 11.6097 23.8887 11.751 23.4961 11.8017Z" fill="#FF0060"/>
<path d="M27.0558 15.0275C27.666 14.8794 28.131 14.6368 28.0943 14.4856C28.0576 14.3344 27.5332 14.3319 26.923 14.4799C26.3128 14.628 25.8479 14.8706 25.8845 15.0218C25.9212 15.173 26.4456 15.1755 27.0558 15.0275Z" fill="#10255E"/>
<path d="M23.4032 15.9142C24.089 15.7478 24.6152 15.4903 24.5785 15.3391C24.5418 15.1879 23.9561 15.2002 23.2703 15.3666C22.5845 15.5331 22.0583 15.7905 22.095 15.9417C22.1317 16.0929 22.7174 16.0806 23.4032 15.9142Z" fill="#10255E"/>
<path d="M16.2113 20.1223C16.361 19.6499 16.6704 19.2444 17.0866 18.9753C17.4468 18.742 17.868 18.6205 18.2971 18.6262C18.7263 18.6319 19.1441 18.7645 19.498 19.0073C19.8518 19.2502 20.1259 19.5924 20.2855 19.9907C20.4452 20.3891 20.4833 20.8258 20.3951 21.2458C20.3069 21.6659 20.0963 22.0503 19.7899 22.3508C19.4835 22.6513 19.095 22.8544 18.6733 22.9344C18.2516 23.0143 17.8158 22.9677 17.4206 22.8003C17.0254 22.6329 16.6886 22.3522 16.4527 21.9937C16.2731 21.7206 16.1579 21.4101 16.1161 21.0859C16.0743 20.7616 16.1068 20.4321 16.2113 20.1223Z" fill="#FF458B"/>
<path d="M16.3335 10.8359C16.9271 7.55589 20.4284 9.05501 20.4284 9.05501C21.998 7.04276 24.6441 8.66262 24.8353 10.4233C25.4099 10.4739 25.9669 10.6475 26.4686 10.9321C26.9702 11.2168 27.4048 11.606 27.743 12.0734C28.0804 12.6181 28.283 13.2355 28.3337 13.8742C28.3845 14.513 28.282 15.1546 28.0347 15.7457C27.8867 15.3502 27.7154 14.9639 27.5216 14.5887C27.109 13.844 26.5867 13.1656 25.9722 12.5764C25.5444 12.1327 25.0686 11.7379 24.5535 11.3993C23.4569 12.6771 18.9796 11.9023 20.0159 15.1924C21.1528 18.7943 20.1065 19.6696 20.1065 19.6696C19.7914 19.1842 19.2965 18.8437 18.7306 18.7229C18.1646 18.6022 17.5738 18.7111 17.0881 19.0257C16.8918 19.1535 16.7183 19.3133 16.575 19.4986C16.4155 19.7002 16.2929 19.9284 16.2128 20.1727C15.7907 19.9596 15.4159 19.6637 15.1106 19.3027C14.8054 18.9416 14.576 18.5228 14.4361 18.0711C14.2962 17.6195 14.2486 17.1443 14.2963 16.6739C14.344 16.2036 14.4859 15.7476 14.7136 15.3332C14.4652 14.944 14.3094 14.503 14.2581 14.0442C14.2069 13.5853 14.2616 13.1208 14.4181 12.6864C14.5746 12.252 14.8286 11.8592 15.1607 11.5384C15.4927 11.2176 15.894 10.9773 16.3335 10.8359Z" fill="#10255E"/>
<path d="M26.9366 16.3695C27.1255 16.3695 27.2786 16.2163 27.2786 16.0274C27.2786 15.8385 27.1255 15.6853 26.9366 15.6853C26.7476 15.6853 26.5945 15.8385 26.5945 16.0274C26.5945 16.2163 26.7476 16.3695 26.9366 16.3695Z" fill="#10255E"/>
<path d="M24.0391 17.1944C24.228 17.1944 24.3812 17.0413 24.3812 16.8523C24.3812 16.6634 24.228 16.5103 24.0391 16.5103C23.8502 16.5103 23.697 16.6634 23.697 16.8523C23.697 17.0413 23.8502 17.1944 24.0391 17.1944Z" fill="#10255E"/>
<path d="M17.3689 19.4885L19.0491 20.384C19.0491 20.384 18.3649 21.2392 19.2704 21.5108C18.9969 21.573 18.7119 21.5626 18.4436 21.4807C18.1753 21.3987 17.9331 21.2482 17.741 21.0438C17.5488 20.8395 17.4134 20.5884 17.3481 20.3156C17.2829 20.0428 17.29 19.7577 17.3689 19.4885Z" fill="#FF0060"/>
<path d="M27.0877 21.0178C26.4141 21.0709 25.7364 21.0269 25.0754 20.887C25.5684 21.2592 26.5645 21.7724 27.0877 21.0178Z" fill="#10255E"/>
<path d="M18.2634 27.1651C12.8304 25.8874 5.32467 41.2509 5.18381 44.5811C5.04296 47.9114 8.35311 47.7907 8.35311 47.7907L14.3899 40.2749C14.3899 40.2749 23.6965 28.453 18.2634 27.1651Z" fill="#4E1ABA"/>
<path d="M30.1965 34.9827L15.8693 34.4495C15.4464 38.2336 15.3086 42.0441 15.4568 45.8488C15.5373 47.9215 15.5775 49.5011 15.5373 49.6319C15.3864 50.0746 29.462 54.4713 30.1965 53.7369C30.931 53.0024 30.9612 38.5243 30.1965 34.9827Z" fill="#7AE6FF"/>
<path d="M19.4213 26.3804C19.4213 26.3804 18.7472 26.5615 18.2643 27.8191C17.3435 30.5526 16.8679 33.4163 16.8557 36.3008C17.5902 36.8843 20.0753 36.7334 20.0753 36.7334L19.4213 26.3804Z" fill="#00B2DB"/>
<path d="M25.7295 26.0183C25.9005 27.8394 26.3835 36.7335 26.3835 36.7335L28.5768 36.8845L26.967 27.0949L25.7295 26.0183Z" fill="#00B2DB"/>
<path d="M14.3606 50.2257C13.8475 50.5376 15.5378 55.3569 15.5378 55.3569L32.1087 56.2523L32.5816 52.1574L29.5632 50.8092L16.3729 44.7725C16.3729 44.7725 16.2723 49.0485 14.3606 50.2257Z" fill="#7AE6FF"/>
<path d="M19.3516 42.3074C19.3873 44.2328 19.6302 46.1488 20.076 48.0222L26.2335 48.4649C26.8601 46.7647 27.256 44.9882 27.4106 43.1827C27.4106 41.1303 19.3516 42.3074 19.3516 42.3074Z" fill="#00B2DB"/>
<path d="M18.5762 44.4304L27.6816 44.5914" stroke="#7AE6FF" stroke-width="0.93" stroke-miterlimit="10"/>
<path d="M7.88089 43.6355L15.5375 49.6723L13.7667 52.7409C13.7667 52.7409 1.8039 49.5415 5.79822 42.1968C9.79253 34.8521 7.88089 43.6355 7.88089 43.6355Z" fill="#4E1ABA"/>
<path d="M31.2029 33.7251C31.2029 33.7251 32.6819 40.7177 32.3599 42.4784C33.8792 44.6315 33.7182 44.4303 33.7182 44.4303C33.749 40.712 32.8863 37.0406 31.2029 33.7251Z" fill="#10255E"/>
<path d="M13.3438 41.6735L14.4203 39.6814L14.0983 46.5532L13.3438 41.6735Z" fill="#10255E"/>
</g>
</svg>
