<svg width="18" height="9" viewBox="0 0 18 9" fill="none" xmlns="http://www.w3.org/2000/svg">
<path d="M1.80829 0.960938C1.80829 1.19524 2.19857 1.88672 2.96214 2.65328M17.3468 0.960938C17.3468 1.24166 16.7865 2.17869 15.6952 3.11482M1.03906 3.88405L2.96214 2.65328M2.96214 2.65328C3.70829 3.40236 4.81089 4.22313 6.2541 4.75907M5.26983 6.96098L6.2541 4.75907M6.2541 4.75907C7.21307 5.11519 8.32243 5.34555 9.57752 5.34555C10.2329 5.34555 10.8485 5.28275 11.4237 5.17203M11.8083 8.49944L11.4237 5.17203M11.4237 5.17203C13.2718 4.8163 14.703 3.96593 15.6952 3.11482M17.3468 5.17203L15.6952 3.11482" stroke="#10255E" stroke-miterlimit="10"/>
</svg>
