<svg width="54" height="54" viewBox="0 0 54 54" fill="none" xmlns="http://www.w3.org/2000/svg">
<path d="M27 53.48C41.6245 53.48 53.48 41.6245 53.48 27C53.48 12.3755 41.6245 0.52002 27 0.52002C12.3755 0.52002 0.52002 12.3755 0.52002 27C0.52002 41.6245 12.3755 53.48 27 53.48Z" stroke="#C1C1C5" stroke-miterlimit="10"/>
<path d="M31.0598 27.8802C29.7998 29.2202 27.6898 29.3002 26.3398 28.0402L23.7798 30.7802C26.6398 33.4502 31.1198 33.3002 33.7898 30.4402C36.4598 27.5802 36.3098 23.1002 33.4498 20.4302L30.8898 23.1702C32.2398 24.4202 32.3198 26.5402 31.0598 27.8802Z" fill="#00CFFF"/>
<path d="M20.1998 23.1201C17.5298 25.9801 17.6798 30.4601 20.5398 33.1301L23.0998 30.3901C21.7598 29.1301 21.6798 27.0201 22.9398 25.6701C24.1998 24.3301 26.3098 24.2501 27.6598 25.5101L30.2198 22.7701C27.3598 20.1101 22.8798 20.2601 20.1998 23.1201Z" fill="#FF0060"/>
</svg>
