<svg width="134" height="154" viewBox="0 0 134 154" fill="none" xmlns="http://www.w3.org/2000/svg">
<g clip-path="url(#clip0)">
<path d="M0.111328 38.8322V115.168L67.0282 153.336L133.89 115.168V38.8322L67.0282 0.664307L0.111328 38.8322Z" stroke="#10255E" stroke-width="0.5" stroke-miterlimit="10"/>
<path d="M0.111328 38.8322L133.89 115.168" stroke="#10255E" stroke-width="0.5" stroke-miterlimit="10"/>
<path d="M0.111328 115.168L133.89 38.8322" stroke="#10255E" stroke-width="0.5" stroke-miterlimit="10"/>
<path d="M67.0273 0.664307V153.336" stroke="#10255E" stroke-width="0.5" stroke-miterlimit="10"/>
<path d="M26.524 70.644C28.486 70.644 30.178 69.96 31.33 68.664L30.16 67.53C29.188 68.556 28 69.042 26.614 69.042C23.77 69.042 21.664 66.99 21.664 64.2C21.664 61.41 23.77 59.358 26.614 59.358C28 59.358 29.188 59.826 30.16 60.852L31.33 59.718C30.178 58.422 28.486 57.756 26.542 57.756C22.708 57.756 19.864 60.474 19.864 64.2C19.864 67.926 22.708 70.644 26.524 70.644ZM43.013 70.5H44.903L39.179 57.9H37.397L31.691 70.5H33.545L34.931 67.35H41.627L43.013 70.5ZM35.561 65.91L38.279 59.736L40.997 65.91H35.561ZM57.1686 70.5L54.1806 66.27C55.9446 65.64 56.9526 64.236 56.9526 62.292C56.9526 59.556 54.9726 57.9 51.6966 57.9H46.7826V70.5H48.5826V66.666H51.6966C51.9666 66.666 52.2366 66.648 52.4886 66.63L55.2066 70.5H57.1686ZM51.6426 65.136H48.5826V59.466H51.6426C53.9466 59.466 55.1526 60.492 55.1526 62.292C55.1526 64.092 53.9466 65.136 51.6426 65.136ZM62.1869 70.5H63.9689V59.466H68.2889V57.9H57.8669V59.466H62.1869V70.5ZM72.0494 68.934V64.866H78.3674V63.336H72.0494V59.466H79.1414V57.9H70.2494V70.5H79.3934V68.934H72.0494ZM59.0379 81.9L54.4659 92.25L49.9299 81.9H47.9859L53.5299 94.5H55.3119L60.8379 81.9H59.0379ZM62.4447 94.5H64.2447V81.9H62.4447V94.5ZM69.817 92.934V88.866H76.135V87.336H69.817V83.466H76.909V81.9H68.017V94.5H77.161V92.934H69.817ZM90.4615 94.5L87.4735 90.27C89.2375 89.64 90.2455 88.236 90.2455 86.292C90.2455 83.556 88.2655 81.9 84.9895 81.9H80.0755V94.5H81.8755V90.666H84.9895C85.2595 90.666 85.5295 90.648 85.7815 90.63L88.4995 94.5H90.4615ZM84.9355 89.136H81.8755V83.466H84.9355C87.2395 83.466 88.4455 84.492 88.4455 86.292C88.4455 88.092 87.2395 89.136 84.9355 89.136ZM101.884 92.232C100.984 92.808 99.9937 93.042 98.9317 93.042C96.0337 93.042 93.9277 90.972 93.9277 88.2C93.9277 85.392 96.0337 83.358 98.9497 83.358C100.372 83.358 101.56 83.808 102.604 84.816L103.72 83.7C102.568 82.422 100.876 81.756 98.8777 81.756C94.9717 81.756 92.1277 84.474 92.1277 88.2C92.1277 91.926 94.9717 94.644 98.8417 94.644C100.606 94.644 102.352 94.104 103.612 93.042V88.128H101.884V92.232ZM108.858 92.934V88.866H115.176V87.336H108.858V83.466H115.95V81.9H107.058V94.5H116.202V92.934H108.858Z" fill="#10255E" fill-opacity="0.6"/>
</g>
<defs>
<clipPath id="clip0">
<rect width="134" height="153" fill="white" transform="translate(0 0.5)"/>
</clipPath>
</defs>
</svg>
