<svg width="623" height="612" viewBox="0 0 623 612" fill="none" xmlns="http://www.w3.org/2000/svg">
<path d="M375.27 533.323C484.614 479.84 688.376 410.774 601.74 163.253C515.104 -84.2679 408.174 12.4305 325.715 52.7608C243.255 93.0911 -97.4911 362.064 27.5427 520.197C147.242 671.589 226.051 606.308 375.27 533.323Z" fill="#FFE3EE"/>
<g clip-path="url(#clip0)">
<path d="M311.782 231.994C311.88 231.701 311.977 231.311 312.173 231.018C312.564 230.042 313.932 226.627 316.376 222.431C316.963 221.455 317.549 220.381 318.233 219.308C321.068 214.917 324.88 210.233 329.572 207.11C329.768 207.012 330.061 206.817 330.256 206.72C330.452 206.622 330.647 206.427 330.843 206.329C330.941 206.232 331.038 206.232 331.136 206.232C332.407 205.549 333.775 204.866 335.144 204.475C336.708 203.987 338.272 203.695 339.933 203.597C358.408 202.621 378.739 228.969 374.536 253.071C374.243 254.828 373.754 256.584 373.265 258.243C372.777 259.61 372.288 260.976 371.701 262.244L368.867 295.032C355.768 295.813 342.279 298.447 329.181 299.228L330.159 289.763C327.617 289.567 325.271 288.982 323.023 288.006C306.992 280.492 304.549 251.608 311.782 231.994Z" fill="#8F59FF"/>
<path d="M304.353 326.551C303.083 305.18 318.038 304.009 321.166 303.131C321.361 303.034 321.557 303.034 321.655 303.034C321.655 302.838 321.655 302.741 321.655 302.546C321.752 299.618 321.85 296.593 322.046 293.666C324.685 293.47 327.324 293.373 329.865 293.178C335.73 294.446 341.693 294.837 352.738 295.129C356.453 294.739 376.491 290.25 380.206 289.958V301.863C383.92 302.546 387.732 303.326 391.544 304.302C398.778 306.254 406.304 308.791 413.831 312.206C414.124 312.304 414.417 312.499 414.808 312.694C397.409 329.186 373.754 339.334 347.851 339.334C324.196 339.432 321.264 340.603 304.353 326.551Z" fill="#FF458B"/>
<path d="M340.618 206.72C340.618 206.72 335.144 214.624 329.279 224.382C323.414 234.14 316.083 241.849 315.497 244.289C314.91 246.729 324.88 250.632 324.88 250.632C324.88 250.632 321.948 264.293 322.925 272.1C323.903 279.907 328.79 289.47 328.79 289.47C328.79 289.47 313.248 289.372 308.654 264.684C303.376 235.994 322.925 201.841 336.61 205.549" fill="#7533FF"/>
<path d="M327.226 202.133C324.88 203.207 321.655 205.158 318.722 208.379C318.038 209.062 317.354 209.842 316.767 210.721C316.278 211.404 315.79 212.087 315.399 212.77C310.316 221.162 311.391 229.456 311.88 231.896C311.978 231.603 312.075 231.213 312.271 230.92C312.662 229.944 314.03 226.529 316.474 222.333C317.06 221.357 317.647 220.284 318.331 219.21C318.722 218.625 319.015 218.137 319.406 217.551C319.797 216.966 320.188 216.478 320.579 215.892C320.97 215.307 321.459 214.819 321.85 214.234C322.339 213.648 322.73 213.16 323.219 212.672C323.609 212.184 324 211.794 324.489 211.404C324.587 211.306 324.782 211.111 324.88 211.013C325.076 210.818 325.173 210.721 325.369 210.525L325.467 210.428C325.564 210.33 325.564 210.33 325.662 210.233C325.955 209.94 326.249 209.745 326.542 209.452C326.737 209.257 326.933 209.062 327.226 208.866C327.422 208.671 327.519 208.574 327.715 208.476C328.008 208.281 328.204 208.086 328.497 207.891C328.79 207.598 329.181 207.403 329.572 207.11C329.768 207.012 330.061 206.817 330.256 206.72C330.452 206.524 330.647 206.427 330.843 206.329C330.941 206.232 331.038 206.232 331.136 206.232C337.001 203.402 347.655 208.866 353.129 216.185C353.911 217.161 354.498 218.234 355.084 219.308C355.769 220.479 356.257 221.65 356.746 222.821C361.731 235.604 358.017 250.729 364.37 255.316L364.468 255.413C367.303 257.365 370.528 258.146 373.265 258.341C374.927 258.438 376.393 258.341 377.566 258.243C377.762 258.048 378.055 257.853 378.348 257.56C378.837 257.17 379.326 256.78 379.814 256.292C380.401 255.706 381.085 255.121 381.672 254.438C383.724 252.388 385.875 249.754 387.928 246.631C388.612 245.46 389.394 244.289 390.078 243.02C390.469 242.337 392.326 238.727 393.792 233.848C394.086 232.969 394.379 231.994 394.574 231.018C395.454 227.31 396.041 223.211 395.747 219.015C394.477 203.012 379.619 187.984 358.799 181.446C359.678 172.371 356.257 165.345 351.468 163.881C349.317 163.295 346.776 163.783 344.821 164.954C341.497 167.101 339.933 171.59 340.911 176.371C339.836 174.42 337.685 171.2 334.069 168.662C332.114 167.296 325.271 162.515 320.384 165.345C317.451 167.101 316.181 171.2 316.376 174.322C316.767 180.47 322.534 184.471 321.557 185.642C320.775 186.52 317.647 183.593 314.714 184.764C311.978 185.837 310.511 189.935 310.902 192.863C311.782 198.328 318.82 199.986 327.226 202.133Z" fill="#10255E"/>
<path d="M340.715 236.482C341.957 236.482 342.964 235.477 342.964 234.238C342.964 232.998 341.957 231.993 340.715 231.993C339.474 231.993 338.467 232.998 338.467 234.238C338.467 235.477 339.474 236.482 340.715 236.482Z" fill="#10255E"/>
<path d="M319.895 232.286C321.137 232.286 322.143 231.281 322.143 230.042C322.143 228.802 321.137 227.797 319.895 227.797C318.654 227.797 317.647 228.802 317.647 230.042C317.647 231.281 318.654 232.286 319.895 232.286Z" fill="#10255E"/>
<path d="M379.13 273.564C387.39 273.564 394.086 266.879 394.086 258.634C394.086 250.388 387.39 243.704 379.13 243.704C370.871 243.704 364.175 250.388 364.175 258.634C364.175 266.879 370.871 273.564 379.13 273.564Z" fill="#8F59FF"/>
<path d="M315.594 223.894C316.474 224.089 318.527 224.382 319.504 224.479C323.512 224.772 326.835 224.187 326.933 223.113C327.031 222.04 323.805 220.967 319.797 220.674C319.015 220.576 318.136 220.576 317.451 220.576C316.865 221.552 316.669 221.552 315.594 223.894Z" fill="#10255E"/>
<path d="M350.641 227.41C350.808 226.345 347.528 224.948 343.314 224.29C339.1 223.632 335.549 223.961 335.382 225.026C335.215 226.091 338.496 227.488 342.71 228.146C346.923 228.805 350.474 228.475 350.641 227.41Z" fill="#10255E"/>
<path d="M317.158 265.172C317.451 268.587 319.895 271.417 323.121 272.1C323.61 272.197 324.098 272.295 324.685 272.295C328.008 272.295 331.136 269.953 332.211 266.538C332.211 266.343 332.211 266.245 332.114 266.147C332.016 266.05 331.918 265.952 331.723 265.952L317.647 264.684C317.549 264.684 317.354 264.684 317.256 264.781C317.256 264.879 317.158 264.976 317.158 265.172Z" fill="#10255E"/>
<path d="M383.627 251.12L370.724 256.682C370.724 256.682 375.514 260 370.822 262.83C379.228 258.633 383.627 251.12 383.627 251.12Z" fill="#7533FF"/>
<path d="M330.158 292.69C330.158 292.69 334.948 295.227 351.956 294.837C353.031 294.837 351.467 284.59 351.467 284.59C351.467 284.59 331.722 289.86 330.549 289.177C329.963 291.031 330.158 292.69 330.158 292.69Z" fill="#7533FF"/>
<path d="M413.928 312.304C430.252 320.403 472.382 347.629 497.209 382.27C522.037 416.912 517.052 444.138 517.052 444.138C517.052 444.138 519.203 487.172 415.004 458.385C401.612 454.677 405.718 421.206 405.718 421.206L462.411 423.06L405.718 384.027L390.567 342.554L391.837 320.305L413.928 312.304Z" fill="#FF458B"/>
<path d="M297.511 347.629C297.511 364.999 296.533 515.959 297.804 536.451C368.476 562.408 422.726 522.204 422.726 522.204L411.582 325.38L304.94 316.695L297.511 347.629Z" fill="#FF458B"/>
<path d="M415.981 390.663L405.718 384.125L381.574 539.184L424.387 531.767L415.981 390.663Z" fill="#D60051"/>
<path d="M173.176 302.448C177.868 319.135 161.739 329.771 159.1 336.504C156.461 343.238 181.582 375.83 184.319 377.684C187.154 379.538 216.869 381.392 216.869 381.392L227.132 365.584L217.162 322.94L202.891 297.764L173.176 302.448Z" fill="#7AE6FF"/>
<path d="M310.902 307.035C298.781 317.281 271.803 350.654 266.232 394.274C260.66 437.893 298.782 467.656 298.782 467.656C298.782 467.656 324.782 446.285 324.782 441.699C324.782 437.015 310.902 307.035 310.902 307.035Z" fill="#FF458B"/>
<path d="M296.924 368.023L284.804 402.665C284.804 402.665 292.233 425.89 294.09 423.06C295.947 420.328 296.924 368.023 296.924 368.023Z" fill="#D60051"/>
<path d="M217.26 322.94C280.209 339.529 281.187 378.563 283.924 389.687C286.758 400.811 294.187 423.158 294.187 423.158L268.968 464.923L231.824 398.079L217.26 322.94Z" fill="#7AE6FF"/>
<path d="M249.517 368.316L282.067 415.644C282.067 415.644 286.759 433.306 283.924 434.185C281.089 435.063 242.968 440.723 242.968 440.723L249.517 368.316Z" fill="#00CFFF"/>
<path d="M159.1 336.504C159.1 336.504 165.747 353.484 189.988 365.584C214.132 377.684 217.26 322.94 217.26 322.94C217.26 322.94 221.267 322.55 225.959 325.673C233.095 338.358 254.013 366.853 256.945 372.122C261.637 380.514 260.66 398.079 255.088 421.304C249.517 444.528 241.11 464.923 242.088 470.485C243.065 476.047 180.702 482.585 180.702 482.585L132.317 471.461L111.888 422.279L159.1 336.504Z" fill="#2F50A8"/>
<path d="M161.935 264.196C164.574 250.925 125.572 245.363 111.106 275.028C137.986 288.104 160.468 271.417 161.935 264.196Z" fill="#2F50A8"/>
<path d="M164.965 270.832C159.784 259.219 126.843 276.101 131.829 306.742C159.589 302.253 167.8 277.174 164.965 270.832Z" fill="#223A7A"/>
<path d="M244.043 266.83C242.968 259.902 240.133 252.583 235.93 246.143C235.93 246.045 235.832 246.045 235.832 245.948C232.9 241.361 229.381 237.165 225.275 233.75C224.787 233.36 224.396 232.969 223.907 232.579C221.952 234.14 219.313 235.506 216.771 235.994C211.297 237.165 205.335 235.018 201.327 230.334C198.492 239.605 184.514 239.605 184.514 239.605C187.349 267.513 165.845 270.343 165.845 270.343C165.747 270.441 165.551 270.636 165.454 270.734C165.454 272.685 165.454 274.637 165.747 276.491C166.04 279.028 166.822 285.469 170.243 292.592C170.146 292.592 170.146 292.495 170.048 292.495C170.537 295.812 171.612 307.62 172.589 320.013C187.545 319.915 202.402 319.72 217.358 319.623C217.358 318.354 218.042 316.5 217.944 315.426C228.012 312.011 233.095 305.083 235.441 302.058C246.682 287.518 244.629 270.734 244.043 266.83Z" fill="#7AE6FF"/>
<path d="M201.132 227.895C201.132 227.895 211.2 245.265 213.546 247.314C215.989 249.363 228.99 259.317 225.764 264.488C222.538 269.66 219.117 269.075 219.117 269.075C219.117 269.075 242.186 300.692 218.14 315.329C232.411 312.694 245.802 293.08 244.629 268.294C237.201 235.506 217.944 229.652 217.944 229.652L201.132 227.895Z" fill="#00CFFF"/>
<path d="M227.426 226.431C226.546 220.869 211.2 216.185 196.342 218.039C206.019 207.988 216.576 194.424 214.816 180.958C214.23 176.079 212.275 173.932 211.297 172.956C205.237 167.394 193.507 171.98 193.019 172.175C193.312 171.785 201.914 170.224 185.492 155.586C168.777 140.559 156.656 167.199 156.656 167.199C156.656 167.199 146.588 151.586 129.776 166.418C112.572 181.543 126.061 190.228 126.061 190.228C126.061 190.228 97.6167 191.594 98.301 213.16C98.3987 217.551 100.158 220.674 100.647 221.455C104.557 227.017 112.865 229.164 121.858 227.114C121.174 230.237 120.49 235.799 122.445 242.24C123.324 245.265 124.986 250.729 130.069 254.925C130.069 254.925 134.859 258.829 141.799 259.609C147.175 260.293 152.062 262.83 157.732 259.122C157.634 268.002 164.672 271.417 165.454 270.636C165.649 270.539 187.349 267.416 184.514 239.507C184.514 239.507 198.492 239.507 201.327 230.237C205.335 234.921 211.297 237.165 216.771 235.897C219.313 235.311 221.854 234.043 223.907 232.482C226.253 230.725 227.719 228.481 227.426 226.431Z" fill="#FFA600"/>
<path d="M205.533 255.168C209.318 254.07 212.166 252.424 211.894 251.493C211.623 250.561 208.335 250.696 204.551 251.794C200.767 252.892 197.919 254.537 198.19 255.469C198.461 256.401 201.749 256.266 205.533 255.168Z" fill="#10255E"/>
<path d="M237.58 250.959C237.72 249.999 234.672 248.762 230.772 248.196C226.872 247.63 223.597 247.949 223.457 248.909C223.317 249.869 226.365 251.106 230.265 251.673C234.165 252.239 237.44 251.919 237.58 250.959Z" fill="#10255E"/>
<path d="M210.32 263.317C211.777 263.317 212.959 262.138 212.959 260.683C212.959 259.227 211.777 258.048 210.32 258.048C208.862 258.048 207.681 259.227 207.681 260.683C207.681 262.138 208.862 263.317 210.32 263.317Z" fill="#10255E"/>
<path d="M232.9 259.512C234.357 259.512 235.539 258.332 235.539 256.877C235.539 255.422 234.357 254.242 232.9 254.242C231.442 254.242 230.26 255.422 230.26 256.877C230.26 258.332 231.442 259.512 232.9 259.512Z" fill="#10255E"/>
<path d="M159.393 298.155C168.733 298.155 176.304 290.596 176.304 281.273C176.304 271.949 168.733 264.391 159.393 264.391C150.054 264.391 142.483 271.949 142.483 281.273C142.483 290.596 150.054 298.155 159.393 298.155Z" fill="#7AE6FF"/>
<path d="M218.238 315.329C218.238 315.329 203.184 319.525 194.192 316.89C199.372 323.136 204.064 325.478 204.064 325.478L213.448 324.892L217.26 322.843L218.238 315.329Z" fill="#00CFFF"/>
<path d="M152.062 270.246L166.822 281.566C166.822 281.566 162.13 286.445 167.506 289.275C158.22 289.08 150.889 276.491 152.062 270.246Z" fill="#00CFFF"/>
<path d="M207.485 276.199C207.485 276.199 213.448 286.738 224.689 278.638C219.117 278.736 207.485 276.199 207.485 276.199Z" fill="#10255E"/>
<path d="M190.966 212.672C161.153 226.431 155.092 264.879 158.611 263.415C162.13 261.854 224.982 236.385 234.659 243.996C227.328 206.134 190.966 212.672 190.966 212.672Z" fill="#2F50A8"/>
<path d="M144.34 412.619C144.927 443.553 157.829 485.318 161.055 504.835C164.769 527.084 170.341 545.722 170.341 545.722C170.341 545.722 129.385 535.183 129.385 506.103C129.385 477.024 130.655 426.866 130.655 426.866L144.34 412.619Z" fill="#223A7A"/>
<path d="M159.1 336.504C144.34 346.067 110.91 357.192 101.624 391.541C92.3383 425.89 94.1956 463.947 94.1956 463.947C94.1956 463.947 142.483 505.225 201.132 494.588C221.561 490.88 201.132 475.072 201.132 475.072L136.032 447.261C136.032 447.261 152.062 391.736 152.746 381.295C153.431 370.756 159.1 336.504 159.1 336.504Z" fill="#7AE6FF"/>
<path d="M352.054 406.666C352.054 406.666 361.633 403.934 348.731 428.135C339.151 446.09 307.97 491.758 299.661 496.54C298.684 476.145 297.511 465.704 297.511 465.704L352.054 406.666Z" fill="#D60051"/>
<path d="M456.937 389.687C456.937 389.687 486.066 426.183 478.051 425.012C470.036 423.743 447.358 424.329 447.358 424.329L456.937 389.687Z" fill="#D60051"/>
<path d="M333.091 354.655C312.955 372.024 328.986 419.742 379.228 426.476C429.861 433.306 461.531 437.307 465.05 415.839C468.569 394.371 371.31 358.265 371.31 358.265L333.091 354.655Z" fill="#FFBF47"/>
<path d="M341.791 301.765C341.791 301.765 344.43 312.109 343.55 314.353C342.67 316.695 333.775 322.648 333.775 322.648C333.775 322.648 328.399 308.889 341.791 301.765Z" fill="#DB8F00"/>
<path d="M382.258 309.279C382.258 309.279 376.491 318.061 376.589 320.501C376.686 322.94 383.138 331.82 383.138 331.82C383.138 331.82 392.619 320.794 382.258 309.279Z" fill="#DB8F00"/>
<path d="M360.167 312.109C353.618 311.035 334.753 309.474 325.271 338.749C324.196 342.164 324.978 345.97 327.421 348.702C333.384 355.24 344.527 361.388 352.543 363.632C352.934 363.73 353.422 363.827 353.813 363.925C362.806 365.194 372.972 362.071 379.619 358.948C382.845 357.387 384.897 354.167 385.19 350.459C386.461 325.478 373.265 314.256 360.167 312.109Z" fill="#FFBF47"/>
<path d="M340.618 326.942C340.813 329.869 335.437 342.848 353.227 340.993C354.205 325.283 340.618 326.942 340.618 326.942Z" fill="#7AE6FF"/>
<path d="M347.362 328.21C345.212 329.771 343.061 334.846 345.114 340.115C352.836 335.138 347.362 328.21 347.362 328.21Z" fill="#10255E"/>
<path d="M375.611 333.479C374.536 336.212 375.416 350.361 359.287 342.164C363.393 326.941 375.611 333.479 375.611 333.479Z" fill="#7AE6FF"/>
<path d="M368.573 332.113C366.423 333.675 364.273 338.749 366.325 344.018C374.145 339.042 368.573 332.113 368.573 332.113Z" fill="#10255E"/>
<path d="M351.663 344.506L359.874 346.263C360.46 346.36 360.656 347.239 360.167 347.531L355.084 351.044C354.791 351.24 354.302 351.142 354.107 350.849L351.077 345.677C350.588 344.994 351.077 344.409 351.663 344.506Z" fill="#FF458B"/>
<path d="M354.009 351.337C354.009 351.337 354.693 357.777 360.754 357.777C352.054 359.339 345.994 354.85 345.994 354.85C345.994 354.85 354.009 355.826 354.009 351.337Z" fill="#DB8F00"/>
<path d="M382.258 309.279L369.258 316.5C369.258 316.5 374.634 324.599 375.611 323.038C376.589 321.477 382.258 309.279 382.258 309.279Z" fill="#FFBF47"/>
<path d="M341.791 301.765L351.663 313.182C351.663 313.182 344.039 318.842 343.55 317.086C343.061 315.329 341.791 301.765 341.791 301.765Z" fill="#FFBF47"/>
<path d="M307.579 413.302L323.121 415.156C323.121 415.156 325.858 427.939 318.624 430.964C314.421 432.818 305.526 428.622 307.579 413.302Z" fill="#FFA600"/>
<path d="M396.92 371.341C398.875 371.244 439.343 349.678 454.983 379.636C470.622 409.496 467.103 425.109 451.659 426.183C436.117 427.256 396.92 371.341 396.92 371.341Z" fill="#FFBF47"/>
<path d="M443.839 376.123C450.095 369.39 460.847 347.727 492.224 372.122C520.083 393.786 540.023 348.214 497.796 332.211" stroke="#FFBF47" stroke-width="12" stroke-miterlimit="10" stroke-linecap="round" stroke-linejoin="round"/>
<path d="M341.791 388.906C348.437 383.539 349.61 381.1 354.596 377.782C359.581 374.464 360.363 370.365 362.904 374.464C364.859 377.684 356.257 386.857 356.257 386.857L341.791 388.906Z" fill="#7533FF"/>
<path d="M325.956 405.593C324.196 405.007 341.693 388.418 345.016 387.638C348.242 386.76 361.633 385.101 370.724 383.539C382.552 381.588 392.229 384.32 381.281 399.153C376.589 405.495 367.694 407.252 358.799 410.082C349.904 412.912 336.024 421.889 336.024 421.889L325.956 405.593Z" fill="#8F59FF"/>
<path d="M333.873 396.323C333.873 396.323 296.631 413.692 283.044 429.208C270.435 443.65 266.525 461.215 274.931 466.094C283.337 470.973 291.744 475.853 306.992 468.046C322.241 460.239 348.828 413.107 348.828 413.107L333.873 396.323Z" fill="#FF458B"/>
<path d="M296.045 448.334C296.045 451.457 292.526 465.899 293.112 472.73C302.985 472.144 303.864 469.217 303.864 469.217L296.045 448.334Z" fill="#D60051"/>
<path d="M247.171 504.834C274.163 504.834 296.045 484.038 296.045 458.385C296.045 432.732 274.163 411.936 247.171 411.936C220.178 411.936 198.297 432.732 198.297 458.385C198.297 484.038 220.178 504.834 247.171 504.834Z" fill="#FF458B"/>
<path d="M255.186 472.437C229.381 472.437 207.778 466.289 206.41 465.899L207.485 462.191C207.974 462.386 258.118 476.633 296.729 461.605L298.195 465.216C284.315 470.583 269.066 472.437 255.186 472.437Z" fill="#D60051"/>
<path d="M207.583 429.598C207.583 429.598 190.868 440.723 192.725 450.969C194.582 461.215 199.274 491.856 199.274 491.856C199.274 491.856 206.703 496.54 210.417 488.148C214.132 479.756 210.417 453.799 210.417 453.799C210.417 453.799 220.681 417.596 207.583 429.598Z" fill="#7AE6FF"/>
<path d="M142.483 345.775L154.897 371.732L171.025 356.899L159.1 336.504L142.483 345.775Z" fill="#2F50A8"/>
<path d="M418.522 429.305C409.236 425.012 385.679 418.571 376.198 420.425C366.716 422.279 356.257 423.353 351.37 427.354C346.482 431.355 356.257 439.552 365.348 444.919C373.07 449.505 384.213 452.725 400.928 451.847C417.545 451.066 418.522 429.305 418.522 429.305Z" fill="#8F59FF"/>
<path d="M258.021 504.151L252.84 504.444C264.765 493.027 272.194 478.78 272.096 464.826C271.803 436.136 245.802 411.838 245.509 411.545C245.509 411.545 249.419 411.545 251.472 412.033C258.803 419.84 275.713 440.43 276.006 464.728C276.202 479.853 270.728 491.953 258.021 504.151Z" fill="#D60051"/>
<path d="M262.517 458.483C252.742 458.483 244.629 455.751 240.817 451.067C235.832 444.919 223.027 440.43 212.763 443.845C212.763 443.845 213.057 439.649 213.839 439.454C225.275 436.82 238.276 441.699 243.847 448.529C246.877 452.238 254.013 454.58 262.517 454.58C262.615 454.58 262.81 454.58 262.908 454.58C273.758 454.482 283.631 450.969 287.931 445.504L290.962 447.944C285.976 454.287 274.931 458.385 262.908 458.483C262.81 458.483 262.713 458.483 262.517 458.483Z" fill="#D60051"/>
<path d="M291.255 414.863C284.217 416.815 276.3 424.426 274.931 433.697C273.563 442.967 255.675 451.749 263.495 454.774C271.412 457.8 281.48 460.337 289.202 456.531C296.924 452.725 307.677 433.501 307.677 433.501C307.677 433.501 305.722 410.862 291.255 414.863Z" fill="#7AE6FF"/>
<path d="M287.638 414.766C282.946 423.158 262.126 421.011 260.66 431.452C259.682 437.99 283.924 438.869 291.353 431.452C298.781 424.036 287.638 414.766 287.638 414.766Z" fill="#7AE6FF"/>
<path d="M482.352 426.866C475.509 425.597 415.394 424.426 406.695 426.866C397.995 429.306 398.191 440.528 400.928 451.945C403.665 463.362 463.389 467.753 463.389 467.753L482.352 426.866Z" fill="#FF458B"/>
<path d="M335.926 376.221C328.497 379.343 312.76 378.855 304.06 402.958C296.924 422.67 325.076 423.939 322.632 416.62C317.451 401.495 326.835 401.104 332.602 396.518C340.031 390.663 343.061 386.467 342.182 381.783C341.4 378.075 335.926 376.221 335.926 376.221Z" fill="#FFBF47"/>
<path d="M302.789 409.203C302.398 406.569 318.038 406.276 320.775 407.349C325.467 409.203 326.933 420.328 317.647 422.182C313.932 422.963 304.94 425.305 302.789 409.203Z" fill="#DB8F00"/>
<path d="M397.996 422.67C392.228 420.23 375.22 416.913 366.619 415.644C357.919 414.375 362.904 420.621 367.889 421.401C372.777 422.28 397.996 422.67 397.996 422.67Z" fill="#7533FF"/>
<path d="M497.991 325.77C492.029 323.721 483.72 335.236 500.044 338.944C506.691 330.649 506.202 329.088 506.202 329.088C506.202 329.088 502.39 326.551 497.991 325.77Z" fill="#DB8F00"/>
<path d="M136.031 447.261L115.211 457.8C115.211 457.8 143.069 452.237 158.611 457.214C174.153 462.093 136.031 447.261 136.031 447.261Z" fill="#00CFFF"/>
<path d="M272.781 437.99L283.142 429.208L260.66 431.452C260.66 431.452 262.224 439.259 272.781 437.99Z" fill="#00CFFF"/>
</g>
<defs>
<clipPath id="clip0">
<rect width="434" height="311" fill="white" transform="translate(94 151)"/>
</clipPath>
</defs>
</svg>
