<?xml version="1.0" encoding="utf-8"?>
<!-- Generator: Adobe Illustrator 25.0.0, SVG Export Plug-In . SVG Version: 6.00 Build 0)  -->
<svg version="1.1" id="Layer_1" xmlns="http://www.w3.org/2000/svg" xmlns:xlink="http://www.w3.org/1999/xlink" x="0px" y="0px"
	 viewBox="0 0 623 612" style="enable-background:new 0 0 623 612;" xml:space="preserve">
<style type="text/css">
	.st0{fill:#FFE3EE;}
	.st1{clip-path:url(#SVGID_2_);}
	.st2{fill:#8F59FF;}
	.st3{fill:#FF458B;}
	.st4{fill:#7533FF;}
	.st5{fill:#10255E;}
	.st6{fill:#D60051;}
	.st7{fill:#7AE6FF;}
	.st8{fill:#00CFFF;}
	.st9{fill:#2F50A8;}
	.st10{fill:#223A7A;}
	.st11{fill:#FFA600;}
	.st12{fill:#FFBF47;}
	.st13{fill:#DB8F00;}
	.st14{fill:none;stroke:#FFBF47;stroke-width:11.2618;stroke-linecap:round;stroke-linejoin:round;stroke-miterlimit:10;}
</style>
<path class="st0" d="M398.2,518.3c101.1-55.2,290.7-129.1,198.3-359.4S407.2,24.6,331,66.2C254.7,107.8-55.9,376.5,69,520.7
	C188.5,658.7,260.3,593.6,398.2,518.3z"/>
<g>
	<defs>
		<rect id="SVGID_1_" x="132" y="155.3" width="407.3" height="291.9"/>
	</defs>
	<clipPath id="SVGID_2_">
		<use xlink:href="#SVGID_1_"  style="overflow:visible;"/>
	</clipPath>
	<g class="st1">
		<path class="st2" d="M336.4,231.3c0.1-0.3,0.2-0.6,0.4-0.9c0.4-0.9,1.7-4.1,3.9-8.1c0.6-0.9,1.1-1.9,1.7-2.9
			c2.7-4.1,6.2-8.5,10.6-11.4c0.2-0.1,0.5-0.3,0.6-0.4c0.2-0.1,0.4-0.3,0.6-0.4c0.1-0.1,0.2-0.1,0.3-0.1c1.2-0.6,2.5-1.3,3.8-1.6
			c1.5-0.5,2.9-0.7,4.5-0.8c17.3-0.9,36.4,23.8,32.5,46.4c-0.3,1.6-0.7,3.3-1.2,4.9c-0.5,1.3-0.9,2.6-1.5,3.8l-2.7,30.8
			c-12.3,0.7-25,3.2-37.2,3.9l0.9-8.9c-2.4-0.2-4.6-0.7-6.7-1.6C331.9,276.8,329.6,249.7,336.4,231.3z"/>
		<path class="st3" d="M329.4,320c-1.2-20.1,12.8-21.2,15.8-22c0.2-0.1,0.4-0.1,0.5-0.1c0-0.2,0-0.3,0-0.5c0.1-2.7,0.2-5.6,0.4-8.3
			c2.5-0.2,5-0.3,7.3-0.5c5.5,1.2,11.1,1.6,21.5,1.8c3.5-0.4,22.3-4.6,25.8-4.9v11.2c3.5,0.6,7.1,1.4,10.6,2.3
			c6.8,1.8,13.9,4.2,20.9,7.4c0.3,0.1,0.5,0.3,0.9,0.5c-16.3,15.5-38.5,25-62.8,25C348,332.1,345.3,333.2,329.4,320z"/>
		<path class="st4" d="M363.4,207.6c0,0-5.1,7.4-10.6,16.6c-5.5,9.2-12.4,16.4-12.9,18.7c-0.6,2.3,8.8,6,8.8,6s-2.8,12.8-1.8,20.1
			c0.9,7.3,5.5,16.3,5.5,16.3s-14.6-0.1-18.9-23.3c-5-26.9,13.4-59,26.2-55.5"/>
		<path class="st5" d="M350.9,203.3c-2.2,1-5.2,2.8-8,5.9c-0.6,0.6-1.3,1.4-1.8,2.2c-0.5,0.6-0.9,1.3-1.3,1.9
			c-4.8,7.9-3.8,15.7-3.3,17.9c0.1-0.3,0.2-0.6,0.4-0.9c0.4-0.9,1.7-4.1,3.9-8.1c0.5-0.9,1.1-1.9,1.7-2.9c0.4-0.5,0.6-1,1-1.6
			c0.4-0.5,0.7-1,1.1-1.6c0.4-0.5,0.8-1,1.2-1.6c0.5-0.5,0.8-1,1.3-1.5c0.4-0.5,0.7-0.8,1.2-1.2c0.1-0.1,0.3-0.3,0.4-0.4
			c0.2-0.2,0.3-0.3,0.5-0.5l0.1-0.1c0.1-0.1,0.1-0.1,0.2-0.2c0.3-0.3,0.6-0.5,0.8-0.7c0.2-0.2,0.4-0.4,0.6-0.5
			c0.2-0.2,0.3-0.3,0.5-0.4c0.3-0.2,0.5-0.4,0.7-0.5c0.3-0.3,0.6-0.5,1-0.7c0.2-0.1,0.5-0.3,0.6-0.4c0.2-0.2,0.4-0.3,0.6-0.4
			c0.1-0.1,0.2-0.1,0.3-0.1c5.5-2.7,15.5,2.5,20.6,9.3c0.7,0.9,1.3,1.9,1.8,2.9c0.6,1.1,1.1,2.2,1.6,3.3c4.7,12,1.2,26.2,7.2,30.5
			l0.1,0.1c2.7,1.8,5.7,2.6,8.3,2.7c1.6,0.1,2.9,0,4-0.1c0.2-0.2,0.5-0.4,0.7-0.6c0.5-0.4,0.9-0.7,1.4-1.2c0.6-0.5,1.2-1.1,1.7-1.7
			c1.9-1.9,3.9-4.4,5.9-7.3c0.6-1.1,1.4-2.2,2-3.4c0.4-0.6,2.1-4,3.5-8.6c0.3-0.8,0.6-1.7,0.7-2.7c0.8-3.5,1.4-7.3,1.1-11.3
			c-1.2-15-15.1-29.1-34.7-35.3c0.8-8.5-2.4-15.1-6.9-16.5c-2-0.5-4.4-0.1-6.2,1c-3.1,2-4.6,6.2-3.7,10.7c-1-1.8-3-4.9-6.4-7.2
			c-1.8-1.3-8.3-5.8-12.8-3.1c-2.8,1.6-3.9,5.5-3.8,8.4c0.4,5.8,5.8,9.5,4.9,10.6c-0.7,0.8-3.7-1.9-6.4-0.8c-2.6,1-3.9,4.9-3.6,7.6
			C336.4,199.7,343,201.3,350.9,203.3z"/>
		<path class="st5" d="M363.5,235.5c1.2,0,2.1-0.9,2.1-2.1c0-1.2-0.9-2.1-2.1-2.1c-1.2,0-2.1,0.9-2.1,2.1
			C361.4,234.6,362.4,235.5,363.5,235.5z"/>
		<path class="st5" d="M344,231.6c1.2,0,2.1-0.9,2.1-2.1c0-1.2-0.9-2.1-2.1-2.1c-1.2,0-2.1,0.9-2.1,2.1
			C341.9,230.6,342.8,231.6,344,231.6z"/>
		<path class="st2" d="M399.6,270.3c7.8,0,14-6.3,14-14c0-7.7-6.3-14-14-14c-7.8,0-14,6.3-14,14C385.6,264,391.8,270.3,399.6,270.3z
			"/>
		<path class="st5" d="M340,223.7c0.8,0.2,2.8,0.5,3.7,0.5c3.8,0.3,6.9-0.3,7-1.3c0.1-1-2.9-2-6.7-2.3c-0.7-0.1-1.6-0.1-2.2-0.1
			C341.2,221.5,341,221.5,340,223.7z"/>
		<path class="st5" d="M372.9,227c0.2-1-2.9-2.3-6.9-2.9c-4-0.6-7.3-0.3-7.4,0.7c-0.2,1,2.9,2.3,6.9,2.9
			C369.4,228.3,372.7,228,372.9,227z"/>
		<path class="st5" d="M341.4,262.4c0.3,3.2,2.6,5.9,5.6,6.5c0.5,0.1,0.9,0.2,1.5,0.2c3.1,0,6.1-2.2,7.1-5.4c0-0.2,0-0.3-0.1-0.4
			c-0.1-0.1-0.2-0.2-0.4-0.2l-13.2-1.2c-0.1,0-0.3,0-0.4,0.1C341.5,262.2,341.4,262.2,341.4,262.4z"/>
		<path class="st4" d="M403.8,249.2l-12.1,5.2c0,0,4.5,3.1,0.1,5.8C399.7,256.3,403.8,249.2,403.8,249.2z"/>
		<path class="st4" d="M353.6,288.3c0,0,4.5,2.4,20.5,2c1,0-0.5-9.6-0.5-9.6s-18.5,4.9-19.6,4.3
			C353.4,286.7,353.6,288.3,353.6,288.3z"/>
		<path class="st3" d="M432.2,306.7c15.3,7.6,54.9,33.2,78.2,65.7c23.3,32.5,18.6,58.1,18.6,58.1s2,40.4-95.8,13.4
			c-12.6-3.5-8.7-34.9-8.7-34.9l53.2,1.7L424.5,374l-14.2-38.9l1.2-20.9L432.2,306.7z"/>
		<path class="st3" d="M323,339.8c0,16.3-0.9,158,0.3,177.2c66.3,24.4,117.2-13.4,117.2-13.4L430,318.9L330,310.8L323,339.8z"/>
		<path class="st6" d="M434.2,380.2l-9.6-6.1l-22.7,145.5l40.2-7L434.2,380.2z"/>
		<path class="st7" d="M206.3,297.4c4.4,15.7-10.7,25.6-13.2,32c-2.5,6.3,21.1,36.9,23.7,38.6c2.7,1.7,30.5,3.5,30.5,3.5l9.6-14.8
			l-9.4-40L234.2,293L206.3,297.4z"/>
		<path class="st3" d="M335.6,301.7c-11.4,9.6-36.7,40.9-41.9,81.9c-5.2,40.9,30.5,68.9,30.5,68.9s24.4-20.1,24.4-24.4
			C348.6,423.7,335.6,301.7,335.6,301.7z"/>
		<path class="st6" d="M322.4,359l-11.4,32.5c0,0,7,21.8,8.7,19.1C321.5,408,322.4,359,322.4,359z"/>
		<path class="st7" d="M247.7,316.6c59.1,15.6,60,52.2,62.6,62.6c2.7,10.4,9.6,31.4,9.6,31.4l-23.7,39.2l-34.9-62.7L247.7,316.6z"/>
		<path class="st8" d="M278,359.2l30.5,44.4c0,0,4.4,16.6,1.7,17.4c-2.7,0.8-38.4,6.1-38.4,6.1L278,359.2z"/>
		<path class="st9" d="M193.1,329.4c0,0,6.2,15.9,29,27.3c22.7,11.4,25.6-40,25.6-40s3.8-0.4,8.2,2.6c6.7,11.9,26.3,38.6,29.1,43.6
			c4.4,7.9,3.5,24.4-1.7,46.2c-5.2,21.8-13.1,40.9-12.2,46.2c0.9,5.2-57.6,11.4-57.6,11.4L168,456l-19.2-46.2L193.1,329.4z"/>
		<path class="st9" d="M195.8,261.5c2.5-12.5-34.1-17.7-47.7,10.2C173.3,284,194.4,268.3,195.8,261.5z"/>
		<path class="st10" d="M198.6,267.7c-4.9-10.9-35.8,4.9-31.1,33.7C193.6,297.2,201.3,273.7,198.6,267.7z"/>
		<path class="st7" d="M272.8,264c-1-6.5-3.7-13.4-7.6-19.4c0-0.1-0.1-0.1-0.1-0.2c-2.8-4.3-6.1-8.2-9.9-11.4
			c-0.5-0.4-0.8-0.7-1.3-1.1c-1.8,1.5-4.3,2.7-6.7,3.2c-5.1,1.1-10.7-0.9-14.5-5.3c-2.7,8.7-15.8,8.7-15.8,8.7
			c2.7,26.2-17.5,28.8-17.5,28.8c-0.1,0.1-0.3,0.3-0.4,0.4c0,1.8,0,3.7,0.3,5.4c0.3,2.4,1,8.4,4.2,15.1c-0.1,0-0.1-0.1-0.2-0.1
			c0.5,3.1,1.5,14.2,2.4,25.8c14-0.1,28-0.3,42-0.4c0-1.2,0.6-2.9,0.5-3.9c9.4-3.2,14.2-9.7,16.4-12.5
			C275.3,283.4,273.4,267.7,272.8,264z"/>
		<path class="st8" d="M232.5,227.4c0,0,9.4,16.3,11.7,18.2c2.3,1.9,14.5,11.3,11.5,16.1c-3,4.9-6.2,4.3-6.2,4.3s21.6,29.7-0.9,43.4
			c13.4-2.5,26-20.9,24.9-44.1c-7-30.8-25-36.3-25-36.3L232.5,227.4z"/>
		<path class="st11" d="M257.2,226.1c-0.8-5.2-15.2-9.6-29.2-7.9c9.1-9.4,19-22.2,17.3-34.8c-0.5-4.6-2.4-6.6-3.3-7.5
			c-5.7-5.2-16.7-0.9-17.2-0.7c0.3-0.4,8.3-1.8-7.1-15.6c-15.7-14.1-27.1,10.9-27.1,10.9s-9.4-14.7-25.2-0.7
			c-16.1,14.2-3.5,22.3-3.5,22.3s-26.7,1.3-26.1,21.5c0.1,4.1,1.7,7.1,2.2,7.8c3.7,5.2,11.5,7.2,19.9,5.3c-0.6,2.9-1.3,8.2,0.6,14.2
			c0.8,2.8,2.4,8,7.2,11.9c0,0,4.5,3.7,11,4.4c5,0.6,9.6,3,15-0.5c-0.1,8.3,6.5,11.5,7.2,10.8c0.2-0.1,20.5-3,17.9-29.2
			c0,0,13.1,0,15.8-8.7c3.8,4.4,9.4,6.5,14.5,5.3c2.4-0.5,4.8-1.7,6.7-3.2C256.1,230.1,257.5,228,257.2,226.1z"/>
		<path class="st5" d="M236.7,253c3.6-1,6.2-2.6,6-3.4c-0.3-0.9-3.3-0.7-6.9,0.3c-3.6,1-6.2,2.6-6,3.4
			C230,254.2,233.1,254.1,236.7,253z"/>
		<path class="st5" d="M266.7,249.1c0.1-0.9-2.7-2.1-6.4-2.6c-3.7-0.5-6.7-0.2-6.9,0.7c-0.1,0.9,2.7,2.1,6.4,2.6
			C263.5,250.3,266.6,250,266.7,249.1z"/>
		<path class="st5" d="M241.2,260.7c1.4,0,2.5-1.1,2.5-2.5c0-1.4-1.1-2.5-2.5-2.5c-1.4,0-2.5,1.1-2.5,2.5
			C238.7,259.6,239.8,260.7,241.2,260.7z"/>
		<path class="st5" d="M262.4,257.1c1.4,0,2.5-1.1,2.5-2.5s-1.1-2.5-2.5-2.5c-1.4,0-2.5,1.1-2.5,2.5S261,257.1,262.4,257.1z"/>
		<path class="st7" d="M193.4,293.4c8.8,0,15.9-7.1,15.9-15.8c0-8.8-7.1-15.8-15.9-15.8c-8.8,0-15.9,7.1-15.9,15.8
			C177.5,286.3,184.6,293.4,193.4,293.4z"/>
		<path class="st8" d="M248.6,309.5c0,0-14.1,3.9-22.6,1.5c4.9,5.9,9.3,8.1,9.3,8.1l8.8-0.5l3.6-1.9L248.6,309.5z"/>
		<path class="st8" d="M186.5,267.2l13.9,10.6c0,0-4.4,4.6,0.6,7.2C192.3,284.9,185.4,273.1,186.5,267.2z"/>
		<path class="st5" d="M238.5,272.8c0,0,5.6,9.9,16.1,2.3C249.4,275.2,238.5,272.8,238.5,272.8z"/>
		<path class="st9" d="M223,213.2c-28,12.9-33.7,49-30.4,47.6c3.3-1.5,62.3-25.4,71.4-18.2C257.1,207,223,213.2,223,213.2z"/>
		<path class="st10" d="M179.2,400.8c0.6,29,12.7,68.2,15.7,86.5c3.5,20.9,8.7,38.4,8.7,38.4s-38.4-9.9-38.4-37.2
			c0-27.3,1.2-74.4,1.2-74.4L179.2,400.8z"/>
		<path class="st7" d="M193.1,329.4c-13.9,9-45.2,19.4-53.9,51.7s-7,68-7,68s45.3,38.7,100.4,28.8c19.2-3.5,0-18.3,0-18.3
			l-61.1-26.1c0,0,15-52.1,15.7-61.9C187.8,361.5,193.1,329.4,193.1,329.4z"/>
		<path class="st6" d="M374.2,395.2c0,0,9-2.6-3.1,20.1c-9,16.9-38.3,59.7-46.1,64.2c-0.9-19.1-2-28.9-2-28.9L374.2,395.2z"/>
		<path class="st6" d="M472.6,379.3c0,0,27.3,34.3,19.8,33.2c-7.5-1.2-28.8-0.6-28.8-0.6L472.6,379.3z"/>
		<path class="st12" d="M356.4,346.4c-18.9,16.3-3.9,61.1,43.3,67.4c47.5,6.4,77.2,10.2,80.5-10c3.3-20.1-88-54-88-54L356.4,346.4z"
			/>
		<path class="st13" d="M364.5,296.8c0,0,2.5,9.7,1.7,11.8c-0.8,2.2-9.2,7.8-9.2,7.8S352,303.5,364.5,296.8z"/>
		<path class="st13" d="M402.5,303.8c0,0-5.4,8.2-5.3,10.5c0.1,2.3,6.1,10.6,6.1,10.6S412.2,314.6,402.5,303.8z"/>
		<path class="st12" d="M381.8,306.5c-6.1-1-23.9-2.5-32.7,25c-1,3.2-0.3,6.8,2,9.3c5.6,6.1,16.1,11.9,23.6,14
			c0.4,0.1,0.8,0.2,1.2,0.3c8.4,1.2,18-1.7,24.2-4.7c3-1.5,5-4.5,5.2-8C406.5,319,394.1,308.5,381.8,306.5z"/>
		<path class="st7" d="M363.4,320.4c0.2,2.7-4.9,14.9,11.8,13.2C376.2,318.8,363.4,320.4,363.4,320.4z"/>
		<path class="st5" d="M369.8,321.6c-2,1.5-4,6.2-2.1,11.2C374.9,328.1,369.8,321.6,369.8,321.6z"/>
		<path class="st7" d="M396.3,326.5c-1,2.6-0.2,15.8-15.3,8.2C384.8,320.4,396.3,326.5,396.3,326.5z"/>
		<path class="st5" d="M389.7,325.3c-2,1.5-4,6.2-2.1,11.2C394.9,331.8,389.7,325.3,389.7,325.3z"/>
		<path class="st3" d="M373.8,336.9l7.7,1.6c0.5,0.1,0.7,0.9,0.3,1.2L377,343c-0.3,0.2-0.7,0.1-0.9-0.2l-2.8-4.9
			C372.8,337.3,373.3,336.8,373.8,336.9z"/>
		<path class="st13" d="M376,343.3c0,0,0.6,6,6.3,6c-8.2,1.5-13.9-2.7-13.9-2.7S376,347.5,376,343.3z"/>
		<path class="st12" d="M402.5,303.8l-12.2,6.8c0,0,5,7.6,6,6.1C397.2,315.3,402.5,303.8,402.5,303.8z"/>
		<path class="st12" d="M364.5,296.8l9.3,10.7c0,0-7.2,5.3-7.6,3.7C365.7,309.5,364.5,296.8,364.5,296.8z"/>
		<path class="st11" d="M332.4,401.5l14.6,1.7c0,0,2.6,12-4.2,14.8C338.9,419.8,330.5,415.8,332.4,401.5z"/>
		<path class="st12" d="M416.3,362.1c1.8-0.1,39.8-20.3,54.5,7.8c14.7,28,11.4,42.7-3.1,43.7C453.1,414.5,416.3,362.1,416.3,362.1z"
			/>
		<path class="st14" d="M460.3,366.6c5.9-6.3,16-26.6,45.4-3.8c26.1,20.3,44.9-22.4,5.2-37.5"/>
		<path class="st4" d="M364.5,378.6c6.2-5,7.3-7.3,12-10.4c4.7-3.1,5.4-7,7.8-3.1c1.8,3-6.2,11.6-6.2,11.6L364.5,378.6z"/>
		<path class="st2" d="M349.7,394.2c-1.7-0.5,14.8-16.1,17.9-16.9c3-0.8,15.6-2.4,24.1-3.8c11.1-1.8,20.2,0.7,9.9,14.7
			c-4.4,6-12.8,7.6-21.1,10.3c-8.3,2.7-21.4,11.1-21.4,11.1L349.7,394.2z"/>
		<path class="st3" d="M357.1,385.5c0,0-35,16.3-47.7,30.9c-11.8,13.6-15.5,30-7.6,34.6c7.9,4.6,15.8,9.2,30.1,1.8
			c14.3-7.3,39.3-51.6,39.3-51.6L357.1,385.5z"/>
		<path class="st6" d="M321.6,434.3c0,2.9-3.3,16.5-2.8,22.9c9.3-0.5,10.1-3.3,10.1-3.3L321.6,434.3z"/>
		<path class="st3" d="M275.7,487.4c25.3,0,45.9-19.5,45.9-43.6c0-24.1-20.5-43.6-45.9-43.6c-25.3,0-45.9,19.5-45.9,43.6
			C229.9,467.8,250.4,487.4,275.7,487.4z"/>
		<path class="st6" d="M283.3,456.9c-24.2,0-44.5-5.8-45.8-6.1l1-3.5c0.5,0.2,47.5,13.6,83.8-0.5l1.4,3.4
			C310.6,455.2,296.3,456.9,283.3,456.9z"/>
		<path class="st7" d="M238.6,416.7c0,0-15.7,10.4-13.9,20.1c1.7,9.6,6.1,38.4,6.1,38.4s7,4.4,10.5-3.5c3.5-7.9,0-32.2,0-32.2
			S250.9,405.5,238.6,416.7z"/>
		<path class="st9" d="M177.5,338.1l11.7,24.4l15.1-13.9l-11.2-19.1L177.5,338.1z"/>
		<path class="st2" d="M436.6,416.5c-8.7-4-30.8-10.1-39.7-8.3c-8.9,1.7-18.7,2.7-23.3,6.5c-4.6,3.8,4.6,11.4,13.1,16.5
			c7.2,4.3,17.7,7.3,33.4,6.5C435.6,436.9,436.6,416.5,436.6,416.5z"/>
		<path class="st6" d="M285.9,486.7l-4.9,0.3c11.2-10.7,18.2-24.1,18.1-37.2c-0.3-26.9-24.7-49.7-25-50c0,0,3.7,0,5.6,0.5
			c6.9,7.3,22.7,26.7,23,49.5C303,463.9,297.9,475.3,285.9,486.7z"/>
		<path class="st6" d="M290.2,443.9c-9.2,0-16.8-2.6-20.4-7c-4.7-5.8-16.7-10-26.3-6.8c0,0,0.3-3.9,1-4.1
			c10.7-2.5,22.9,2.1,28.2,8.5c2.8,3.5,9.5,5.7,17.5,5.7c0.1,0,0.3,0,0.4,0c10.2-0.1,19.4-3.4,23.5-8.5l2.8,2.3
			c-4.7,6-15,9.8-26.3,9.9C290.4,443.9,290.3,443.9,290.2,443.9z"/>
		<path class="st7" d="M317.1,402.9c-6.6,1.8-14,9-15.3,17.7c-1.3,8.7-18.1,16.9-10.7,19.8c7.4,2.8,16.9,5.2,24.1,1.6
			c7.2-3.6,17.3-21.6,17.3-21.6S330.7,399.2,317.1,402.9z"/>
		<path class="st7" d="M313.7,402.8c-4.4,7.9-23.9,5.9-25.3,15.7c-0.9,6.1,21.8,7,28.8,0C324.2,411.5,313.7,402.8,313.7,402.8z"/>
		<path class="st3" d="M496.5,414.2c-6.4-1.2-62.8-2.3-71,0c-8.2,2.3-8,12.8-5.4,23.5s58.6,14.8,58.6,14.8L496.5,414.2z"/>
		<path class="st12" d="M359,366.7c-7,2.9-21.7,2.5-29.9,25.1c-6.7,18.5,19.7,19.7,17.4,12.8c-4.9-14.2,3.9-14.6,9.4-18.9
			c7-5.5,9.8-9.4,9-13.8C364.2,368.4,359,366.7,359,366.7z"/>
		<path class="st13" d="M327.9,397.6c-0.4-2.5,14.3-2.7,16.9-1.7c4.4,1.7,5.8,12.2-2.9,13.9C338.4,410.5,330,412.7,327.9,397.6z"/>
		<path class="st4" d="M417.3,410.2c-5.4-2.3-21.4-5.4-29.4-6.6c-8.2-1.2-3.5,4.7,1.2,5.4C393.6,409.9,417.3,410.2,417.3,410.2z"/>
		<path class="st13" d="M511.1,319.3c-5.6-1.9-13.4,8.9,1.9,12.4c6.2-7.8,5.8-9.2,5.8-9.2S515.3,320,511.1,319.3z"/>
		<path class="st8" d="M171.4,433.3l-19.5,9.9c0,0,26.1-5.2,40.7-0.5C207.2,447.2,171.4,433.3,171.4,433.3z"/>
		<path class="st8" d="M299.8,424.6l9.7-8.2l-21.1,2.1C288.4,418.5,289.9,425.8,299.8,424.6z"/>
	</g>
</g>
</svg>
