<svg width="60" height="60" viewBox="0 0 60 60" fill="none" xmlns="http://www.w3.org/2000/svg">
<g clip-path="url(#clip0)">
<path d="M37.6309 54.669C37.1082 53.8327 36.7946 52.4739 37.6309 52.0557C35.9584 51.2195 34.8086 49.6516 34.3904 47.77C34.0768 46.0976 34.5995 44.1115 36.272 43.4843C36.6901 43.3798 37.0037 43.2753 37.4218 43.2753C36.7946 41.8118 35.8539 40.5575 34.704 39.4077C34.3904 38.9895 33.9723 38.676 33.6587 38.2578C32.4044 36.6899 30.941 34.2857 31.3591 31.4634C31.5681 29.8955 32.4044 28.5366 33.7633 27.7003C34.5995 27.0732 35.6448 26.8641 36.5856 27.0732C37.8399 27.3868 38.7807 28.4321 38.8852 29.6864C38.9897 30.6272 38.4671 31.5679 37.7354 32.0906C37.3173 32.4042 36.7946 32.4042 36.272 32.1951L36.6901 31.2544C36.6901 31.2544 36.8991 31.3589 37.1082 31.1498C37.5263 30.8362 37.8399 30.2091 37.7354 29.6864C37.6309 28.8502 37.0037 28.1185 36.272 27.9094C35.5403 27.8049 34.8086 27.9094 34.1814 28.4321C33.1361 29.1638 32.5089 30.3136 32.2998 31.5679C31.8817 33.9721 33.2406 36.1672 34.3904 37.5261C34.704 37.9442 35.0176 38.2578 35.3312 38.676C36.5856 39.9303 37.5263 41.3937 38.258 42.9617L37.6309 43.1707C38.8852 43.3798 40.1396 44.4251 41.0803 45.2613C40.7667 44.216 41.7075 43.1707 42.7528 42.8571C43.7981 42.6481 44.9479 42.9617 45.7842 43.5888C45.8887 42.23 46.7249 40.9756 47.9793 40.3484L49.2336 40.2439C48.5019 40.0348 47.9793 39.5122 47.5612 38.885C46.8295 39.7213 45.6796 40.0348 44.6343 39.9303C43.589 39.7213 42.5437 39.3031 41.7075 38.676C41.1849 38.2578 40.6622 37.5261 41.0803 37.0035C39.826 36.899 38.6762 36.1672 38.049 35.1219C37.4218 34.1812 37.3173 32.8223 38.049 31.9861C38.9897 31.1498 40.4532 31.4634 41.7075 31.9861C41.2894 31.3589 41.4984 30.5226 42.1256 30.1045C42.7528 29.6864 43.4845 29.5819 44.2162 29.7909C43.9026 28.8502 44.1117 27.9094 44.8434 27.1777H45.9932C47.3521 26.3415 49.2336 26.7596 50.0699 28.1185C50.1744 28.3275 50.2789 28.4321 50.2789 28.6411C50.9061 27.4913 52.265 27.0732 53.4148 27.7003H53.5194C54.5647 28.4321 54.8782 29.8955 54.3556 31.0453C55.6099 31.5679 56.6552 32.5087 57.387 33.6585C57.9096 34.9129 57.596 36.5854 56.4462 37.2125C56.7598 37.6307 56.6552 38.2578 56.3417 38.676C55.9235 39.0941 55.5054 39.3031 54.9828 39.5122C54.042 39.9303 53.1012 40.2439 52.0559 40.5575C53.8329 41.1847 55.0873 42.9617 54.9828 44.8432C55.4009 44.5296 55.819 44.216 56.4462 44.1115C58.8504 39.7213 60.1047 34.8084 60.1047 29.7909C60.0002 29.7909 59.8957 29.8955 59.7911 29.8955C58.6413 29.8955 57.7005 26.6551 57.7005 22.5784C57.7005 21.6376 57.7005 20.8014 57.8051 19.9652C57.1779 19.6516 56.5507 19.338 55.9235 18.9199L53.9375 17.77C52.5786 18.1882 51.3242 17.0383 50.3835 15.993C49.4427 14.9477 48.3974 13.6934 48.711 12.3345C48.9201 11.6028 49.4427 11.0801 50.0699 10.662C49.1291 10.7665 48.0838 10.7666 47.143 10.5575C46.8295 10.453 46.4113 10.3484 46.0978 10.2439C46.3068 11.3937 46.3068 12.6481 46.3068 13.9024C46.3068 18.2927 45.366 21.8467 44.2162 21.8467C43.0664 21.8467 42.0211 18.2927 42.0211 13.9024C42.0211 12.439 42.1256 10.9756 42.3347 9.51219C40.7667 9.40767 39.3033 8.67596 38.1535 7.73519C37.4218 7.21254 36.7946 6.48084 36.481 5.6446C36.1674 4.80836 36.481 3.76307 37.3173 3.34495C36.0629 3.34495 34.9131 2.29965 34.9131 1.0453C34.9131 0.940766 34.9131 0.836237 34.9131 0.731707C34.9131 0.627178 34.9131 0.522648 35.0176 0.418118C33.3451 0.10453 31.6727 0 30.0002 0C28.4322 0 26.9688 0.10453 25.4009 0.313589C26.3417 0.836237 26.9688 1.56794 27.4915 2.50871C28.1187 3.76307 27.7005 5.43554 26.5507 6.06272C26.8643 6.48084 26.7598 7.10801 26.4462 7.52613C26.0281 7.94425 25.6099 8.25784 25.0873 8.36237C24.2511 8.67596 23.5194 8.98955 22.6831 9.30313C22.6831 9.72125 22.7876 10.1394 22.7876 10.662C22.7876 10.8711 22.7876 11.0801 22.7876 11.3937C23.4148 11.7073 23.9375 12.0209 24.3556 12.439C24.1465 11.7073 24.6692 10.9756 25.2964 10.7666C26.0281 10.5575 26.7598 10.7665 27.387 11.1847C27.387 10.2439 27.9096 9.40766 28.7458 8.88502L29.7911 8.78049C31.3591 8.36237 32.927 9.30313 33.3451 10.8711C33.4497 11.0801 33.4497 11.2892 33.4497 11.4983C34.3904 10.662 35.8539 10.662 36.7946 11.6028C36.7946 11.6028 36.7946 11.6028 36.8991 11.7073C37.7354 12.7526 37.6309 14.216 36.7946 15.1568C37.8399 15.993 38.5716 17.2474 38.7807 18.6063C38.8852 19.9652 38.1535 21.4286 36.7946 21.7422C36.8991 22.2648 36.6901 22.7875 36.1674 23.101C35.7493 23.3101 35.2267 23.5192 34.5995 23.5192C33.2406 23.7282 31.8817 23.7282 30.6274 23.4146C29.2685 23.101 28.2232 22.1603 27.9096 20.8014C26.9688 21.324 25.819 21.324 24.7737 20.9059C23.8329 20.4878 22.9967 19.7561 22.3695 18.8153C21.9514 18.2927 21.6378 17.3519 22.265 17.0383C21.1152 16.5157 20.2789 15.5749 19.9653 14.3206C19.8608 13.9024 19.8608 13.3798 19.8608 12.8571C19.7563 12.1254 19.7563 11.3937 19.7563 10.7666C19.7563 10.3484 19.7563 9.82578 19.8608 9.40766C19.1291 9.19861 18.5019 8.67596 18.0838 8.04878C17.8748 8.36237 17.5612 8.57143 17.2476 8.67596C17.3521 9.72125 17.4566 10.8711 17.4566 12.1254C17.4566 16.5157 16.7249 20.0697 15.7842 20.0697C14.8434 20.0697 14.1117 16.5157 14.1117 12.1254C14.1117 10.9756 14.2162 9.82578 14.2162 8.78049C13.4845 8.57143 12.7528 8.15331 12.2302 7.73519C11.812 7.52613 11.603 7.10801 11.3939 6.6899C8.46709 8.88502 6.06291 11.6028 4.28591 14.6341C4.91308 16.5157 5.22667 18.5017 5.12214 20.4878C5.12214 24.4599 4.18138 27.8049 3.03155 27.8049C2.09078 27.8049 1.25455 25.5052 1.04549 22.4739C-3.1357 38.4669 6.3765 54.878 22.4741 59.1638C28.6413 60.7317 35.1221 60.4181 40.9758 58.1185C39.5124 57.1777 38.4671 56.0279 37.6309 54.669ZM21.3242 47.4564C20.5925 50.0697 18.8155 53.101 16.3068 54.1463C15.7842 54.3554 15.157 54.4599 14.5298 54.4599C13.4845 54.4599 12.4392 54.1463 11.4984 53.5192C10.1396 52.5784 9.1988 51.115 8.88521 49.547C8.46709 48.1882 8.98974 46.8293 10.1396 45.993C10.8713 45.3658 11.7075 44.9477 12.7528 44.9477C13.38 45.0523 13.9026 45.3659 14.2162 45.8885C14.5298 46.3066 14.6343 46.8293 14.4253 47.2474L13.4845 47.0383C13.4845 46.8293 13.4845 46.6202 13.38 46.5157C13.1709 46.2021 12.9619 46.0976 12.6483 45.993C12.0211 45.993 11.2894 46.3066 10.8713 46.7247C10.4532 47.0383 10.1396 47.561 9.9305 48.0836C9.82598 48.5017 9.93051 48.9199 10.035 49.2334C10.3486 50.5923 11.0803 51.7422 12.2302 52.5784C13.38 53.3101 14.7389 53.5192 16.0978 53.101C18.2929 52.2648 19.8608 49.4425 20.488 47.1429C21.2197 44.6341 21.0106 42.0209 19.8608 39.7213L20.8016 39.3031C21.8469 41.8118 22.0559 44.7387 21.3242 47.4564ZM28.5368 39.6167C26.9688 40.0348 25.4009 38.676 24.3556 37.5261C24.5647 38.4669 23.7284 39.6167 22.7876 39.4077C21.4288 39.1986 19.1291 37.7352 20.1744 38.4669C19.9653 39.7212 19.1291 40.662 17.9793 41.0801H16.5159C14.2162 41.3937 12.0211 39.0941 12.4392 36.7944C11.1849 37.8397 8.98974 37.3171 8.1535 35.8537C7.31727 34.2857 7.73538 32.5087 9.09427 31.3589C7.94444 30 7.10821 28.223 7.21274 26.5505C7.31727 24.878 8.67615 23.101 10.4532 22.9965C10.3486 22.2648 10.7667 21.6376 11.4984 21.4286C12.1256 21.2195 12.8573 21.115 13.4845 21.2195C15.157 21.324 16.934 21.4286 18.5019 22.1603C20.0699 22.892 21.4288 24.3554 21.5333 26.0279C22.8922 25.6098 24.3556 25.7143 25.5054 26.5505C26.6552 27.3868 27.596 28.4321 28.2232 29.6864C28.6413 30.4181 28.8504 31.6725 28.0141 31.9861C29.373 32.8223 30.3138 34.2857 30.4183 35.9582C30.6274 37.5261 30.0002 39.1986 28.5368 39.6167Z" fill="#FFDBE9"/>
<path d="M19.7561 39.7213C20.8014 42.021 21.0105 44.6342 20.3833 47.1429C19.7561 49.4426 18.1882 52.2649 15.9931 53.1011C14.7387 53.5192 13.2753 53.4147 12.1255 52.5784C10.9756 51.7422 10.2439 50.5924 9.93035 49.2335C9.82582 48.8154 9.82582 48.5018 9.82582 48.0837C10.0349 47.561 10.3485 47.0384 10.7666 46.7248C11.2892 46.2021 11.9164 45.9931 12.5436 45.9931C12.8572 45.9931 13.1708 46.2021 13.2753 46.5157C13.3798 46.6203 13.3798 46.8293 13.3798 47.0384L14.3206 47.352C14.4251 46.8293 14.3206 46.4112 14.007 45.9931C13.6934 45.4704 13.0662 45.1568 12.5436 45.0523C11.6028 45.0523 10.6621 45.3659 9.93035 46.0976C8.78052 46.9338 8.3624 48.2927 8.67599 49.6516C8.98958 51.2196 9.93035 52.683 11.2892 53.6237C12.23 54.2509 13.2753 54.5645 14.3206 54.5645C14.9478 54.5645 15.4704 54.46 16.0976 54.2509C18.6063 53.3102 20.4878 50.1743 21.115 47.561C21.8467 44.8433 21.6377 42.021 20.4878 39.4077L19.7561 39.7213Z" fill="#8F59FF"/>
<path d="M38.4669 43.0661C37.7352 41.4982 36.7945 40.0348 35.5401 38.7804C35.2265 38.3623 34.9129 38.0487 34.5993 37.6306C33.4495 36.2717 32.0906 34.0766 32.5087 31.6724C32.7178 30.4181 33.4495 29.2682 34.3903 28.5365C35.0175 28.1184 35.7492 27.9093 36.4809 28.0139C37.3171 28.2229 37.9443 28.9546 37.9443 29.7909C37.9443 30.3135 37.7352 30.9407 37.3171 31.2543C37.108 31.4634 36.899 31.3588 36.899 31.3588L36.4809 32.2996C36.899 32.5087 37.5262 32.5086 37.9443 32.1951C38.676 31.6724 39.0941 30.7316 39.0941 29.7909C38.9896 28.5365 38.0488 27.3867 36.7945 27.1776C35.7492 26.9686 34.8084 27.1776 33.9722 27.8048C32.7178 28.6411 31.8816 29.9999 31.568 31.5679C31.1499 34.3902 32.6133 36.7944 33.8676 38.3623C34.1812 38.7804 34.4948 39.094 34.9129 39.5121C36.0627 40.662 36.899 41.9163 37.6307 43.2752H37.9443L38.4669 43.0661Z" fill="#8F59FF"/>
<path d="M52.056 40.7666C53.1013 40.5575 54.0421 40.2439 54.9829 39.7213C55.5055 39.5122 55.9236 39.3032 56.3418 38.8851C56.7599 38.4669 56.7599 37.8398 56.4463 37.4216C57.5961 36.7945 57.9097 35.122 57.3871 33.8676C56.7599 32.6133 55.7146 31.6725 54.3557 31.2544C54.8783 30 54.4602 28.6411 53.4149 27.9094C52.2651 27.2823 50.9062 27.5959 50.1745 28.7457V28.8502C49.6519 27.2823 47.8749 26.5506 46.4114 27.0732C46.2024 27.1777 46.0979 27.1777 45.8888 27.2823L44.948 27.7004C44.3209 28.4321 44.1118 29.3729 44.3209 30.3136C43.5891 30.1046 42.8574 30.2091 42.2303 30.6272C41.6031 31.0453 41.394 31.8816 41.8121 32.5087C40.6623 32.0906 39.0944 31.6725 38.1536 32.5087C37.3174 33.2405 37.5264 34.7039 38.1536 35.6446C38.8853 36.6899 39.9306 37.3171 41.185 37.5262C40.7668 38.0488 41.2895 38.7805 41.8121 39.1986C42.6484 39.8258 43.6937 40.2439 44.739 40.453C45.7843 40.5575 46.9341 40.2439 47.6658 39.4077C48.0839 40.0349 48.6066 40.453 49.3383 40.7666H49.7564C50.5926 40.3485 51.3243 40.453 52.056 40.7666Z" fill="#4E1ABA"/>
<path d="M12.0209 7.7352C12.6481 8.15332 13.2752 8.57144 14.0069 8.7805C14.3205 6.06273 14.8432 4.18119 15.4704 4.18119C16.0975 4.18119 16.7247 5.9582 16.9338 8.57144C17.2474 8.36238 17.561 8.15332 17.77 7.94426C18.1881 8.57144 18.8153 9.09409 19.547 9.30315C19.7561 7.10802 20.2787 5.43555 21.0104 5.43555C21.7421 5.43555 22.3693 7.10802 22.4738 9.30315C23.3101 9.09409 24.1463 8.7805 24.878 8.36238C25.4007 8.15332 25.8188 7.94426 26.2369 7.52614C26.655 7.10802 26.655 6.48085 26.3414 6.06273C27.4913 5.43555 27.8049 3.76308 27.2822 2.50872C26.8641 1.56795 26.1324 0.836247 25.1916 0.313599C19.9651 1.14984 15.0522 3.24043 10.9756 6.58538C11.2892 7.10802 11.6028 7.52614 12.0209 7.7352Z" fill="#4E1ABA"/>
<path d="M28.0143 32.0906C28.8506 31.777 28.6415 30.6272 28.2234 29.791C27.5962 28.5366 26.6554 27.3868 25.5056 26.6551C24.3558 25.8189 22.8924 25.6098 21.5335 26.1325C21.429 24.46 20.0701 22.9966 18.5021 22.2649C16.9342 21.5331 15.1572 21.4286 13.4847 21.3241C12.753 21.2196 12.1258 21.3241 11.4986 21.5331C10.8715 21.7422 10.4533 22.4739 10.4533 23.1011C8.67634 23.2056 7.31745 24.9826 7.21292 26.6551C7.10839 28.4321 7.94463 30.1046 9.09446 31.4635C7.73557 32.5088 7.42198 34.3903 8.15369 35.9582C8.98993 37.4216 11.185 37.9443 12.4394 36.899C12.0213 39.1986 14.2164 41.4983 16.5161 41.1847H17.9795C19.1293 40.7666 19.9655 39.7213 20.1746 38.5715C19.0248 37.7352 21.3244 39.1986 22.7878 39.5122C23.7286 39.6168 24.5648 38.4669 24.3558 37.6307C25.5056 38.8851 26.969 40.2439 28.537 39.7213C30.0004 39.3032 30.6276 37.6307 30.4185 36.1673C30.314 34.3903 29.3732 32.9269 28.0143 32.0906Z" fill="#4E1ABA"/>
<path d="M37.3174 3.24043C36.4811 3.65855 36.1676 4.70384 36.4812 5.54008C36.7947 6.37632 37.4219 7.10802 38.1536 7.63067C39.3034 8.67597 40.7669 9.30315 42.2303 9.61673C42.6484 7.52614 43.2756 6.06273 44.0073 6.06273C44.8435 6.06273 45.5752 7.83973 45.8888 10.3484C46.2024 10.453 46.6205 10.5575 46.9341 10.662C47.8749 10.8711 48.9202 10.8711 49.8609 10.7666C50.2791 10.453 50.8017 10.2439 51.3243 10.0349C50.5926 9.30315 49.8609 8.46691 49.7564 7.42161C45.5752 3.76308 40.4533 1.25437 35.0177 0.313599C35.0177 0.418128 34.9132 0.522658 34.9132 0.627187C34.8087 1.88154 35.7494 3.03137 37.0038 3.1359C37.1083 3.24043 37.2129 3.24043 37.3174 3.24043Z" fill="#4E1ABA"/>
<path d="M51.429 10.1394C51.0109 10.5575 50.4882 10.7666 49.9656 10.8711C49.3384 11.2892 48.8157 11.8119 48.6067 12.5436C48.2931 13.9025 49.2338 15.1568 50.2791 16.2021C51.3244 17.2474 52.5788 18.3972 53.8332 17.9791L55.8192 19.1289C56.4464 19.547 57.0736 19.8606 57.7007 20.1742C57.7007 19.7561 57.8053 19.4425 57.8053 19.1289C56.4464 15.5749 54.3558 12.3345 51.7426 9.51221C51.7426 9.61674 51.638 9.61674 51.638 9.72127C51.638 9.8258 51.5335 9.93032 51.429 10.1394Z" fill="#4E1ABA"/>
<path d="M51.7424 9.61672C51.7424 9.51219 51.8469 9.51219 51.8469 9.40766C51.2197 8.78048 50.5925 8.1533 49.8608 7.52612C49.9654 8.46689 50.6971 9.40766 51.4288 10.1394C51.5333 9.9303 51.6378 9.82577 51.7424 9.61672Z" fill="#4E1ABA"/>
<path d="M51.4287 10.1394C50.9061 10.3485 50.488 10.5575 49.9653 10.8711C50.488 10.7666 51.0106 10.5575 51.4287 10.1394Z" fill="#4E1ABA"/>
<path d="M44.9478 9.19861C44.1116 9.61673 43.1708 9.82579 42.2301 9.61673C42.021 11.0801 41.8119 12.5436 41.9165 14.007C41.9165 18.3972 42.8572 21.9512 44.0071 21.9512C45.1569 21.9512 46.0977 18.3972 46.0977 14.007C46.0977 12.7526 45.9931 11.6028 45.8886 10.3484C45.366 10.2439 44.8433 9.82579 44.9478 9.19861Z" fill="#8F59FF"/>
<path d="M44.007 6.16724C43.2753 6.16724 42.6481 7.52612 42.23 9.72124C43.1707 9.9303 44.1115 9.72124 44.9477 9.30312C44.9477 9.9303 45.3659 10.3484 45.8885 10.5575C45.5749 7.94424 44.8432 6.16724 44.007 6.16724Z" fill="#8F59FF"/>
<path d="M21.115 15.8885C20.4879 15.8885 19.9652 14.6341 19.7562 12.7526C19.6516 13.2752 19.6516 13.6934 19.8607 14.216C20.1743 15.3658 21.0105 16.4111 22.1603 16.9338C21.5332 17.2474 21.8468 18.1881 22.2649 18.7108C22.892 19.547 23.7283 20.2787 24.6691 20.8014C25.6098 21.2195 26.7596 21.2195 27.8049 20.6969C28.2231 21.9512 29.2684 22.9965 30.5227 23.3101C31.7771 23.6237 33.136 23.6237 34.4948 23.4146C35.0175 23.4146 35.5401 23.3101 36.0628 22.9965C36.5854 22.7874 36.7945 22.1603 36.69 21.6376C38.0488 21.324 38.8851 19.8606 38.676 18.5017C38.467 17.1428 37.7353 15.8885 36.69 15.0523C37.5262 14.1115 37.6307 12.6481 36.7945 11.6028C35.9583 10.662 34.4948 10.5575 33.5541 11.3937C33.5541 11.3937 33.5541 11.3937 33.4495 11.4982C33.4495 9.9303 32.0907 8.57142 30.4182 8.67595C30.2091 8.67595 30.0001 8.67595 29.791 8.78048L28.7457 8.88501C27.9095 9.30312 27.3868 10.2439 27.3868 11.1847C26.7596 10.7665 26.0279 10.662 25.2962 10.8711C24.5645 11.0801 24.1464 11.8118 24.3555 12.5435C23.8328 12.1254 23.3102 11.8118 22.7875 11.4982C22.5785 13.9024 21.9513 15.8885 21.115 15.8885Z" fill="#4E1ABA"/>
<path d="M19.6519 9.3031C19.6519 9.72122 19.5474 10.1393 19.5474 10.662C19.5474 11.3937 19.5474 12.1254 19.6519 12.7526C19.7564 12.1254 20.1745 11.4982 20.6972 11.2892C21.3244 11.0801 21.9515 11.0801 22.5787 11.3937C22.5787 11.1846 22.5787 10.9756 22.5787 10.662C22.5787 10.2439 22.5787 9.72122 22.4742 9.3031C22.0561 9.40763 21.5334 9.51216 21.1153 9.51216C20.6972 9.51216 20.1745 9.51216 19.6519 9.3031Z" fill="#8F59FF"/>
<path d="M21.1153 5.43555C20.3836 5.43555 19.7564 7.10802 19.6519 9.30314C20.1745 9.5122 20.6972 9.5122 21.2198 9.5122C21.6379 9.5122 22.1606 9.40767 22.5787 9.30314C22.4742 7.10802 21.847 5.43555 21.1153 5.43555Z" fill="#8F59FF"/>
<path d="M20.8016 11.2892C20.1745 11.6028 19.8609 12.1254 19.7563 12.8571C19.9654 14.6341 20.4881 15.993 21.1152 15.993C21.8469 15.993 22.5786 14.007 22.6832 11.3937C22.056 11.0801 21.4288 10.9756 20.8016 11.2892Z" fill="#8F59FF"/>
<path d="M14.9481 8.98949C14.6345 8.98949 14.321 8.88496 14.0074 8.78043C13.9028 9.82573 13.9028 10.871 13.9028 12.1254C13.9028 16.5156 14.6345 20.0696 15.5753 20.0696C16.5161 20.0696 17.2478 16.5156 17.2478 12.1254C17.2478 10.871 17.1433 9.7212 17.0387 8.6759C16.307 8.88496 15.6798 8.98949 14.9481 8.98949Z" fill="#8F59FF"/>
<path d="M15.4707 4.18115C14.8436 4.18115 14.2164 6.06269 14.0073 8.78046C14.3209 8.88498 14.6345 8.98952 14.9481 8.98952C15.6798 9.09404 16.4115 8.88498 17.0387 8.5714C16.7251 5.95816 16.2024 4.18115 15.4707 4.18115Z" fill="#8F59FF"/>
<path d="M3.03147 27.8049C4.1813 27.8049 5.12207 24.5645 5.12207 20.4878C5.22659 18.5018 4.91301 16.5157 4.28583 14.6342C2.82241 17.0383 1.67259 19.6516 1.04541 22.3693C1.25447 25.5052 2.09071 27.8049 3.03147 27.8049Z" fill="#8F59FF"/>
<path d="M57.5962 22.7874C57.5962 26.7596 58.537 30.1045 59.6868 30.1045C59.7913 30.1045 59.8958 30.1045 60.0004 30C60.0004 26.7596 59.4777 23.4146 58.4324 20.3833C58.2234 20.2787 58.0143 20.2787 57.8053 20.1742C57.7007 21.0104 57.5962 21.8467 57.5962 22.7874Z" fill="#8F59FF"/>
<path d="M58.4324 20.3833C58.3278 19.9652 58.1188 19.5471 57.9097 19.0244C57.8052 19.338 57.8052 19.7561 57.8052 20.0697C58.0142 20.1742 58.2233 20.2788 58.4324 20.3833Z" fill="#8F59FF"/>
<path d="M52.0559 40.7666C51.7423 40.8711 51.4287 40.8711 51.2197 40.8711C50.5925 40.8711 50.0698 40.7666 49.4427 40.5575L48.1883 40.662C46.934 41.2892 46.0977 42.5436 45.9932 43.9024C45.157 43.2753 44.0071 42.9617 42.9618 43.1707C41.9165 43.3798 41.0803 44.5296 41.2894 45.5749C40.2441 44.6341 39.0942 43.6934 37.8399 43.4843L37.5263 43.5889C37.5263 43.4843 37.5263 43.4843 37.4218 43.3798C37.0036 43.3798 36.5855 43.3798 36.2719 43.5889C34.704 44.216 34.0768 46.2021 34.3904 47.8746C34.8085 49.6516 35.9584 51.2195 37.6308 52.1603C36.6901 52.5784 37.0036 53.9373 37.6308 54.7735C38.4671 56.1324 39.6169 57.2822 40.9758 58.1185C47.5611 55.4007 52.9967 50.5923 56.4462 44.3206C55.9235 44.4251 55.4009 44.6341 55.0873 45.0523C55.1918 43.1707 53.8329 41.3937 52.0559 40.7666Z" fill="#4E1ABA"/>
<path d="M37.84 43.3798L37.5264 43.2753C37.5264 43.3798 37.5264 43.3798 37.6309 43.4843L37.84 43.3798Z" fill="#4E1ABA"/>
<path d="M52.0561 40.7666C51.3244 40.453 50.5927 40.453 49.7565 40.5575H49.3384C49.861 40.7666 50.4882 40.8711 51.1154 40.8711C51.5335 40.7666 51.8471 40.7666 52.0561 40.7666Z" fill="#4E1ABA"/>
</g>
<defs>
<clipPath id="clip0">
<rect width="60" height="60" fill="white"/>
</clipPath>
</defs>
</svg>
