<svg width="60" height="60" viewBox="0 0 60 60" fill="none" xmlns="http://www.w3.org/2000/svg">
<g clip-path="url(#clip0)">
<path d="M51.8464 28.9547C50.6966 28.6411 49.0242 28.9547 47.9789 26.5505C47.5607 26.6551 47.0381 26.8641 47.0381 27.4913C47.0381 28.1185 47.2471 28.7457 47.5607 29.2683C49.2332 29.2683 50.4876 30.6272 50.4876 32.2997C50.4876 33.554 49.6513 34.5993 48.5015 35.0174L49.3377 41.2892L47.9789 43.9025C48.9196 43.1707 49.9649 42.9617 49.5468 45.5749C49.1287 48.7108 51.2193 47.9791 50.174 50.6969C49.9649 51.3241 49.7559 51.9512 49.7559 52.5784C56.2367 46.9338 59.9998 38.676 59.9998 30C59.9998 29.791 59.9998 29.6864 59.9998 29.4774C56.8639 29.4774 52.8917 29.2683 51.8464 28.9547Z" fill="#FFEDCC"/>
<path d="M4.07661 17.3519C4.07661 17.3519 2.82226 17.2474 3.03132 19.2334L4.07661 17.3519Z" fill="#2F50A8"/>
<path d="M51.6375 23.4146C52.0556 24.2509 56.1323 24.5645 59.5818 24.669C58.5365 18.7108 55.6096 13.1707 51.4285 8.88501C51.3239 15.0523 51.2194 22.5784 51.6375 23.4146Z" fill="#FFEDCC"/>
<path d="M34.8086 50.5923C37.1083 48.9199 38.8853 46.6202 39.826 45.993C41.394 44.9477 42.2302 45.3659 41.9166 46.6202C44.1117 44.216 46.934 41.0801 47.1431 40.7666C47.4567 40.2439 47.0386 36.5854 46.934 35.122C46.3069 34.9129 45.7842 34.5993 45.3661 34.0767L45.4706 34.2857C45.4706 34.2857 40.0351 34.5993 38.7807 35.2265C38.1535 35.6446 37.7354 36.2718 37.3173 36.7944C37.7354 36.899 38.1535 37.0035 38.4671 37.2125C39.3034 37.6307 40.5577 38.676 39.9306 39.5122C39.5124 40.1394 37.3173 40.453 35.7494 40.662L34.286 41.3937C33.4497 42.7526 32.8225 43.6934 32.8225 43.6934C34.495 43.3798 37.6309 43.5889 35.6448 44.8432C33.6588 46.0976 35.1222 45.2613 31.5682 46.2021C31.5682 46.2021 29.164 50.6969 28.2232 51.0105C27.2825 51.324 26.6553 50.0697 26.7598 49.2335C26.8644 48.7108 27.7006 47.6655 28.3278 46.8293C26.9689 47.0383 25.5055 47.1429 24.1466 47.1429L19.8609 50.0697L20.279 49.8606L12.9619 54.669C15.7842 56.6551 18.9201 58.1185 22.1605 59.0592L33.6588 54.8781C33.7633 53.9373 32.5089 52.2648 34.8086 50.5923Z" fill="#FFEDCC"/>
<path d="M30.3134 43.1708L29.0591 43.798C30.3134 43.798 31.4633 43.798 32.7176 43.5889L29.8953 43.798L30.3134 43.1708Z" fill="#FFEDCC"/>
<path d="M43.7981 26.1324C43.38 26.8641 44.2162 29.7909 44.8434 31.5679C45.157 30.209 46.3068 29.2683 47.6657 29.2683C47.3521 28.7456 47.143 28.1184 47.143 27.4913C47.0385 26.8641 47.5612 26.5505 48.0838 26.5505C47.7702 25.7143 47.5612 24.878 47.4566 23.9373C46.3068 24.4599 44.2162 25.4007 43.7981 26.1324Z" fill="#2F50A8"/>
<path d="M59.5817 24.6689C56.1322 24.5644 52.0555 24.1463 51.6374 23.4146C51.2193 22.6829 51.3238 15.0522 51.4284 8.88498C49.965 7.52609 48.5015 6.27174 46.9336 5.22644C47.0381 7.52609 47.3517 14.8432 47.4562 18.7108C47.3517 20.4878 47.3517 22.1602 47.4562 23.9372C47.5608 24.878 47.7698 25.7142 48.0834 26.5505C49.0242 28.9547 50.8012 28.6411 51.951 28.9547C52.9963 29.2683 56.9684 29.3728 60.1043 29.4773C59.9998 27.9094 59.7907 26.3414 59.5817 24.6689Z" fill="#FFBF47"/>
<path d="M54.0417 24.8781C54.0417 24.8781 51.8466 30.2091 51.4284 30.6272C51.0103 31.0453 49.4424 30.9408 49.4424 30.9408L49.5469 34.2857C50.1741 34.2857 50.8013 34.1812 51.4284 33.9721C52.5783 33.554 53.7281 33.2404 54.2507 31.6725C54.6689 29.791 55.087 27.9094 55.296 25.9234C55.1915 25.9234 54.1462 24.0418 54.0417 24.8781Z" fill="#2F50A8"/>
<path d="M9.51242 40.3484C8.3626 40.2439 7.10824 40.1394 5.95842 39.9303L3.44971 43.9024C4.18141 45.2613 5.01765 46.6202 5.95842 47.8745L7.3173 47.1428C8.25807 44.4251 9.09431 41.9164 9.51242 40.3484Z" fill="#DB8F00"/>
<path d="M5.85352 47.8746C6.1671 48.2927 6.48069 48.6063 6.68975 49.0244L7.31693 47.2474L5.85352 47.8746Z" fill="#DB8F00"/>
<path d="M1.46338 20.8014L1.67244 20.9059C1.67244 20.8014 1.56791 20.8014 1.46338 20.8014Z" fill="#FFEDCC"/>
<path d="M6.79443 15.8885C8.67597 14.4251 8.98956 10.453 9.72126 7.83972C9.09409 10.453 8.67597 14.4251 6.79443 15.8885Z" fill="#FFEDCC"/>
<path d="M3.03155 38.2578C2.19531 37.7352 1.4636 37.317 0.836426 36.8989C0.940955 37.4216 1.15001 37.9442 1.25454 38.4669C1.77719 40.3484 2.5089 42.2299 3.44967 43.9024L6.06291 39.9303L6.48102 39.3031C5.12214 39.1986 3.97231 38.885 3.03155 38.2578Z" fill="#FFBF47"/>
<path d="M43.7977 26.1324C44.2158 25.4007 46.3064 24.3554 47.4563 23.9373C47.3517 22.1603 47.3517 20.4878 47.4563 18.7108C47.3517 14.8432 47.0381 7.52613 46.9336 5.22648C42.5434 2.19512 37.4214 0.418118 31.9859 0.10453C31.3587 0 30.7315 0 29.9998 0C27.5956 0 25.1915 0.313589 22.7873 0.836237C23.1009 2.29965 22.8918 3.76307 22.1601 5.01742C24.2507 3.76307 26.4458 3.76307 27.5956 4.80836C28.1183 5.22648 28.4319 5.95819 28.4319 6.58537C28.3273 8.15331 26.2368 10.0348 23.8326 10.8711C24.7733 14.4251 21.742 18.6063 21.742 18.6063C21.5329 20.0697 21.1148 21.5331 20.4876 22.892C20.3831 23.101 20.3831 23.3101 20.2786 23.5192C20.0695 23.8328 19.965 24.1463 19.7559 24.4599C18.0834 27.5958 15.5747 30.1045 12.3343 30.3136C11.3935 30.4181 10.5573 30.2091 9.72108 30L9.40749 30.4181C9.19843 31.5679 9.40749 34.1812 9.19843 35.4355C10.0347 36.4808 10.3483 37.8397 10.0347 39.1986L9.72108 39.3031C9.61655 39.6167 9.51202 40.0348 9.40749 40.453C9.0939 42.0209 8.36219 44.4251 7.31689 47.2474L20.4876 41.4983C21.8465 40.662 24.3552 39.0941 25.1915 38.5714C26.6549 37.5261 28.3273 36.899 30.2089 36.6899C31.7768 36.4808 33.3448 36.3763 34.9127 36.4808C35.958 35.0174 36.6897 33.7631 36.8988 33.554C37.4214 32.7178 44.7385 32.2997 44.7385 32.2997C44.7385 32.0906 44.7385 31.8815 44.843 31.6725C44.2158 29.8955 43.3796 26.8641 43.7977 26.1324Z" fill="#FFEDCC"/>
<path d="M6.37613 39.3031L5.95801 39.9303C7.10783 40.1394 8.25766 40.3484 9.51202 40.3484C9.61655 39.9303 9.72107 39.5122 9.8256 39.1986C8.67578 39.4077 7.52595 39.4077 6.37613 39.3031Z" fill="#DB8F00"/>
<path d="M20.5923 22.8919C21.1149 21.5331 21.533 20.0696 21.8466 18.6062C21.9512 18.1881 21.9512 17.77 21.9512 17.4564C21.9512 17.3519 21.9512 17.2473 21.9512 17.1428C21.9512 17.0383 21.9512 16.9338 21.9512 16.8292C21.7421 18.9198 21.324 20.9059 20.5923 22.8919Z" fill="#4B6BC4"/>
<path d="M8.98955 35.2265C9.09408 35.331 9.09408 35.4356 9.19861 35.5401C9.30314 34.2857 9.19861 31.6725 9.40767 30.5227L8.57143 32.4042C8.57143 32.4042 8.4669 32.5087 6.89895 33.9721C4.91289 32.2997 3.8676 26.8641 5.12195 26.2369C5.6446 26.8641 6.16725 27.3868 6.6899 27.9094C7.00348 28.014 7.83972 27.9094 9.61672 26.7596C10.0348 26.446 10.453 26.1324 10.8711 25.8188C10.5575 24.9826 10.3484 24.0418 10.1394 23.2056L11.6028 25.1917C12.1254 24.7735 12.5436 24.2509 12.8571 23.7282C12.8571 23.7282 13.1707 23.7282 14.6341 23.8328C16.6202 23.9373 16.3066 21.6376 16.3066 21.6376C16.3066 21.6376 16.6202 16.7248 16.7247 15.993C17.1429 14.007 17.6655 12.0209 18.3972 10.1394C18.0836 9.93033 17.6655 9.61674 17.3519 9.30315C17.0383 8.98956 16.4111 8.57145 15.8885 8.15333C14.7387 7.31709 13.5889 6.58538 12.3345 5.85368L12.23 5.74915C11.3937 6.37632 10.5575 7.10803 9.72125 7.83974C8.98955 10.453 8.67596 14.3206 6.79443 15.8885C6.58537 15.993 6.37631 16.2021 6.16725 16.3066C5.95819 15.3659 5.43554 14.5296 4.5993 14.007C3.24042 16.0976 2.19512 18.3972 1.35889 20.8014C1.46341 20.8014 1.56794 20.8014 1.56794 20.9059H1.88153C1.777 20.9059 1.777 20.9059 1.67247 20.9059H1.35889C0.522648 23.8328 0 26.8641 0 30C0 30.2091 0 30.3136 0 30.5227C2.09059 33.0314 5.22648 36.1673 8.98955 35.2265ZM14.3206 16.4112C14.1115 16.6202 13.6934 16.5157 13.4843 16.3066C13.2753 16.0976 13.3798 15.6795 13.5889 15.4704C13.7979 15.2613 14.216 15.3659 14.3206 15.5749C14.6341 15.784 14.6341 16.2021 14.3206 16.4112ZM14.7387 12.1255C15.784 12.439 16.6202 12.9617 16.5157 13.1707C16.4111 13.3798 15.4704 13.3798 14.4251 12.9617C13.3798 12.6481 12.5436 12.1255 12.6481 11.9164C12.6481 11.7073 13.5889 11.7073 14.7387 12.1255Z" fill="#4B6BC4"/>
<path d="M9.72119 29.7909C10.662 30.1045 11.6027 30.209 12.439 30.209C15.6794 29.9999 18.1881 27.4912 19.8606 24.3553C16.3066 30.5226 12.3344 30.7317 9.72119 29.7909Z" fill="#4B6BC4"/>
<path d="M9.61677 29.7909L9.51224 30C9.51224 30.1045 9.40771 30.209 9.40771 30.4181L9.61677 29.7909Z" fill="#2F50A8"/>
<path d="M21.6377 12.23C21.6377 12.3345 21.6377 12.439 21.7422 12.5436C21.7422 12.6481 21.8468 12.8572 21.8468 12.9617C21.8468 12.8572 21.8468 12.6481 21.7422 12.5436C21.7422 12.439 21.7422 12.3345 21.6377 12.23Z" fill="#2F50A8"/>
<path d="M20.3835 23.4147C20.488 23.2056 20.488 22.9965 20.5925 22.7875C20.3835 23.3101 20.1744 23.8328 19.8608 24.3554C19.9654 24.1464 20.1744 23.7282 20.3835 23.4147Z" fill="#2F50A8"/>
<path d="M9.61692 29.7909C12.3347 30.7317 16.3068 30.5226 19.8608 24.3553C20.1744 23.8327 20.3835 23.3101 20.5925 22.7874C21.3242 20.9059 21.7424 18.8153 22.0559 16.8292C22.0559 16.6202 22.0559 16.4111 22.0559 16.202C22.0559 15.0522 22.0559 13.9024 21.8469 12.8571C21.8469 12.7526 21.8469 12.5435 21.7424 12.439C21.7424 12.3344 21.7424 12.2299 21.6378 12.1254V12.0209C21.6378 11.9163 21.5333 11.8118 21.5333 11.6027L21.4288 11.1846C21.0107 11.1846 20.5925 11.0801 20.2789 10.9756C20.0699 10.871 19.7563 10.7665 19.5472 10.662C19.3382 10.5574 19.1291 10.4529 18.8155 10.2438C18.711 10.1393 18.6065 10.1393 18.5019 10.0348H18.3974C17.6657 11.9163 17.1431 13.9024 16.7249 15.8884C16.6204 16.6202 16.3068 21.533 16.3068 21.533C16.3068 21.533 16.5159 23.8327 14.6343 23.7282C13.1709 23.6236 12.9619 23.6236 12.8573 23.6236C12.5438 24.1463 12.0211 24.6689 11.603 25.0871L12.0211 25.7142C12.0211 25.7142 11.4985 26.5505 11.1849 26.2369C11.0803 26.1324 10.9758 25.9233 10.9758 25.7142C10.5577 26.0278 10.1396 26.3414 9.72145 26.655C7.94445 27.8048 7.10821 27.9094 6.79462 27.8048C6.16745 27.2822 5.6448 26.7595 5.22668 26.1324C4.07685 26.7595 5.01762 32.1951 7.00368 33.8675C8.57163 32.2996 8.67616 32.2996 8.67616 32.2996L9.40786 30.4181C9.40786 30.209 9.51239 30.1045 9.51239 29.8954L9.61692 29.7909ZM19.0246 17.8745C19.3382 17.6655 19.6518 17.6655 19.8608 17.979C20.0699 18.2926 20.0699 18.6062 19.7563 18.8153C19.5472 19.0243 19.1291 19.0243 18.9201 18.7107C18.711 18.5017 18.711 18.0836 19.0246 17.8745Z" fill="#2F50A8"/>
<path d="M14.4251 12.9617C15.4704 13.2753 16.4112 13.3798 16.5157 13.1707C16.6202 12.9617 15.784 12.439 14.7387 12.1254C13.6934 11.8119 12.7526 11.7073 12.6481 11.9164C12.5436 12.1254 13.2753 12.6481 14.4251 12.9617Z" fill="#10255E"/>
<path d="M13.5889 15.4704C13.3799 15.6795 13.3799 16.0976 13.5889 16.3066C13.798 16.5157 14.2161 16.5157 14.4252 16.3066C14.6342 16.0976 14.6342 15.784 14.5297 15.5749C14.2161 15.2613 13.9025 15.2613 13.5889 15.4704Z" fill="#10255E"/>
<path d="M19.756 18.8153C19.9651 18.6062 19.9651 18.1881 19.756 17.9791C19.5469 17.77 19.1288 17.77 18.9198 17.9791C18.7107 18.1881 18.7107 18.5017 18.8152 18.7108C19.1288 19.0244 19.4424 19.0244 19.756 18.8153C19.756 18.9198 19.756 18.8153 19.756 18.8153Z" fill="#10255E"/>
<path d="M6.16707 16.3066C6.37612 16.2021 6.58518 16.0976 6.79424 15.8885C8.67578 14.4251 8.98937 10.453 9.72107 7.83972C7.73501 9.61672 6.06254 11.7073 4.59912 13.9024C5.43536 14.5296 5.95801 15.3659 6.16707 16.3066Z" fill="#10255E"/>
<path d="M21.9512 17.1428C21.9512 17.0383 21.9512 16.9338 21.9512 16.8292C22.0557 16.9338 21.9512 17.0383 21.9512 17.1428Z" fill="#10255E"/>
<path d="M15.8885 8.15333C14.7387 7.31709 13.5888 6.58538 12.439 5.85368L12.3345 5.74915L12.439 5.85368C13.5888 6.58538 14.7387 7.31709 15.8885 8.15333Z" fill="#10255E"/>
<path d="M17.3521 9.3031C17.7702 9.61669 18.0838 9.93028 18.3973 10.1393C18.0838 9.93028 17.7702 9.61669 17.3521 9.3031Z" fill="#10255E"/>
<path d="M6.16707 16.3066C5.95801 15.3658 5.43536 14.5296 4.59912 14.007C5.43536 14.5296 5.95801 15.3658 6.16707 16.3066Z" fill="#10255E"/>
<path d="M21.6378 12.0209V12.1255C21.6378 12.23 21.6378 12.3345 21.7423 12.439C21.7423 12.5436 21.8468 12.7526 21.8468 12.8572C22.0559 14.007 22.0559 15.0523 22.0559 16.2021C22.0559 16.4112 22.0559 16.6202 22.0559 16.8293C22.474 12.9617 21.4287 11.1847 21.4287 11.1847L21.5332 11.6028C21.6378 11.8119 21.6378 11.9164 21.6378 12.0209Z" fill="#10255E"/>
<path d="M28.4321 6.58531C28.4321 5.8536 28.1185 5.22643 27.5958 4.80831C26.446 3.76301 24.2509 3.76301 22.1603 5.01737C22.892 3.76301 23.1011 2.2996 22.7875 0.836182C19.0244 1.77695 15.3659 3.44942 12.23 5.74907L12.3345 5.8536C13.5889 6.58531 14.7387 7.31702 15.784 8.15325C16.3066 8.57137 16.8293 8.88496 17.2474 9.30308C17.6655 9.61667 17.9791 9.93026 18.2927 10.1393H18.3972C18.5018 10.2438 18.6063 10.3484 18.7108 10.3484C18.9199 10.4529 19.1289 10.662 19.4425 10.7665C19.6516 10.871 19.9652 10.9756 20.1742 11.0801C20.5923 11.1846 20.9059 11.2891 21.3241 11.2891C21.3241 11.2891 22.2648 13.0661 21.9512 16.9337C21.9512 17.0383 21.9512 17.1428 21.9512 17.2473C21.9512 17.3519 21.9512 17.4564 21.9512 17.5609C21.9512 17.979 21.8467 18.2926 21.8467 18.7107C21.8467 18.7107 24.8781 14.5296 23.9373 10.9756C26.3415 10.1393 28.4321 8.15325 28.4321 6.58531Z" fill="#10255E"/>
<path d="M21.6378 12.0209V12.1255C21.6378 12.1255 21.6378 12.1255 21.6378 12.0209C21.6378 11.9164 21.5332 11.8119 21.5332 11.6028L21.4287 11.1847L21.5332 11.6028C21.6378 11.8119 21.6378 11.9164 21.6378 12.0209Z" fill="#10255E"/>
<path d="M10.2437 23.2056C10.4527 24.0418 10.6618 24.9826 10.9754 25.8188C11.1844 25.6097 11.498 25.4007 11.7071 25.1916L10.2437 23.2056Z" fill="#10255E"/>
<path d="M12.0209 25.7143L11.6028 25.0872C11.3937 25.2962 11.1847 25.5053 10.8711 25.7143C10.9756 25.9234 10.9756 26.0279 11.0802 26.237C11.4983 26.6551 12.0209 25.7143 12.0209 25.7143Z" fill="#10255E"/>
<path d="M9.1988 35.4355C9.09428 35.331 9.09428 35.2265 8.98975 35.1219C9.09428 35.331 9.09428 35.4355 9.1988 35.6446C9.1988 35.5401 9.1988 35.5401 9.1988 35.4355Z" fill="#10255E"/>
<path d="M9.19861 35.4355C9.19861 35.54 9.19861 35.54 9.19861 35.6446C9.19861 35.4355 9.09408 35.331 8.98955 35.1219C5.12195 36.1672 1.98606 32.9268 0 30.4181C0 31.2543 0.10453 32.1951 0.10453 33.0313C0.209059 34.2857 0.418118 35.54 0.731707 36.6899C1.46341 37.108 2.19512 37.5261 2.92683 38.0488C3.97213 38.6759 5.12195 39.094 6.27178 39.1986C7.4216 39.3031 8.57143 39.3031 9.72125 39.0941L10.0348 38.9895C10.3484 37.8397 10.0348 36.4808 9.19861 35.4355Z" fill="#10255E"/>
<path d="M49.547 45.5749C49.8606 42.9617 48.9198 43.1707 47.979 43.9025C47.77 44.007 47.6655 44.216 47.4564 44.3206C46.4111 45.3659 45.2613 47.1429 44.0069 48.6063C42.7526 50.0697 39.9303 51.8467 39.9303 51.0105C39.9303 50.1742 39.3031 50.5923 40.9756 48.2927C41.3937 47.77 41.7073 47.2474 41.8118 46.6202C42.1254 45.4704 41.2892 44.9477 39.7212 45.993C38.885 46.6202 37.0034 48.9199 34.7038 50.5923C32.4041 52.2648 33.6585 53.9373 33.4494 54.7735L21.9512 58.9547C24.5644 59.6864 27.1777 60 29.8954 60C30.6271 60 31.4634 60 32.1951 59.8955C38.6759 59.3728 44.8432 56.8641 49.6515 52.5784C49.6515 51.9512 49.7561 51.3241 50.0696 50.6969C51.2195 47.9791 49.1289 48.7108 49.547 45.5749Z" fill="#4B6BC4"/>
<path d="M26.6549 49.1289C26.5504 49.9651 27.1776 51.2195 28.1183 50.9059C29.0591 50.5923 31.4633 46.0975 31.4633 46.0975C30.418 46.4111 29.3727 46.5157 28.3274 46.7247C27.5957 47.561 26.7594 48.6062 26.6549 49.1289Z" fill="#10255E"/>
<path d="M36.6901 40.0349L35.7493 40.5575C37.4218 40.3485 39.5124 39.9304 39.9305 39.4077C40.5577 38.5715 39.3033 37.5262 38.4671 37.1081C38.0489 36.899 37.7354 36.7945 37.3172 36.6899C36.5855 37.6307 35.7493 38.7805 35.0176 39.9304C35.9583 40.0349 36.6901 40.0349 36.6901 40.0349Z" fill="#4B6BC4"/>
<path d="M32.7178 43.5889C31.568 43.7979 30.3136 43.7979 29.0593 43.7979C29.2683 42.7527 29.6865 41.8119 30.1046 40.8711C30.3136 40.453 31.2544 40.1394 32.4042 40.0349L34.9129 36.3763C33.345 36.3763 31.7771 36.3763 30.2091 36.5854C28.4321 36.7945 26.6551 37.4216 25.1917 38.4669C24.3554 38.9896 21.8467 40.5575 20.4879 41.3938L7.31712 47.2474L6.68994 49.0244V49.129L7.31712 47.4565C7.31712 48.0837 7.10806 48.7108 7.10806 49.338C8.25789 50.6969 9.40771 51.8467 10.7666 52.9966C14.007 52.5784 18.3973 50.5924 19.7561 49.9652L24.0419 47.0384C25.4007 47.0384 26.8642 46.9338 28.223 46.7248C29.2683 46.6202 30.3136 46.4112 31.3589 46.0976C34.9129 45.1568 33.4495 45.9931 35.4356 44.7387C37.5262 43.4844 34.3903 43.2753 32.7178 43.5889Z" fill="#4B6BC4"/>
<path d="M34.1812 41.2892L35.6446 40.5575L34.4947 40.7666L34.1812 41.2892Z" fill="#2F50A8"/>
<path d="M30.3134 43.1707L30.627 42.7526C29.7908 43.3797 29.0591 43.7979 29.0591 43.7979L30.3134 43.1707Z" fill="#2F50A8"/>
<path d="M35.0173 40.0348L34.4946 40.7665L35.6445 40.5574L36.5852 40.0348C36.6897 40.0348 35.958 40.0348 35.0173 40.0348Z" fill="#2F50A8"/>
<path d="M30.1044 40.871C29.5817 41.8118 29.2681 42.7526 29.0591 43.7979C29.0591 43.7979 29.7908 43.3797 30.627 42.7526L32.404 40.0348C31.3587 40.2438 30.418 40.4529 30.1044 40.871Z" fill="#2F50A8"/>
<path d="M50.5924 32.2996C50.5924 30.7317 49.2335 29.3728 47.561 29.4773C46.2021 29.4773 45.1568 30.4181 44.8432 31.6725C44.8432 31.8815 44.7387 32.0906 44.7387 32.2996C44.7387 32.2996 37.3171 32.6132 36.7945 33.4495C36.5854 33.7631 35.8537 34.9129 34.8084 36.3763L32.4042 40.0348L30.6272 42.7526L30.3136 43.1707L29.8955 43.7979L32.7178 43.5888C32.7178 43.5888 33.345 42.5435 34.1812 41.2892L34.5993 40.662L35.122 39.9303C35.8537 38.7805 36.6899 37.6306 37.4216 36.6899C37.8398 36.0627 38.3624 35.5401 38.8851 35.1219C40.1394 34.4948 45.5749 34.1812 45.5749 34.1812L45.4704 33.9721C45.8885 34.4948 46.4112 34.9129 47.0384 35.1219C47.2474 36.5853 47.6655 40.2439 47.2474 40.7665C47.0384 41.1847 44.1115 44.216 42.0209 46.6202C41.8119 47.2474 41.4983 47.77 41.1847 48.2927C39.5122 50.5923 40.1394 50.1742 40.1394 51.0104C40.1394 51.8467 42.9617 50.0697 44.2161 48.6063C45.4704 47.1428 46.6202 45.3658 47.6655 44.3205C47.7701 44.216 47.9791 44.007 48.1882 43.9024L49.6516 41.2892L48.8154 35.0174C49.7561 34.5993 50.5924 33.554 50.5924 32.2996Z" fill="#10255E"/>
<path d="M19.7559 49.9651L12.8569 54.669L20.174 49.8606L19.7559 49.9651Z" fill="#2F50A8"/>
<path d="M10.7666 52.9965C11.3938 53.6237 12.1255 54.0418 12.8572 54.5644L19.7561 49.8606C18.3973 50.5923 13.9025 52.6829 10.7666 52.9965Z" fill="#2F50A8"/>
<path d="M6.79443 49.0244C6.89896 49.1289 7.00349 49.2335 7.10802 49.338C7.21255 48.7108 7.31708 47.9791 7.42161 47.3519L6.79443 49.0244Z" fill="#2F50A8"/>
</g>
<defs>
<clipPath id="clip0">
<rect width="60" height="60" fill="white"/>
</clipPath>
</defs>
</svg>
