<svg width="60" height="60" viewBox="0 0 60 60" fill="none" xmlns="http://www.w3.org/2000/svg">
<g clip-path="url(#clip0)">
<path d="M42.126 32.3001L46.9344 37.004L56.2375 27.3872C57.3874 27.3872 58.5372 27.8054 59.478 28.5371C59.687 28.6416 59.7915 28.8507 59.8961 28.9552C59.7915 25.6102 59.0598 22.2653 57.91 19.1294C57.2828 20.4883 55.6104 21.1155 54.2515 20.3838C52.8926 19.7566 52.2654 18.0841 52.9971 16.7252C53.3107 16.2026 53.7288 15.6799 54.2515 15.4709L54.4605 15.3663C54.9832 15.1573 55.6104 15.1573 56.133 15.2618C47.9797 0.836719 29.687 -4.28523 15.2619 3.86808C0.836842 12.0214 -4.28511 30.4186 3.8682 44.8437C8.78109 53.5196 17.7706 59.1642 27.701 59.896C28.0145 59.3733 28.4327 58.8507 28.7463 58.328C29.1644 57.5963 29.7915 56.9691 30.5233 56.4465C30.8368 56.1329 31.255 56.0284 31.6731 56.0284C32.5093 55.9238 33.9727 55.9238 35.3316 55.8193C35.6452 55.8193 36.0633 55.8193 36.3769 56.0284L37.4222 59.0597C37.4222 59.1642 37.3177 59.1642 37.3177 59.2688C39.6173 58.6416 41.917 57.8054 44.0076 56.7601C43.0668 53.7287 41.7079 49.6521 40.349 46.5162C37.9449 40.767 39.6173 36.2723 42.126 32.3001Z" fill="#FFEDCC"/>
<path d="M41.3937 6.79443C37.3171 11.6028 38.2578 18.0836 38.3624 19.2335C38.676 21.115 39.1986 22.9965 39.9303 24.7735C46.6202 25.5052 53.3101 25.7143 59.4773 24.0418C57.7003 15.5749 52.4739 8.36237 44.9477 4.07666C43.5888 4.59931 42.3345 5.54007 41.3937 6.79443Z" fill="#10255E"/>
<path d="M14.8431 12.1254C14.3205 12.1254 13.9023 12.5436 13.9023 13.0662C13.9023 15.2613 14.0069 20.9059 14.3205 21.6376C14.6341 22.3693 18.6062 22.3693 20.6968 22.3693C21.2194 22.3693 21.7421 22.0558 21.7421 21.4286V21.324L21.0104 12.3345C20.9058 11.9164 20.3832 11.4983 19.8605 11.6028L14.8431 12.1254Z" fill="#4B6BC4"/>
<path d="M26.3416 17.1428C25.819 17.1428 25.4009 17.5609 25.4009 18.0836C25.4009 20.2787 25.5054 25.9233 25.819 26.655C26.1326 27.3867 30.1047 27.3867 32.1953 27.3867C32.718 27.3867 33.2406 27.0731 33.2406 26.4459V26.3414L32.5089 17.3519C32.4044 16.8292 31.8817 16.4111 31.3591 16.5156L26.3416 17.1428Z" fill="#4B6BC4"/>
<path d="M26.0278 2.8223C25.4007 2.71777 24.878 3.03136 24.6689 3.65854V3.76306C24.6689 6.58536 24.6689 13.5888 25.1916 14.3206C25.7142 15.0523 30.5226 14.216 32.6132 13.7979C33.1358 13.6934 33.554 13.2753 33.554 12.7526C33.2404 10.453 32.4041 4.39024 32.2996 4.07665C32.1951 3.76307 28.1184 3.13589 26.0278 2.8223Z" fill="#4B6BC4"/>
<path d="M17.3519 24.6689C17.0383 25.7142 16.8292 35.7491 17.2473 36.2717C17.5609 36.7944 23.2055 35.0174 23.2055 35.0174L22.9965 24.7735L17.3519 24.6689Z" fill="#4B6BC4"/>
<path d="M8.88525 25.1915L8.98978 33.5539L15.8887 31.6724L14.7389 24.4598L8.88525 25.1915Z" fill="#4B6BC4"/>
<path d="M15.1568 34.1812C15.1568 35.4355 15.0523 43.7979 15.0523 43.7979L10.0349 42.5435L9.51221 34.4947L15.1568 34.1812Z" fill="#4B6BC4"/>
<path d="M19.5469 38.4669L20.3831 47.0383C20.3831 47.0383 28.1183 47.9791 29.6862 46.3066C31.2542 44.7387 29.3727 37.2125 29.3727 37.2125L19.5469 38.4669Z" fill="#4B6BC4"/>
<path d="M19.2336 33.2404C17.9793 33.0313 17.6657 30.4181 15.157 29.8955L12.7528 29.3728C12.7528 29.3728 11.1849 29.3728 12.5438 30.4181C12.3347 31.777 10.7667 30.9407 9.09428 29.8955C7.31727 28.8502 6.48104 29.5819 7.73539 31.2543C8.98975 32.9268 9.30334 34.3902 10.5577 35.1219C11.812 35.8536 13.6936 37.4216 15.9932 37.2125C18.2929 37.0035 19.2336 33.2404 19.2336 33.2404Z" fill="#00CFFF"/>
<path d="M41.4984 37.0035C41.4984 37.0035 34.2858 43.0662 32.8224 43.2752C31.4635 43.4843 15.9932 37.2125 15.9932 37.2125L18.0838 32.5087L29.582 34.1812C29.582 34.1812 32.7179 34.8083 32.1953 34.7038C34.8085 31.5679 38.1534 29.2683 42.021 28.0139L41.4984 37.0035Z" fill="#10255E"/>
<path d="M55.9234 16.8293C55.8189 16.9338 55.8189 17.1429 55.7144 17.2474C55.2963 18.2927 54.6691 19.2335 53.9374 20.0697C53.6238 22.2648 53.3102 24.4599 52.9966 26.6551L46.3067 35.6446C45.9931 32.7178 45.6795 29.6864 45.366 26.7596C44.8433 22.3693 45.6795 24.669 45.7841 23.7282C45.1569 23.7282 44.4252 23.5192 43.9025 23.2056C40.4531 21.4286 39.1987 14.9477 41.1848 10.453C41.2893 10.2439 41.3938 10.0348 41.4984 9.82578C43.2754 10.0348 44.9478 9.30314 45.9931 7.83972C46.2022 8.36237 46.6203 8.78049 47.143 9.09408C48.0837 9.40767 48.92 9.5122 49.7562 9.19861C50.0698 10.9756 51.7423 12.1254 53.5193 12.0209C52.2649 13.3798 52.3694 15.2613 53.3102 16.3066C54.3555 17.2474 55.8189 16.8293 55.9234 16.8293Z" fill="#00CFFF"/>
<path d="M46.2021 7.42163C46.2021 8.15334 46.0976 8.98958 45.993 9.72128C45.8885 10.3485 45.0523 12.8572 45.0523 13.0662C45.0523 13.2753 44.3206 15.4704 43.9024 16.6202C43.4843 17.7701 45.3659 17.561 45.3659 17.561C45.3659 17.561 46.2021 22.5784 47.77 23.6237C45.1568 23.9373 42.6481 24.1464 40.7666 18.6063C38.885 13.0662 41.6028 9.93034 41.6028 9.93034C41.6028 9.93034 43.3798 9.82581 46.2021 7.42163Z" fill="#00B2DB"/>
<path d="M45.5747 21.4286C45.0521 21.4286 44.5294 21.2195 44.1113 20.8014V20.6969V20.5924L47.2472 19.0244H47.3517C47.3517 19.0244 47.3517 19.0244 47.3517 19.1289C47.4563 20.0697 46.9336 21.0105 45.9929 21.3241C45.9929 21.3241 45.7838 21.4286 45.5747 21.4286Z" fill="#10255E"/>
<path d="M50.6009 12.0706C50.6307 11.8417 50.0516 11.5775 49.3074 11.4807C48.5632 11.3839 47.9358 11.4911 47.906 11.72C47.8762 11.949 48.4553 12.2131 49.1995 12.3099C49.9437 12.4068 50.5711 12.2996 50.6009 12.0706Z" fill="#10255E"/>
<path d="M42.1522 12.7471C42.8619 12.5031 43.3764 12.1283 43.3013 11.9099C43.2263 11.6916 42.5901 11.7123 41.8803 11.9563C41.1706 12.2003 40.6561 12.5751 40.7311 12.7935C40.8062 13.0119 41.4424 12.9911 42.1522 12.7471Z" fill="#10255E"/>
<path d="M54.4598 15.3658L54.2508 15.4703C53.6236 15.7839 53.2055 16.3066 52.9964 16.8292C52.4738 18.1881 53.1009 19.8606 54.4598 20.3832C55.8187 20.9059 57.2821 20.3832 57.9093 19.0243C57.3866 17.6655 56.7595 16.4111 56.1323 15.1567C55.6096 15.1567 54.9825 15.1567 54.4598 15.3658Z" fill="#00CFFF"/>
<path d="M54.6688 21.4285C55.2461 21.4285 55.7141 20.9605 55.7141 20.3832C55.7141 19.8059 55.2461 19.3379 54.6688 19.3379C54.0915 19.3379 53.6235 19.8059 53.6235 20.3832C53.6235 20.9605 54.0915 21.4285 54.6688 21.4285Z" fill="#10255E"/>
<path d="M48.2926 14.4251C48.5236 14.4251 48.7108 14.2379 48.7108 14.007C48.7108 13.7761 48.5236 13.5889 48.2926 13.5889C48.0617 13.5889 47.8745 13.7761 47.8745 14.007C47.8745 14.2379 48.0617 14.4251 48.2926 14.4251Z" fill="#10255E"/>
<path d="M41.4982 14.1115C41.7291 14.1115 41.9163 13.9243 41.9163 13.6934C41.9163 13.4625 41.7291 13.2753 41.4982 13.2753C41.2673 13.2753 41.0801 13.4625 41.0801 13.6934C41.0801 13.9243 41.2673 14.1115 41.4982 14.1115Z" fill="#10255E"/>
<path d="M49.756 37.2126C55.087 37.2126 54.6689 40.5575 58.1184 37.0035C57.4912 36.2718 60.8361 29.6864 59.7908 29.1638C57.7002 27.9094 59.1636 27.8049 53.8326 26.7596L53.1009 26.5505L46.411 35.5401C46.0975 32.6133 45.7839 29.5819 45.4703 26.6551C43.5887 27.0732 41.8117 27.8049 40.1393 28.6411C38.3623 28.9547 35.6445 32.9268 34.3901 33.554C37.7351 37.9443 43.9023 37.2126 49.756 37.2126Z" fill="#10255E"/>
<path d="M47.2473 23.2055C48.188 24.2508 50.9058 23.31 50.9058 23.31C50.9058 23.31 49.8605 28.641 45.7838 30.9407C45.5748 28.8501 45.3657 26.655 45.3657 26.655L45.7838 23.6236C45.8884 23.5191 46.3065 22.1602 47.2473 23.2055Z" fill="#00B2DB"/>
<path d="M56.4462 16.202L54.1466 17.2473C54.1466 17.2473 54.9828 17.8745 54.5647 18.5017C54.1466 19.1289 53.9375 19.0243 53.9375 19.0243C53.9375 19.0243 56.0281 18.7107 56.4462 16.202Z" fill="#00B2DB"/>
<path d="M60.0003 30C60.0003 29.5819 60.0003 29.2683 60.0003 28.8502C59.8957 28.6411 59.6867 28.5366 59.5821 28.4321C58.6414 27.7003 57.4916 27.3868 56.3417 27.2822L47.0386 36.8989L42.2302 32.1951C39.617 36.1672 38.049 40.662 40.3487 46.2021C41.7076 49.338 43.0665 53.4146 44.0072 56.446C53.833 51.4286 60.0003 41.1847 60.0003 30Z" fill="#DB8F00"/>
<path d="M43.3797 27.3867C43.3797 27.3867 43.9023 34.0766 44.634 35.331C45.3658 36.5853 41.1846 35.0174 41.1846 35.0174L41.7072 27.8048L43.3797 27.3867Z" fill="#DB8F00"/>
<path d="M14.007 47.6654L9.09409 48.1881C8.57144 48.1881 8.15332 48.6062 8.15332 49.1288C8.15332 49.4424 8.15332 49.9651 8.15332 50.4877C10.3484 52.8919 13.0662 54.878 15.8885 56.4459L15.2613 48.5017C15.0523 47.979 14.5296 47.5609 14.007 47.6654Z" fill="#4B6BC4"/>
<path d="M5.85366 25.5052L0.313589 26.3415C0.10453 27.5958 0 28.8502 0 30C0 30.6272 0 31.1498 0 31.6725L5.95819 30.8363L5.85366 25.5052Z" fill="#4B6BC4"/>
<path d="M0.313477 34.7038C1.04518 39.0941 2.71766 43.2753 5.22637 46.9338L4.91278 33.7631L0.313477 34.7038Z" fill="#4B6BC4"/>
<path d="M7.73542 22.4738C8.25807 22.3693 8.67619 21.9512 8.67619 21.4285C8.3626 19.1289 7.52636 13.0662 7.42183 12.7526C7.00371 12.5435 6.48106 12.3345 5.85389 12.3345C3.4497 15.5749 1.6727 19.338 0.731934 23.3101C2.19535 23.4146 5.95842 22.7874 7.73542 22.4738Z" fill="#4B6BC4"/>
<path d="M20.9058 50.3832C20.2786 50.2787 19.7559 50.5923 19.5469 51.2194V51.324C19.5469 52.8919 19.5469 55.8187 19.6514 58.2229C22.4737 59.2682 25.4005 59.7909 28.4319 59.9999C28.1183 57.5958 27.2821 51.8466 27.1775 51.533C27.073 51.1149 23.1009 50.5923 20.9058 50.3832Z" fill="#4B6BC4"/>
<path d="M36.3762 56.0278C36.0626 55.9233 35.749 55.8187 35.3309 55.8187C33.972 55.9233 32.5086 56.0278 31.6723 56.0278C31.2542 56.0278 30.8361 56.2368 30.5225 56.4459C29.7908 56.9686 29.2681 57.5957 28.7455 58.3274C28.4319 58.8501 28.0138 59.3727 27.7002 59.8954C28.4319 59.9999 29.2681 59.9999 29.9998 59.9999C32.404 59.9999 34.9127 59.6863 37.2124 59.1637C37.2124 59.0591 37.3169 59.0591 37.3169 58.9546L36.3762 56.0278Z" fill="#00CFFF"/>
<path d="M56.2371 31.1498C54.7737 32.7178 52.7876 39.8258 53.9374 47.0383C40.5576 52.1603 36.3765 55.7143 36.3765 55.7143L36.481 55.9234L37.5263 58.9547V59.0593C50.488 55.7143 59.6866 44.216 60.1047 30.8363C59.0594 29.6864 57.805 29.4774 56.2371 31.1498Z" fill="#10255E"/>
</g>
<defs>
<clipPath id="clip0">
<rect width="60" height="60" fill="white"/>
</clipPath>
</defs>
</svg>
