<svg width="60" height="60" viewBox="0 0 60 60" fill="none" xmlns="http://www.w3.org/2000/svg">
<g clip-path="url(#clip0)">
<path d="M39.6165 11.0802V9.30318C38.8848 9.4077 38.1531 9.40771 37.4214 9.40771C35.8535 9.30318 34.4946 9.19865 33.2402 9.09412V10.9756L39.6165 11.0802Z" fill="#FFEDCC"/>
<path d="M31.1497 56.1323C29.9998 56.1323 28.85 55.9233 27.7002 55.4006C28.3274 57.2822 29.2681 58.432 30.5225 58.641C32.7176 59.0592 35.6444 56.5505 37.8396 54.0417C37.526 54.2508 37.3169 54.3553 37.0033 54.4599C35.2263 55.5052 33.2403 56.1323 31.1497 56.1323Z" fill="#FFEDCC"/>
<path d="M28.7456 51.0104C27.9094 51.5331 27.3868 52.3693 27.2822 53.2056C27.2822 53.4146 27.3868 53.7282 27.4913 53.9373L39.1986 50.6969C36.1672 50.0697 31.2544 49.338 28.7456 51.0104Z" fill="#FFEDCC"/>
<path d="M53.7284 28.3276C55.5054 28.3276 57.8051 28.014 60.0002 28.5366C59.8957 26.6551 59.6866 24.8781 59.2685 23.1011L49.8608 28.1185C51.1152 28.223 52.4741 28.3276 53.7284 28.3276Z" fill="#FFEDCC"/>
<path d="M28.014 49.9652C29.8956 48.7108 32.7179 48.6063 35.2266 48.8154C32.4043 47.9791 29.4775 47.561 28.014 48.7108C27.3869 49.2335 27.0733 49.9652 26.9688 50.6969C27.3869 50.4878 27.7005 50.1742 28.014 49.9652Z" fill="#FFEDCC"/>
<path d="M38.6757 52.0558L29.2681 54.669C32.8221 55.6098 36.4806 53.6237 38.6757 52.0558Z" fill="#FFEDCC"/>
<path d="M41.498 51.324L52.3691 49.9651C52.5782 49.756 52.7872 49.4425 52.9963 49.2334C49.2332 49.8606 45.0521 50.5923 41.6026 51.2195L41.498 51.324Z" fill="#FFEDCC"/>
<path d="M41.1846 11.0801H43.5888C43.5888 11.0801 44.9476 12.7526 44.2159 13.5888C44.0069 13.6934 43.7978 13.7979 43.5888 13.7979L46.0975 17.0383L54.0417 11.8118C52.2647 9.72123 50.1741 7.63064 47.8745 5.85364C45.8884 7.42158 43.5888 8.46688 41.1846 9.09406V11.0801Z" fill="#FFEDCC"/>
<path d="M10.9756 30.523L19.547 22.6833L24.878 21.638L28.6411 13.4847C28.0139 12.753 28.0139 11.6032 28.6411 10.8715L31.777 10.976V8.8854C27.8049 8.36275 25.0871 7.21293 22.7875 4.07704L44.9477 3.97251C30.6272 -4.28533 12.23 0.73209 3.97213 15.0526C1.35888 19.652 0 24.7739 0 30.0004C0 31.0457 0.10453 32.1955 0.209059 33.2408L10.662 31.1502C10.7665 31.0457 10.7665 30.7321 10.9756 30.523Z" fill="#FFEDCC"/>
<path d="M40.5576 52.6829C38.5716 55.1916 34.4949 59.8955 30.9409 59.8955C30.7319 59.8955 30.5228 59.8955 30.3137 59.7909C28.4322 59.4774 27.1779 57.8049 26.3416 54.8781C26.3416 54.7735 26.3416 54.7735 26.2371 54.669L25.819 54.4599L26.1326 54.3554C26.028 54.0418 26.028 53.8328 25.9235 53.6237H25.819C25.819 53.5192 25.819 53.4146 25.819 53.3101C25.4009 50.8014 25.819 49.0244 27.1779 47.9791C30.8364 45.0523 39.8259 49.4425 41.1848 50.1742C42.7528 49.8606 48.5019 48.9199 53.9374 47.9791C54.7737 46.8293 55.6099 45.5749 56.2371 44.3206L55.6099 44.216C51.8468 43.6934 42.0211 42.9617 34.4949 44.216C29.1639 45.1568 14.4252 47.4564 6.37646 48.7108C16.7249 61.5679 35.5402 63.8676 48.5019 53.6237C49.3381 52.892 50.2789 52.1603 51.0106 51.4286L40.5576 52.6829Z" fill="#FFEDCC"/>
<path d="M55.8187 44.1114L56.4459 44.216C58.8501 39.8257 59.9999 34.9128 59.9999 29.9999C59.9999 29.4773 59.9999 28.9546 59.9999 28.5365C57.9093 27.9093 55.6097 28.3275 53.7281 28.3275C52.3693 28.3275 51.1149 28.2229 49.756 28.1184L49.547 28.2229C50.2787 28.3275 51.0104 28.432 51.7421 28.5365C58.5365 29.5818 55.9233 30.9407 59.0592 33.3449C59.0592 33.3449 56.5504 35.0174 47.4564 35.7491C38.3623 36.4808 42.5435 37.0034 31.2543 36.0627C25.2961 35.54 22.9964 34.7038 22.1602 33.4494C18.7107 34.4947 11.9163 36.2717 10.9755 34.8083C10.3484 33.763 10.2438 32.4041 10.6619 31.2543L0.208984 33.3449C0.836162 38.885 3.03128 44.216 6.48076 48.6062C14.5295 47.3519 29.2682 45.0522 34.5992 44.1114C42.2299 42.8571 51.9511 43.6933 55.8187 44.1114Z" fill="#FFA600"/>
<path d="M40.6619 20.6968L46.0974 17.1428L43.5887 13.9024C40.6619 14.425 28.9546 13.9024 28.9546 13.9024C28.8501 13.7978 28.7455 13.6933 28.641 13.4843L24.8779 21.6376L30.6271 20.4877L40.6619 20.6968Z" fill="#2F50A8"/>
<path d="M45.9929 33.345C44.9476 35.6446 37.9441 35.122 33.6584 34.8084C29.3727 34.5993 24.3552 32.8223 24.3552 32.8223C24.3552 32.8223 23.519 33.1359 22.2646 33.4495C23.1009 34.7039 25.4005 35.5401 31.3587 36.0627C42.7525 37.0035 38.5713 36.5854 47.5608 35.7492C56.5504 34.9129 59.1636 33.345 59.1636 33.345C56.0277 31.0453 58.6409 29.5819 51.8465 28.5366C51.1148 28.4321 50.3831 28.3276 49.6514 28.223L47.5608 29.3728C47.0382 30.6272 46.5155 31.9861 45.9929 33.345Z" fill="#DB8F00"/>
<path d="M54.0418 12.0209L46.0975 17.2474L40.662 20.8014L30.6272 20.5923L24.878 21.7421L19.547 22.7874L10.9756 30.6271C10.8711 30.8362 10.7665 31.1498 10.662 31.3589C10.2439 32.5087 10.3484 33.8676 10.9756 34.9129C11.9164 36.3763 18.6063 34.5993 22.1603 33.554C23.4146 33.1359 24.2509 32.9268 24.2509 32.9268C24.2509 32.9268 29.2683 34.7038 33.554 34.9129C37.9442 35.1219 44.9477 35.54 45.993 33.3449C46.6202 32.0906 47.0383 30.7317 47.4564 29.3728L49.547 28.3275L49.7561 28.223L59.1637 23.2055C58.223 19.0244 56.446 15.2613 54.0418 12.0209ZM11.2892 31.1498L19.4425 25.6097L21.7421 25.9233L11.6028 31.1498L10.662 31.5679L11.2892 31.1498ZM21.7421 29.4773L10.662 34.1812L10.5575 33.8676L19.1289 29.5819L20.5923 28.8501L21.5331 29.0592H21.6376V29.1637L22.1603 29.2683L21.7421 29.4773Z" fill="#4B6BC4"/>
<path d="M21.742 25.8188L19.5469 25.6097L11.2891 31.1498L11.6027 31.0453L21.742 25.8188Z" fill="#2F50A8"/>
<path d="M11.6029 31.0453L11.2893 31.1498L10.6621 31.5679L11.6029 31.0453Z" fill="#2F50A8"/>
<path d="M20.6968 28.8501L19.2334 29.5818L21.6376 29.1637L20.6968 28.8501Z" fill="#2F50A8"/>
<path d="M10.6621 34.1811L21.7422 29.4773V29.1637H21.6377L19.2335 29.6863L10.6621 33.9721V34.1811Z" fill="#2F50A8"/>
<path d="M22.2648 29.2682L21.7422 29.1637V29.4773L22.2648 29.2682Z" fill="#2F50A8"/>
<path d="M41.3936 51.324H41.4981L41.6026 51.2195H41.4981L41.3936 51.324Z" fill="#2F50A8"/>
<path d="M25.8188 54.4599L26.237 54.6689C26.237 54.5644 26.1324 54.4599 26.1324 54.3553L25.8188 54.4599Z" fill="#FFEDCC"/>
<path d="M25.9233 53.5192C26.0279 53.4146 26.0279 53.3101 25.9233 53.2056C26.0279 53.3101 25.9233 53.4146 25.9233 53.5192Z" fill="#2F50A8"/>
<path d="M41.6029 51.2195C45.0524 50.5923 49.2336 49.8606 52.9966 49.2334C53.4147 48.8153 53.7283 48.2926 54.1465 47.8745C48.7109 48.8153 42.9618 49.7561 41.3938 50.0696C39.9304 49.3379 30.9409 44.9477 27.3869 47.8745C26.1325 48.9198 25.6099 50.6968 26.028 53.2055C26.028 53.3101 26.028 53.4146 26.028 53.5191C26.028 53.7282 26.1325 54.0418 26.237 54.2508C26.237 54.3554 26.3416 54.4599 26.3416 54.5644C26.3416 54.6689 26.3416 54.669 26.4461 54.7735C27.2823 57.7003 28.5367 59.3728 30.4182 59.6864C30.6273 59.6864 30.8364 59.7909 31.0454 59.7909C34.4949 59.7909 38.6761 55.0871 40.6621 52.5784V52.6829L51.1151 51.4285C51.5332 51.0104 51.9513 50.4878 52.3694 50.0696L41.4984 51.4285H41.3938L41.6029 51.2195ZM28.1186 48.8153C29.582 47.6655 32.5088 48.0836 35.3311 48.9198C32.7179 48.7108 30.0001 48.8153 28.1186 50.0696C27.805 50.2787 27.3869 50.5923 27.1778 50.9059C27.1778 50.0696 27.4914 49.3379 28.1186 48.8153ZM30.5228 58.6411C29.3729 58.432 28.4322 57.3867 27.7005 55.4007C28.7458 55.9233 29.8956 56.1324 31.1499 56.1324C33.2405 56.0278 35.2266 55.5052 37.0036 54.4599C37.3172 54.3554 37.6308 54.1463 37.8398 54.0418C35.6447 56.5505 32.7179 58.9547 30.5228 58.6411ZM29.2684 54.6689L38.6761 52.0557C36.4809 53.6237 32.8224 55.6097 29.2684 54.6689ZM27.3869 54.0418C27.2823 53.7282 27.2823 53.5191 27.1778 53.3101C27.3869 52.3693 27.9095 51.5331 28.6412 51.1149C31.1499 49.4425 36.1674 50.1742 38.9897 50.8014L27.3869 54.0418Z" fill="#2F50A8"/>
<path d="M33.2403 9.09407C32.7176 8.98954 32.195 8.98954 31.7769 8.88501V10.9756H33.2403V9.09407Z" fill="#2F50A8"/>
<path d="M41.1846 11.0802V9.09412C40.662 9.19865 40.1393 9.30318 39.7212 9.30318V11.0802H41.1846Z" fill="#2F50A8"/>
<path d="M44.9479 3.97217L22.7876 4.0767C25.0872 7.21259 27.7005 8.25788 31.7771 8.88506C32.2998 8.98959 32.7179 8.98959 33.2406 9.09412C34.4949 9.19865 35.8538 9.30318 37.4217 9.40771C38.1535 9.40771 38.8852 9.40771 39.7214 9.40771C40.244 9.40771 40.7667 9.30318 41.1848 9.19865C43.589 8.676 45.8886 7.52617 47.8747 5.95823C46.9339 5.22652 45.9932 4.59935 44.9479 3.97217Z" fill="#8F59FF"/>
<path d="M43.589 11.1847H41.1848H39.7214V11.0802L33.3451 10.9756V11.1847H31.7772V10.9756L28.6413 10.8711C28.0141 11.6028 28.0141 12.7526 28.6413 13.4843C28.7458 13.5889 28.8503 13.7979 28.9549 13.9025C28.9549 13.9025 40.6622 14.4251 43.589 13.9025C43.7981 13.9025 44.0071 13.7979 44.2162 13.6934C44.9479 12.7526 43.589 11.1847 43.589 11.1847Z" fill="#8F59FF"/>
<path d="M33.2403 11.1846V10.9756H31.6724V11.1846H33.2403Z" fill="#8F59FF"/>
<path d="M39.6167 11.1846H41.1846V11.0801H39.6167V11.1846Z" fill="#8F59FF"/>
</g>
<defs>
<clipPath id="clip0">
<rect width="60" height="60" fill="white"/>
</clipPath>
</defs>
</svg>
