<svg width="60" height="60" viewBox="0 0 60 60" fill="none" xmlns="http://www.w3.org/2000/svg">
<g clip-path="url(#clip0)">
<path d="M12.3355 42.7526C10.0358 39.8258 9.19961 29.0593 9.93132 28.9547C7.42261 26.0279 9.19961 22.7875 11.0811 19.5471C13.2763 15.6795 17.6665 15.2613 18.0846 15.1568C18.0846 13.2753 18.8163 11.4983 20.0707 10.1394C22.3703 7.94427 26.1334 7.52615 29.4784 9.40768C29.6874 9.0941 30.001 8.88504 30.3146 8.67598C30.7327 8.25786 31.1508 7.83974 31.6735 7.52615C32.9278 6.89897 34.3912 6.68991 35.7501 7.0035C37.7362 7.42162 39.6177 8.36239 40.9766 9.93033C42.1264 11.3937 42.7536 13.1707 42.7536 15.0523C42.7536 15.0523 49.339 11.4983 51.9522 19.6516C54.5655 27.8049 52.4749 30 52.4749 30C52.4749 30 55.9243 37.8397 54.5655 40.0349C53.6247 41.6028 52.4749 43.0662 51.2205 44.4251C50.5933 43.7979 49.9662 43.2753 49.339 42.7526C50.0707 43.3798 51.2205 45.0523 52.6839 49.6516C63.6595 37.2126 62.4052 18.2927 49.9662 7.31709C37.5271 -3.65852 18.6073 -2.40416 7.63167 10.0349C-3.34394 22.4739 -2.08959 41.3937 10.3494 52.3694C10.454 52.4739 10.5585 52.4739 10.5585 52.5784L13.6944 44.007C13.0672 43.6934 12.7536 43.1707 12.3355 42.7526Z" fill="#DFD4FF"/>
<path d="M48.92 42.6481L49.1291 42.7526L48.6064 42.3345L48.92 42.6481Z" fill="#DFD4FF"/>
<path d="M18.7109 40.662L19.5472 40.453V40.2439C19.3381 40.3484 19.0245 40.5575 18.7109 40.662Z" fill="#FF0060"/>
<path d="M40.6621 47.1428C40.8712 44.3205 41.0802 42.1254 41.1847 40.662C40.9757 42.5435 40.8712 44.7386 40.6621 47.1428Z" fill="#4E1ABA"/>
<path d="M43.7979 39.6167C45.4703 40.3484 47.1428 41.2892 48.6062 42.439C47.1428 41.1846 45.5749 40.2439 43.7979 39.6167Z" fill="#4B6BC4"/>
<path d="M26.7598 15.1568C27.3869 14.5296 27.8051 13.7979 28.1187 12.9617C27.8051 13.6934 27.2824 14.4251 26.7598 15.1568Z" fill="#FF458B"/>
<path d="M24.5645 35.3311C24.0419 35.0175 23.5192 34.7039 22.9966 34.2858C23.4147 34.7039 24.0419 35.0175 24.5645 35.3311Z" fill="#FF458B"/>
<path d="M25.2964 16.6203C25.819 16.2022 26.3417 15.6795 26.8643 15.1569C26.4462 15.575 26.0281 15.9931 25.5054 16.4112L25.2964 16.6203Z" fill="#D60051"/>
<path d="M24.9823 16.6203C23.4143 17.561 21.7418 18.1882 19.9648 18.5018C21.8464 18.3973 23.7279 17.6656 25.1913 16.5157L24.9823 16.6203Z" fill="#D60051"/>
<path d="M25.0871 35.54C24.878 35.4355 24.669 35.331 24.5645 35.2264L25.0871 35.54Z" fill="#D60051"/>
<path d="M19.1289 22.9965C19.1289 22.6829 19.2334 22.0557 19.338 21.324C19.4425 20.8014 19.547 20.2787 19.6516 19.8606C19.7561 19.4425 19.8606 19.0244 20.0697 18.5017C20.0697 18.5017 18.6062 21.324 19.338 26.1324C19.338 26.2369 19.338 26.2369 19.338 26.3414C19.1289 25.1916 19.0244 24.1463 19.1289 22.9965Z" fill="#D60051"/>
<path d="M19.4424 27.1777C19.6514 28.6411 20.0696 30.1046 20.5922 31.4634C20.5922 31.3589 20.6967 31.3589 20.6967 31.2544C20.0696 30 19.6514 28.6411 19.4424 27.1777Z" fill="#D60051"/>
<path d="M22.0557 33.4495H21.9512C22.2648 33.7631 22.5784 34.0766 22.8919 34.2857C22.6829 33.9721 22.3693 33.7631 22.0557 33.4495Z" fill="#D60051"/>
<path d="M23.9371 33.6585C23.8326 33.4495 23.8326 33.2404 23.7281 33.0314C23.4145 31.4634 23.31 29.8955 23.31 28.223C23.31 28.1185 23.31 28.0139 23.31 27.9094C23.31 27.7003 23.31 27.4913 23.31 27.4913L21.742 26.0279C21.742 26.0279 23.4145 24.0418 24.7734 22.6829C25.087 21.6376 27.7002 14.216 28.1183 12.9617C27.8047 13.7979 27.2821 14.5296 26.7594 15.1568C26.3413 15.6794 25.8187 16.2021 25.1915 16.6202C23.6236 17.77 21.8466 18.3972 19.965 18.6063C19.756 19.0244 19.6514 19.547 19.5469 19.9652C19.4424 20.4878 19.3378 21.0105 19.2333 21.4286C19.1288 22.1603 19.1288 22.6829 19.0243 23.101C18.9197 24.2509 19.0243 25.2962 19.1288 26.446C19.1288 26.7596 19.2333 27.0732 19.2333 27.3868C19.4424 28.8502 19.965 30.2091 20.4877 31.4634C20.9058 32.1951 21.3239 32.9268 21.8466 33.554C22.1601 33.8676 22.3692 34.1812 22.6828 34.3902C23.2054 34.8084 23.7281 35.1219 24.2507 35.4355C24.3553 35.5401 24.5643 35.5401 24.6689 35.6446C24.4598 35.4355 24.2507 35.2265 24.1462 35.0174C24.2507 34.4948 24.1462 34.0767 23.9371 33.6585ZM20.3831 19.8606C20.3831 19.547 21.0103 19.2334 21.9511 19.1289C22.8918 18.9199 23.6236 19.1289 23.6236 19.338C23.6236 19.6516 22.9964 19.9652 22.0556 20.0697C21.1148 20.2787 20.3831 20.0697 20.3831 19.8606ZM22.1601 22.1603C22.4737 22.1603 22.7873 22.3693 22.7873 22.6829C22.7873 22.9965 22.5783 23.3101 22.2647 23.3101C21.9511 23.3101 21.6375 23.101 21.6375 22.7875C21.6375 22.4739 21.8466 22.1603 22.1601 22.1603Z" fill="#D60051"/>
<path d="M28.9548 20.9059C29.2683 21.0104 29.5819 21.0104 29.8955 21.115C30 21.115 30.2091 21.115 30.3136 21.115C30.4182 21.115 30.5227 21.115 30.6272 21.0104C30.6272 21.0104 30.6272 20.9059 30.7318 20.9059C30.8363 20.5923 30.1046 20.2787 29.2683 19.9651C28.4321 19.7561 27.5959 19.7561 27.4913 19.9651C27.3868 20.1742 28.014 20.5923 28.9548 20.9059Z" fill="#4B6BC4"/>
<path d="M23.6237 19.338C23.6237 19.0244 22.7875 18.9198 21.9512 19.1289C21.0105 19.2334 20.3833 19.6516 20.3833 19.8606C20.3833 20.1742 21.2195 20.2787 22.0558 20.0697C22.9965 19.9651 23.6237 19.547 23.6237 19.338Z" fill="#4B6BC4"/>
<path d="M36.2718 30.2091C36.1672 30.1046 36.1672 30 36.1672 29.8955C36.1672 29.791 36.1672 29.791 36.1672 29.6864C36.0627 29.6864 35.9582 29.6864 35.7491 29.6864C35.1219 29.6864 34.4948 29.4774 33.9721 29.1638C32.4042 28.223 31.8815 26.1324 32.7178 24.5645C32.9268 24.1464 33.2404 23.8328 33.6585 23.5192C32.2996 22.1603 31.0453 20.5924 30.209 18.8154C29.1638 16.9338 28.5366 14.9478 28.223 12.8572C27.8049 14.1115 25.1916 21.5331 24.878 22.5784C23.6237 24.0418 21.8467 26.0279 21.8467 26.0279L23.4146 27.4913C23.4146 27.4913 23.4146 27.5959 23.4146 27.9094C23.4146 28.014 23.4146 28.1185 23.4146 28.223C23.3101 29.791 23.4146 31.4634 23.8327 32.9269C23.9373 33.1359 23.9373 33.345 24.0418 33.554C24.1463 33.9722 24.3554 34.2857 24.5644 34.7039C24.669 34.9129 24.878 35.2265 25.0871 35.331C25.1916 35.4356 25.4007 35.4356 25.5052 35.4356C25.6097 35.4356 25.7143 35.4356 25.7143 35.5401H25.8188C28.9547 36.1673 31.4634 33.7631 31.4634 33.7631C31.3589 35.331 30.9408 36.899 30.3136 38.3624C29.4773 40.2439 28.223 41.9164 26.5505 43.0662V42.9617L27.1777 51.115H27.3867L35.5401 38.2579C35.5401 38.1533 35.6446 38.1533 35.7491 38.2579L35.8536 38.1533L36.1672 37.7352V37.6307C36.2718 36.3763 36.2718 35.2265 36.2718 33.9722C35.7491 34.0767 35.1219 34.0767 34.5993 33.9722C34.5993 33.8676 35.8536 31.4634 36.2718 30.2091C36.3763 30.2091 36.3763 30.2091 36.2718 30.2091ZM29.1638 19.9652C30 20.1742 30.7317 20.5924 30.6272 20.906C30.6272 20.906 30.6272 21.0105 30.5226 21.0105C30.4181 21.115 30.3136 21.115 30.209 21.115C30.1045 21.115 29.8955 21.115 29.7909 21.115C29.4773 21.115 29.1638 21.0105 28.8502 20.906C28.0139 20.6969 27.2822 20.2788 27.3867 19.9652C27.4913 19.6516 28.3275 19.6516 29.1638 19.9652ZM28.0139 22.5784C28.3275 22.5784 28.6411 22.7875 28.6411 23.1011C28.6411 23.4147 28.432 23.7283 28.1185 23.7283C27.8049 23.7283 27.4913 23.5192 27.4913 23.2056C27.3867 22.892 27.5958 22.5784 28.0139 22.5784ZM24.4599 30.1046C24.5644 30 24.669 30 24.7735 29.8955L24.9826 29.791L25.8188 29.4774L26.1324 29.3729L26.9686 29.0593L27.7003 28.8502C26.7596 30.3136 26.8641 30.3136 24.4599 30.1046ZM27.8049 33.0314C26.446 33.2404 25.2962 32.9269 25.1916 32.4042C25.0871 31.777 26.1324 31.2544 27.4913 30.9408C28.6411 30.7317 29.6864 30.9408 30 31.3589C30 31.4634 30.1045 31.4634 30.1045 31.568C30.1045 32.0906 29.0592 32.7178 27.8049 33.0314Z" fill="#FF458B"/>
<path d="M38.3622 23.9374C38.9894 24.5645 39.303 25.4008 39.303 26.237C39.303 27.5959 38.5713 28.7457 37.3169 29.2684C37.4215 29.3729 37.4215 29.4774 37.4215 29.582C37.4215 29.791 37.4215 30.0001 37.2124 30.2091C37.2124 30.3137 37.3169 30.3137 37.3169 30.4182C39.1985 30.6273 40.8709 29.2684 41.08 27.3868C41.2891 25.7144 40.2438 24.2509 38.6758 23.7283C38.6758 23.6238 38.6758 23.5192 38.7803 23.3102C38.6758 23.6238 38.4668 23.7283 38.3622 23.9374Z" fill="#FF458B"/>
<path d="M19.5469 33.554L21.9511 33.4494C21.4284 32.9268 20.9058 32.1951 20.5922 31.4634C20.1741 32.2996 19.5469 33.554 19.5469 33.554Z" fill="#8F59FF"/>
<path d="M20.6968 31.2544C20.6968 31.3589 20.5923 31.3589 20.5923 31.4635C20.9059 32.1952 21.4285 32.8223 21.9512 33.4495H22.0557C21.5331 32.8223 21.1149 32.0906 20.6968 31.2544Z" fill="#8F59FF"/>
<path d="M36.272 30.2091L36.3772 30.3136V30.2091H36.272Z" fill="#8F59FF"/>
<path d="M37.4214 29.6864C37.4214 29.5819 37.3169 29.4773 37.3169 29.3728C37.0033 29.5819 36.5852 29.6864 36.2716 29.6864C36.2716 29.7909 36.2716 29.7909 36.2716 29.8955C36.2716 30 36.3761 30.1045 36.3761 30.209H36.4807V30.3136C35.8535 31.5679 34.7037 33.9721 34.5991 34.0766C35.1218 34.0766 35.7489 34.0766 36.2716 34.0766C37.6305 33.9721 39.3029 33.8676 39.3029 33.8676C39.3029 33.8676 38.0486 31.777 37.3169 30.5226C37.3169 30.4181 37.2124 30.4181 37.2124 30.3136C37.4214 30.1045 37.4214 29.8955 37.4214 29.6864Z" fill="#8F59FF"/>
<path d="M41.2898 39.6168C41.2898 39.8259 41.2898 40.0349 41.1846 40.244C41.1846 40.3485 41.1846 40.453 41.1846 40.6621C41.2898 39.9304 41.2898 39.3032 41.2898 38.676C41.2898 38.7806 41.2898 38.8851 41.2898 39.0941C41.2898 39.3032 41.2898 39.4077 41.2898 39.6168Z" fill="#FF0060"/>
<path d="M19.7563 42.6481C19.7563 42.8571 19.7563 43.0662 19.7563 43.2753C19.8609 44.4251 19.9654 45.8885 20.1745 47.4564C20.0699 45.5749 19.8609 44.007 19.7563 42.6481Z" fill="#FF0060"/>
<path d="M26.0279 39.0941V39.1986C26.1325 40.453 26.237 41.4983 26.4461 42.9617V43.0662C28.1185 41.9164 29.4774 40.2439 30.2091 38.3624C30.8363 36.899 31.2544 35.331 31.359 33.7631C31.359 33.7631 28.8502 36.1672 25.7144 35.5401C25.7144 35.7491 25.7144 35.8537 25.7144 36.0627C25.8189 36.6899 25.8189 37.3171 25.8189 37.9442L26.0279 39.0941Z" fill="#D60051"/>
<path d="M25.8188 36.1672C25.9241 37.0035 25.8188 36.8989 25.9241 37.7352C25.9241 37.7352 25.9241 37.8397 25.9241 38.0488C25.9241 37.5261 25.8188 36.7944 25.8188 36.1672Z" fill="#D60051"/>
<path d="M26.446 42.9617C26.2369 41.3937 26.1324 40.3484 26.0279 39.1986V39.0941L25.9233 38.1533C26.0279 38.676 26.1324 39.5122 26.1324 39.5122C26.2369 40.662 26.3415 41.4983 26.446 42.9617Z" fill="#D60051"/>
<path d="M27.5958 28.9547L26.8641 29.1638L26.1324 29.4774L25.8188 29.5819L25.0871 29.8955L24.878 30C24.7735 30 24.669 30.1045 24.5645 30.2091C26.8641 30.3136 26.7596 30.3136 27.5958 28.9547Z" fill="#10255E"/>
<path d="M26.1323 29.4774L26.9686 29.1638L26.1323 29.4774Z" fill="#10255E"/>
<path d="M28.1184 23.7282C28.432 23.7282 28.641 23.4146 28.641 23.101C28.641 22.7874 28.3274 22.5784 28.0139 22.5784C27.7003 22.5784 27.4912 22.892 27.4912 23.2055C27.4912 23.5191 27.8048 23.7282 28.1184 23.7282Z" fill="#10255E"/>
<path d="M22.2649 23.3101C22.5785 23.3101 22.7875 22.9965 22.7875 22.6829C22.7875 22.3693 22.4739 22.1603 22.1603 22.1603C21.8468 22.1603 21.6377 22.4739 21.6377 22.7875C21.7422 23.101 21.9513 23.3101 22.2649 23.3101Z" fill="#10255E"/>
<path d="M19.8608 43.2753C19.8608 43.0662 19.8608 42.8571 19.8608 42.6481C19.8608 42.439 19.8608 42.3345 19.8608 42.1254V42.0209C19.8608 41.9164 19.8608 41.9164 19.8608 41.8118C19.8608 41.6028 19.8608 41.4983 19.8608 41.2892C19.8608 41.1847 19.8608 41.1847 19.8608 41.0801V40.9756C19.8608 40.8711 19.8608 40.662 19.8608 40.5575C19.8608 40.453 19.8608 40.3484 19.8608 40.2439L18.8155 40.662C17.6657 41.1847 16.6204 41.9164 15.5751 42.5435C14.8434 43.0662 14.2162 43.4843 13.589 44.1115L10.4531 52.6829C12.6482 54.5645 15.0524 56.1324 17.6657 57.2822L19.8608 49.0244L20.2789 47.4564V47.3519C20.0699 45.8885 19.8608 44.4251 19.8608 43.2753Z" fill="#00CFFF"/>
<path d="M21.0103 47.8746L21.3238 48.2927C21.3238 48.0837 21.3238 48.0837 21.3238 48.0837L21.0103 47.8746Z" fill="#00CFFF"/>
<path d="M40.7668 51.115C40.7668 50.3833 40.7668 49.6516 40.8713 49.129L40.6622 47.2474C40.5577 48.5018 40.4532 49.8607 40.3486 51.3241L40.7668 51.115Z" fill="#7AE6FF"/>
<path d="M40.3486 51.2195C40.4532 49.7561 40.5577 48.3972 40.6622 47.1428C40.5577 48.5017 40.4532 49.8606 40.3486 51.2195Z" fill="#7AE6FF"/>
<path d="M27.3868 51.115H27.0732L27.1778 51.4286L27.3868 51.115Z" fill="#7AE6FF"/>
<path d="M20.1743 47.4565L21.0106 47.9791L20.2788 47.0383L20.1743 47.4565Z" fill="#7AE6FF"/>
<path d="M20.1743 47.4564C20.2788 48.0836 20.2788 48.7108 20.3834 49.4425C20.2788 48.7108 20.2788 48.0836 20.1743 47.4564Z" fill="#7AE6FF"/>
<path d="M40.6621 38.4669C40.244 38.3624 39.8258 38.2578 39.4077 38.1533C38.9896 38.0488 38.467 37.9442 38.0488 37.8397C37.4217 37.7352 36.69 37.6307 36.0628 37.5261V37.6307L35.7492 38.0488L35.6447 38.1533C35.5401 38.1533 35.5401 38.1533 35.4356 38.1533L27.1778 51.0104V51.4286V51.115L26.4461 42.9617C26.237 41.3937 26.1325 40.662 26.0279 39.5122C26.0279 39.5122 25.9234 38.6759 25.8189 38.1533C23.6238 38.5714 21.5332 39.3031 19.4426 40.2439V40.453V40.7665C19.4426 40.8711 19.4426 41.0801 19.4426 41.1847V41.2892C19.4426 41.3937 19.4426 41.3937 19.4426 41.4982C19.4426 41.7073 19.4426 41.8118 19.4426 42.0209V42.3345C19.4426 42.5435 19.4426 42.6481 19.4426 42.8571C19.5471 44.216 19.6516 45.784 19.8607 47.561L19.9652 47.0383L20.6969 48.0836L21.0105 48.2927C21.0105 48.2927 21.0105 48.3972 21.0105 48.5017L20.6969 48.0836L19.8607 47.6655C19.9652 48.2927 19.9652 48.9199 20.0697 49.6516C19.9652 49.0244 19.9652 48.2927 19.8607 47.6655L19.7562 49.1289L17.561 57.3868C18.6063 57.9094 19.7562 58.3275 20.906 58.6411C27.4913 60.7317 34.4948 60.4181 40.8711 57.9094C40.7666 55.4007 40.6621 52.9965 40.7666 51.115L40.3485 51.2195C40.453 49.8606 40.5575 48.5017 40.6621 47.1428C40.8711 44.7387 40.9757 42.5435 41.1847 40.662C41.1847 40.5575 41.1847 40.3484 41.1847 40.2439C41.1847 40.0348 41.1847 39.8258 41.2893 39.6167C41.2893 39.4077 41.2893 39.3031 41.2893 39.0941C41.2893 38.9895 41.2893 38.7805 41.2893 38.6759L40.6621 38.4669ZM39.9304 51.4286V53.5192H32.1952V49.6516H39.9304V51.4286Z" fill="#7AE6FF"/>
<path d="M49.2341 42.8572L49.1289 42.7527L49.2341 42.8572Z" fill="#00CFFF"/>
<path d="M49.2335 42.8571L49.129 42.7526L48.9199 42.6481L48.6064 42.3345C47.1429 41.1846 45.4705 40.2439 43.798 39.5122L43.0663 39.1986C42.3346 38.885 41.7074 38.6759 41.2893 38.5714C41.2893 39.1986 41.1848 39.8258 41.1848 40.5575C41.0802 42.0209 40.8712 44.3205 40.6621 47.0383L40.8712 48.9198L41.0802 50.9059L40.7666 51.115C40.7666 52.9965 40.8712 55.4007 40.9757 57.9094C41.1848 57.8049 41.4983 57.7003 41.7074 57.5958C44.0071 56.655 46.2022 55.2961 48.1882 53.8327C49.4426 52.892 50.4879 51.8467 51.6377 50.8014L52.5785 49.8606C51.1151 45.1568 49.9652 43.4843 49.2335 42.8571Z" fill="#00CFFF"/>
<path d="M40.7666 51.115L41.0802 51.0104L40.8711 49.1289C40.7666 49.6516 40.7666 50.3833 40.7666 51.115Z" fill="#00CFFF"/>
<path d="M52.3692 30.1046C52.3692 30.1046 54.4598 27.9095 51.8466 19.7561C49.2333 11.6028 42.7525 15.1568 42.7525 15.1568C42.7525 13.2753 42.1253 11.4983 40.9755 10.0349C39.6166 8.46695 37.8396 7.42165 35.749 7.10806C34.3901 6.79447 32.9267 7.00353 31.6724 7.63071C31.1497 7.9443 30.7316 8.25789 30.3135 8.78053C30.8361 8.36242 31.5678 8.25789 32.195 8.57148C32.7177 8.88506 33.1358 9.30318 33.5539 9.7213C33.8675 10.0349 34.2856 10.3485 34.5992 10.7666C36.3762 12.6481 38.4668 15.2614 39.1985 17.1429C39.8257 18.9199 39.7211 21.9513 38.7804 23.4147C38.7804 23.5192 38.7804 23.6237 38.6758 23.8328C40.4528 24.3554 41.4981 26.3415 40.871 28.1185C40.3483 29.6865 38.8849 30.6272 37.2124 30.5227C37.9441 31.7771 39.1985 33.8676 39.1985 33.8676C39.1985 33.8676 37.526 33.9722 36.1671 34.0767C36.1671 35.3311 36.0626 36.4809 36.0626 37.7352C36.6898 37.8398 37.4215 37.9443 38.0487 38.0488C38.4668 38.1534 38.9894 38.2579 39.4076 38.3624C39.8257 38.4669 40.2438 38.5715 40.6619 38.676L41.2891 38.8851C41.7072 38.9896 42.3344 39.1987 43.0661 39.5122L43.7978 39.8258C45.5748 40.453 47.1427 41.3938 48.6062 42.6481L49.1288 43.0663L49.2333 43.1708C49.8605 43.6934 50.4877 44.2161 51.1149 44.8433C52.3692 43.4844 53.519 42.021 54.4598 40.453C55.8187 37.9443 52.3692 30.1046 52.3692 30.1046Z" fill="#4B6BC4"/>
<path d="M28.1187 12.9617C28.1187 12.8572 28.2187 12.8572 28.1187 12.9617C28.2187 12.8572 28.1187 12.8572 28.1187 12.9617Z" fill="#4B6BC4"/>
<path d="M25.401 16.3066C25.2965 16.4112 25.0874 16.5157 24.9829 16.6202L25.2965 16.5157L25.401 16.3066Z" fill="#4B6BC4"/>
<path d="M28.1187 12.9617C28.2239 12.9617 28.2239 12.8572 28.1187 12.9617C28.2239 12.8572 28.1187 12.9617 28.1187 12.9617Z" fill="#4B6BC4"/>
<path d="M33.4494 16.2021C32.7177 14.8433 32.0905 13.5889 31.3588 12.5436C31.1498 12.23 30.9407 11.9164 30.8362 11.6028C30.4181 10.9757 30.1045 10.453 29.7909 10.0349C29.4773 9.61678 29.3728 9.40772 29.3728 9.40772H29.4773C26.1323 7.63072 22.3693 7.94431 20.1742 10.1394C18.9198 11.4983 18.1881 13.2753 18.1881 15.1569C17.77 15.1569 13.3797 15.6795 11.1846 19.5471C9.40761 22.683 7.52607 25.9234 10.0348 28.9548C9.19855 29.1638 10.1393 39.9304 12.439 42.7527C12.8571 43.2753 13.1707 43.6934 13.5888 44.1116C14.216 43.5889 14.8431 43.0663 15.5749 42.5436C16.6201 41.8119 17.6654 41.1847 18.8153 40.6621C19.1289 40.5576 19.3379 40.3485 19.6515 40.244C21.6376 39.3032 23.8327 38.5715 26.0278 38.1534C26.0278 37.9443 26.0278 37.8398 26.0278 37.8398C25.9233 37.0035 26.0278 37.1081 25.9233 36.2718V36.0628C25.9233 35.9582 25.9233 35.8537 25.9233 35.8537H25.8188C25.7142 35.8537 25.6097 35.8537 25.6097 35.7492C25.5052 35.7492 25.2961 35.6447 25.1916 35.6447L25.087 35.5401L24.5644 35.2265C23.9372 34.913 23.4146 34.5994 22.9965 34.1812C22.6829 33.9722 22.3693 33.6586 22.0557 33.345L19.6515 33.4495C19.6515 33.4495 20.2787 32.1952 20.6968 31.4635C20.0696 30.1046 19.6515 28.6412 19.547 27.1778C19.4424 26.8642 19.4424 26.5506 19.4424 26.237C19.4424 26.1325 19.4424 26.1325 19.4424 26.0279C18.7107 21.3241 20.1742 18.3973 20.1742 18.3973C21.9512 18.0837 23.6236 17.4565 25.1916 16.5157C25.2961 16.4112 25.5052 16.3067 25.6097 16.2021C26.1323 15.8886 26.5505 15.4704 26.9686 14.9478C27.4912 14.3206 28.0139 13.5889 28.3275 12.7527C28.3275 12.7527 28.3275 12.7527 28.3275 12.6481C28.432 12.4391 28.432 12.4391 28.3275 12.6481C28.6411 14.7387 29.2682 16.7248 30.209 18.6063C31.1498 20.2788 32.2996 21.9513 33.6585 23.3102C34.1811 22.892 34.8083 22.683 35.54 22.5785C35.2264 20.5924 34.4947 18.2927 33.4494 16.2021Z" fill="#4B6BC4"/>
<path d="M30.3138 8.67603C30.0002 8.88508 29.6866 9.09414 29.4775 9.40773L29.6866 9.51226C29.7911 9.19867 30.1047 8.88508 30.3138 8.67603Z" fill="#7AE6FF"/>
<path d="M37.6306 27.8049C37.4215 27.9095 37.2125 28.1185 37.0034 28.2231C37.2125 28.014 37.4215 27.9095 37.6306 27.8049Z" fill="#7AE6FF"/>
<path d="M36.167 28.5366L36.5851 28.3275L36.167 28.5366Z" fill="#7AE6FF"/>
<path d="M36.8987 29.1638C36.7942 29.1638 36.6896 29.1638 36.6896 29.1638C36.3761 29.1638 36.167 29.3729 36.167 29.6865C36.5851 29.6865 36.8987 29.5819 37.2123 29.3729C37.2123 29.2683 37.1078 29.1638 36.8987 29.1638Z" fill="#7AE6FF"/>
<path d="M37.5263 26.5505C37.4218 27.0732 37.2127 27.4913 36.7946 27.7004C36.7946 27.8049 36.7946 27.9094 36.7946 28.014C36.6901 28.223 36.481 28.4321 36.272 28.5366L36.6901 28.3275L37.0037 28.1185C37.2127 28.014 37.4218 27.9094 37.6309 27.7004C37.7354 27.3868 37.8399 27.0732 37.9445 26.7596L37.5263 26.5505Z" fill="#7AE6FF"/>
<path d="M36.6896 28.0139C36.5851 28.223 36.3761 28.432 36.167 28.5366C36.4806 28.432 36.5851 28.223 36.6896 28.0139Z" fill="#7AE6FF"/>
<path d="M35.54 24.3554C35.6453 24.2508 35.6453 24.2508 35.54 24.3554C35.6453 24.2508 35.6453 24.3554 35.54 24.3554Z" fill="#7AE6FF"/>
<path d="M38.7807 23.4147C39.617 21.9513 39.826 18.9199 39.1988 17.1429C38.5717 15.1569 36.3765 12.5436 34.5995 10.7666C34.1814 10.3485 33.8678 10.0349 33.5542 9.72132C33.1361 9.3032 32.718 8.88508 32.1953 8.57149C31.5682 8.25791 30.8365 8.36244 30.3138 8.78055C30.1048 9.09414 29.8957 9.3032 29.6866 9.61679L29.4776 9.40773L29.373 9.51226C29.373 9.51226 29.5821 9.72132 29.7912 10.1394C30.0002 10.5576 30.4183 11.0802 30.8365 11.7074C31.0455 12.021 31.1501 12.3346 31.3591 12.6481C31.9863 13.6934 32.718 14.9478 33.3452 16.3067C34.3905 18.3973 35.1222 20.5924 35.5403 22.9966C34.9131 22.9966 34.1814 23.3102 33.6588 23.7283C32.1953 24.7736 31.8818 26.8642 32.9271 28.4321C33.2406 28.8502 33.5542 29.1638 33.9724 29.3729C34.495 29.6865 35.1222 29.8955 35.7494 29.8955C35.8539 29.8955 35.9584 29.8955 36.1675 29.8955C36.1675 29.5819 36.3765 29.3729 36.6901 29.3729C36.8992 29.3729 37.1082 29.3729 37.3173 29.5819C38.5717 29.0593 39.3034 27.8049 39.3034 26.5506C39.3034 25.7143 38.9898 24.8781 38.3626 24.2509C38.4671 23.8328 38.6762 23.6238 38.7807 23.4147ZM35.6448 24.2509C35.5403 24.3555 35.5403 24.3555 35.6448 24.2509V24.2509ZM37.0037 28.1185L36.5856 28.3276L36.1675 28.5366C36.3765 28.4321 36.5856 28.2231 36.6901 28.014C36.6901 27.9095 36.7946 27.8049 36.6901 27.7004C36.3765 27.9095 36.0629 28.014 35.7494 28.014C34.8086 28.014 33.9724 27.2823 33.9724 26.237C33.9724 25.6098 34.3905 24.9826 34.9131 24.6691C35.0176 24.6691 35.0176 24.5645 35.1222 24.5645C35.3312 24.46 35.5403 24.46 35.7494 24.46C36.4811 24.46 37.1082 24.8781 37.4218 25.6098C37.5264 25.8189 37.5264 26.0279 37.5264 26.237C37.5264 26.3415 37.5264 26.4461 37.5264 26.5506L37.9445 26.8642C37.8399 27.1778 37.7354 27.4914 37.6309 27.8049C37.4218 27.9095 37.2128 28.014 37.0037 28.1185Z" fill="#7AE6FF"/>
<path d="M35.0176 24.7736L35.1228 24.6691C35.1228 24.6691 35.0176 24.6691 35.0176 24.7736C35.0176 24.6691 35.0176 24.7736 35.0176 24.7736Z" fill="#4B6BC4"/>
<path d="M35.0175 24.7735C35.0175 24.7735 35.0175 24.669 35.0175 24.7735C34.3903 24.9826 33.9722 25.6097 33.9722 26.2369C33.9722 27.1777 34.7039 28.0139 35.7492 28.0139C36.0628 28.0139 36.4809 27.9094 36.6899 27.7003C36.6899 27.5958 36.5854 27.4913 36.5854 27.3868C36.4809 27.2822 36.4809 27.1777 36.3763 27.0732L36.2718 26.9686H36.1673L36.899 26.2369L37.4216 25.7143C37.2126 24.9826 36.4809 24.5645 35.7492 24.5645C35.5401 24.5645 35.3311 24.5645 35.122 24.669L35.0175 24.7735Z" fill="#4B6BC4"/>
<path d="M37.108 26.2369L37.5261 26.5505C37.5261 26.446 37.5261 26.3414 37.5261 26.2369C37.5261 26.0279 37.5261 25.8188 37.4216 25.6097L36.8989 26.1324L37.108 26.2369Z" fill="#4B6BC4"/>
<path d="M37.5263 26.5506L37.1082 26.237L37.0037 26.1324L36.272 26.8642H36.3765L36.481 26.9687C36.5856 27.0732 36.6901 27.1777 36.6901 27.2823C36.7946 27.3868 36.7946 27.4913 36.7946 27.5959C37.2127 27.3868 37.4218 26.9687 37.5263 26.5506Z" fill="#4B6BC4"/>
<path d="M27.4911 30.9408C26.1322 31.1498 25.1914 31.777 25.1914 32.4042C25.1914 33.0314 26.4458 33.2404 27.8046 33.0314C29.1635 32.8223 30.1043 32.1951 30.1043 31.568C30.1043 31.4634 30.1043 31.4634 29.9998 31.3589H29.6862H29.9998C29.5816 30.9408 28.6409 30.7317 27.4911 30.9408Z" fill="#7AE6FF"/>
<path d="M32.1948 49.5471V49.6516L32.3001 49.5471H32.1948Z" fill="#00CFFF"/>
<path d="M32.4039 49.5471L32.1948 49.6516V53.4147H39.93V49.5471H32.4039Z" fill="#00CFFF"/>
<path d="M28.9546 31.9861L28.8501 31.3589C30.5226 31.0454 34.1811 28.2231 34.2856 28.1185L34.5992 28.5366C34.4947 28.7457 30.7316 31.6725 28.9546 31.9861Z" fill="#7AE6FF"/>
</g>
<defs>
<clipPath id="clip0">
<rect width="60" height="60" fill="white"/>
</clipPath>
</defs>
</svg>
