<svg width="175" height="171" viewBox="0 0 175 171" fill="none" xmlns="http://www.w3.org/2000/svg">
<path d="M95.37 80.4652C92.1987 79.6394 78.5499 80.7175 71.8172 85.0244C65.0903 89.3312 47.3066 167.061 47.3066 167.061C47.3066 167.061 67.734 165.289 81.9105 137.435C96.0869 109.581 95.37 80.4652 95.37 80.4652Z" fill="#D60051"/>
<path d="M87.72 59.1086C82.7077 63.7538 81.4403 65.7782 76.3765 69.5747C71.3127 73.3711 57.6409 70.3317 60.1699 87.8056C62.7047 105.274 73.0847 114.392 80.9299 109.581C88.7751 104.769 114.1 79.7023 114.1 79.7023L95.8691 60.204L87.72 59.1086Z" fill="#10255E"/>
<path d="M112.838 82.7417C109.294 86.0335 99.5103 96.5684 95.0314 92.5655C90.5526 88.5626 93.3397 80.7173 93.3397 80.7173C93.3397 80.7173 71.5646 77.9302 68.2728 91.3497C67.2176 95.6393 64.2413 95.7655 66.5008 113.377C68.399 128.196 75.2349 160.288 77.8958 169.079C95.6221 169.332 141.701 169.584 141.701 169.584L152.081 139.958L141.449 94.6357L112.838 82.7417Z" fill="#D60051"/>
<path d="M123.12 35.7394L124.738 34.2827L123.12 35.7394Z" fill="#00CFFF"/>
<path d="M153.572 62.3028C149.541 48.0002 157.954 41.8525 151.066 31.8682C145.842 24.2983 134.24 18.0072 124.147 21.494C121.234 22.4976 118.963 24.1148 117.265 25.6918C119.76 28.5592 122.243 31.4152 124.732 34.2826L123.115 35.7392L122.071 36.6797L114.587 28.3643L114.518 28.2897C105.073 24.6825 93.0071 27.0108 86.8823 40.459C87.7827 40.8489 89.0157 41.7092 89.9218 42.1049C89.916 42.1278 92.3304 43.4755 92.3247 43.4984C92.3247 43.4984 93.4659 44.2554 96.1211 45.5228C97.8932 46.4117 97.3942 49.1759 97.3942 49.1759C97.3885 49.2045 108.279 50.1795 108.273 50.2081C110.148 51.0626 111.186 52.2325 113.085 53.1214C114.891 53.4483 106.232 52.8519 106.146 53.3336L117.139 55.1458C120.138 56.5566 112.098 56.1666 115.012 57.5831C115.344 57.7437 115.683 57.91 116.009 58.0706C116.388 58.2541 116.795 57.8068 117.168 57.9903C117.994 57.5946 118.871 57.9903 119.806 57.9386C120.414 57.9042 121.039 57.9559 121.658 58.0878C125.478 58.9021 127.909 62.6641 127.095 66.4835C126.275 70.3029 122.518 72.7344 118.693 71.9201C117.741 71.7194 116.881 71.3294 116.13 70.8076L116.113 70.8764L113.079 82.5754C113.09 82.5811 113.102 82.5811 113.108 82.5868C115.545 83.4127 117.793 84.3589 119.835 85.3396C120.374 85.5976 120.907 85.8614 121.417 86.1252C121.865 86.3604 122.312 86.5898 122.736 86.8249C123.195 87.0715 123.637 87.3123 124.067 87.5589C124.784 87.9661 125.466 88.3675 126.103 88.7575C128.551 90.369 132.101 92.898 135.984 96.4364C139.155 99.3267 141.885 102.297 144.271 105.291C148.48 103.083 157.627 127.106 161.182 124.015C186.502 101.988 169.79 85.0241 166.717 81.5775C161.211 76.6456 155.975 70.8133 153.572 62.3028Z" fill="#10255E"/>
<path d="M127.995 110.533C131.086 110.097 134.091 109.386 136.976 108.417L127.852 108.841C127.903 109.409 127.949 109.971 127.995 110.533Z" fill="#7B52ED"/>
<path d="M113.067 82.6842L112.918 82.8849C113.039 82.73 113.113 82.6383 113.113 82.6383L113.125 82.5867C113.113 82.5809 113.102 82.5809 113.096 82.5752L113.079 82.6325L113.067 82.6842Z" fill="#7B52ED"/>
<path d="M114.983 28.4733C118.383 29.9012 121.13 32.5507 123.12 35.7393L124.737 34.2826C122.249 31.4152 119.76 28.5593 117.271 25.6919C116.353 26.5579 115.436 27.4181 114.518 28.2783L114.524 28.2898C114.679 28.3471 114.828 28.4102 114.983 28.4733Z" fill="#7B52ED"/>
<path d="M122.077 36.6797L123.12 35.7392C121.13 32.5564 118.383 29.9069 114.983 28.4732C114.828 28.4101 114.679 28.347 114.524 28.2839L114.593 28.3585L122.077 36.6797Z" fill="#7B52ED"/>
<path d="M88.0348 45.1901C88.0406 45.1615 88.0463 45.1328 88.0578 45.0984C88.0349 45.1443 88.0119 45.1901 87.989 45.236C87.9546 45.2991 87.9316 45.3622 87.8972 45.4195C87.9374 45.3851 87.9718 45.3565 88.0004 45.3278C88.0176 45.2876 88.0234 45.2418 88.0348 45.1901Z" fill="#4B6BC4"/>
<path d="M88.0061 45.3335C88.1265 45.2303 88.2011 45.1787 88.2011 45.1787C88.2527 45.1959 88.3158 45.2188 88.3789 45.236C88.2756 45.1901 88.1667 45.1443 88.0634 45.0984C88.0634 45.0984 88.0634 45.1041 88.0577 45.1041C88.052 45.1328 88.0405 45.1615 88.0348 45.1959C88.0233 45.2418 88.0176 45.2876 88.0061 45.3335Z" fill="#4B6BC4"/>
<path d="M91.4756 63.3753L96.2297 64.9294C96.2297 64.9294 95.943 66.5695 96.2986 68.8979L101.202 67.5158C101.288 67.4928 101.385 67.5158 101.443 67.5846C101.506 67.6534 101.523 67.7452 101.489 67.8312C100.668 69.9531 98.862 71.4097 96.9581 71.5703C97.6806 73.6692 98.9882 75.9804 101.328 78.0506C100.858 78.0908 100.387 78.1137 99.9172 78.1137C101.689 78.1825 103.868 78.0392 106.254 77.3625C105.795 78.3488 105.308 79.4098 104.792 80.4994C107.751 80.9869 110.527 81.7094 113.09 82.5754L116.124 70.8764L116.141 70.8076C113.876 69.2248 112.654 66.3918 113.268 63.5186C113.635 61.8039 114.593 60.3702 115.889 59.3838C116.279 59.0856 116.703 58.8276 117.145 58.6154C116.766 58.4319 119.8 58.105 119.421 57.9214C119.089 57.7609 117.225 53.4426 116.887 53.282C114.461 52.1006 109.202 50.4662 108.193 49.5659C107.98 49.3766 107.728 49.2275 107.447 49.1644C105.491 48.7114 99.6247 45.8497 98.1452 45.1787C97.6176 47.4153 95.49 55.9143 94.4003 57.5831C93.305 59.2806 91.4756 63.3753 91.4756 63.3753ZM100.766 54.406C101.334 54.406 101.792 54.8648 101.792 55.4325C101.792 56.0003 101.334 56.4591 100.766 56.4591C100.198 56.4591 99.7394 56.0003 99.7394 55.4325C99.7337 54.8705 100.198 54.406 100.766 54.406Z" fill="#4B6BC4"/>
<path d="M93.8498 87.2378C93.844 87.3525 92.525 85.6665 92.5193 85.7812C91.1888 94.5153 92.267 98.3174 93.7867 99.3268C95.3064 100.342 98.2828 100.91 100.307 99.4529C102.332 97.9963 108.663 89.136 108.663 89.136C108.674 89.1188 109.345 88.7059 109.357 88.6944L110.75 86.9224C110.819 86.8249 112.052 84.0034 112.918 82.8908L113.067 82.6901L113.084 82.6385L113.102 82.5811C110.538 81.7152 107.762 80.9926 104.803 80.5051C102.165 86.108 97.6864 87.0887 93.8498 87.2378Z" fill="#4B6BC4"/>
<path d="M86.3374 66.495C85.7467 64.7917 85.4313 63.4211 85.3108 62.8648C85.3108 62.8648 84.8922 60.9781 84.9151 58.0591C84.9209 56.654 85.0355 55.0024 85.3452 53.2017C85.7639 50.7988 86.5381 48.1264 87.8972 45.4253C86.7617 46.4518 82.9022 50.8561 85.0126 61.8326C85.3624 63.6448 85.7868 65.2735 86.28 66.7301C86.3029 66.667 86.3316 66.5982 86.3546 66.5351C86.3488 66.5236 86.3431 66.5122 86.3374 66.495Z" fill="#2F50A8"/>
<path d="M97.3996 49.1759C97.3996 49.1759 90.6326 46.016 88.373 45.2361C91.3494 46.5436 94.3487 47.8856 97.3767 49.2677C97.3882 49.2332 97.3939 49.2046 97.3996 49.1759Z" fill="#2F50A8"/>
<path d="M86.3543 66.5352C86.3314 66.5982 86.3027 66.6671 86.2798 66.7301C88.3787 72.9753 91.6877 76.1352 95.4096 77.4083C95.4096 77.3911 95.4096 77.3797 95.4096 77.3797C90.3285 75.5904 87.6619 70.2742 86.3543 66.5352Z" fill="#2F50A8"/>
<path d="M84.915 58.0593C84.892 60.984 85.3107 62.865 85.3107 62.865C85.4368 63.4213 85.7465 64.7919 86.3372 66.4952C86.3429 66.5066 86.3487 66.5238 86.3487 66.5353C86.3601 66.5066 86.3716 66.478 86.3831 66.4493C87.2777 63.8973 87.6218 61.4485 87.7193 59.1087C87.7939 57.1704 87.7078 55.3066 87.6218 53.5058C87.5759 52.5711 87.5358 51.6592 87.5186 50.7646C87.2261 50.6327 87.0483 50.4779 87.0483 50.3115C87.0483 50.1452 87.2204 49.9961 87.5128 49.8642C87.5128 49.7553 87.5128 49.652 87.5128 49.5431C87.5128 49.3022 87.5243 49.0671 87.53 48.832C87.5817 47.6277 87.7136 46.4578 88.0003 45.3337C87.9659 45.3624 87.9315 45.3911 87.8971 45.4255C86.5379 48.1323 85.758 50.799 85.3451 53.2019C85.0354 55.0026 84.9207 56.6542 84.915 58.0593Z" fill="#2F50A8"/>
<path d="M86.8418 46.3658C86.5551 47.4955 87.5816 47.6332 87.53 48.8318C87.5243 49.0669 87.5128 49.3077 87.5128 49.5429C87.5128 49.6461 87.5128 49.7551 87.5128 49.864C88.092 49.6002 89.1644 49.4282 90.3917 49.4282C92.2383 49.4282 93.7351 49.8239 93.7351 50.3113C93.7351 50.7988 92.2383 51.1945 90.3917 51.1945C89.1702 51.1945 88.0978 51.0167 87.5185 50.7586C87.5357 51.6533 87.5759 52.5708 87.6218 53.4999C87.702 55.3006 87.7938 57.1644 87.7193 59.1028C87.6218 61.4483 87.2777 63.8971 86.383 66.4433C86.3716 66.472 86.3601 66.5007 86.3486 66.5294C87.6562 70.2685 90.3228 75.5789 95.4096 77.3739C95.4096 77.3739 97.1702 77.999 99.9114 78.1022C100.382 78.1022 100.852 78.0793 101.322 78.0391C98.9824 75.9689 97.6749 73.6577 96.9523 71.5588C96.8376 71.5702 96.7229 71.576 96.6082 71.576C96.5165 71.576 96.4247 71.5703 96.3329 71.5645C94.8648 71.467 93.8096 70.6011 93.3107 70.0907C93.2533 70.0276 93.2304 69.9416 93.2476 69.8613C93.2705 69.781 93.3336 69.7179 93.4139 69.695L96.2813 68.8864C95.9258 66.558 96.2125 64.9179 96.2125 64.9179L91.4583 63.3638C91.4583 63.3638 93.2877 59.2691 94.3946 57.5773C95.4842 55.9085 97.6921 47.4095 98.2254 45.173C95.272 44.2439 91.6648 42.7643 88.6884 41.4568C88.6368 41.4511 86.968 46.2626 86.8418 46.3658ZM88.9637 54.406C88.396 54.406 87.9372 53.9472 87.9372 53.3795C87.9372 52.8117 88.396 52.3529 88.9637 52.3529C89.5314 52.3529 89.9902 52.8117 89.9902 53.3795C89.996 53.9472 89.5314 54.406 88.9637 54.406Z" fill="#2F50A8"/>
<path d="M101.489 67.8313C101.523 67.7453 101.506 67.6536 101.443 67.5847C101.38 67.5159 101.288 67.493 101.202 67.5159L96.2986 68.898C96.4247 69.7181 96.6312 70.6242 96.9581 71.5704C98.862 71.4099 100.668 69.9532 101.489 67.8313Z" fill="#10255E"/>
<path d="M93.4255 69.7007C93.3452 69.7236 93.2821 69.7867 93.2592 69.867C93.2362 69.9473 93.2592 70.0333 93.3223 70.0964C93.8212 70.6068 94.8764 71.4728 96.3445 71.5703C96.4363 71.576 96.528 71.5817 96.6198 71.5817C96.7345 71.5817 96.8492 71.576 96.9639 71.5645C96.637 70.6183 96.4305 69.7122 96.3044 68.8921L93.4255 69.7007Z" fill="#10255E"/>
<path d="M87.5187 49.864C87.2262 49.9959 87.0542 50.1508 87.0542 50.3113C87.0542 50.4776 87.2262 50.6267 87.5244 50.7644C87.5187 50.4604 87.5187 50.1622 87.5187 49.864Z" fill="#10255E"/>
<path d="M93.7352 50.317C93.7352 49.8295 92.2384 49.4338 90.3918 49.4338C89.1646 49.4338 88.0922 49.6116 87.5129 49.8697C87.5129 50.1679 87.5129 50.4661 87.5187 50.77C88.0979 51.0281 89.1703 51.2059 90.3918 51.2059C92.2441 51.2002 93.7352 50.8045 93.7352 50.317Z" fill="#10255E"/>
<path d="M104.677 52.6338C105.055 52.8116 105.44 52.9951 105.818 53.1672C105.933 53.2188 106.042 53.2761 106.156 53.3277C106.242 52.846 104.849 52.198 103.042 51.8711C103.065 51.8826 103.088 51.894 103.117 51.9055C103.633 52.1464 104.155 52.393 104.677 52.6338Z" fill="#10255E"/>
<path d="M99.5731 52.1463C99.4871 52.628 100.886 53.2818 102.704 53.6087C104.516 53.9355 106.059 53.8094 106.145 53.3277C106.03 53.276 105.922 53.2187 105.807 53.1671C105.428 52.9893 105.044 52.8058 104.666 52.6337C104.144 52.3871 103.622 52.1463 103.1 51.8997C103.077 51.8882 103.054 51.8767 103.025 51.8653C103.02 51.8653 103.014 51.8653 103.008 51.8596C101.202 51.5384 99.6591 51.6646 99.5731 52.1463Z" fill="#10255E"/>
<path d="M89.9559 47.0828C89.8699 47.5645 91.2692 48.2183 93.0871 48.5452C94.8993 48.8721 96.442 48.7459 96.528 48.2642C96.4133 48.2126 96.3043 48.1552 96.1896 48.1036C95.8111 47.9258 95.4269 47.7423 95.0484 47.5703C94.5266 47.3237 94.0047 47.0828 93.4828 46.8362C93.4599 46.8248 93.4369 46.8133 93.4083 46.8018C93.4025 46.8018 93.3968 46.8018 93.3911 46.7961C91.5846 46.4749 90.0419 46.6011 89.9559 47.0828Z" fill="#10255E"/>
<path d="M100.766 56.4649C101.333 56.4649 101.792 56.0053 101.792 55.4384C101.792 54.8715 101.333 54.4119 100.766 54.4119C100.199 54.4119 99.7393 54.8715 99.7393 55.4384C99.7393 56.0053 100.199 56.4649 100.766 56.4649Z" fill="#10255E"/>
<path d="M88.9638 52.353C88.396 52.353 87.9373 52.8118 87.9373 53.3796C87.9373 53.9473 88.396 54.4061 88.9638 54.4061C89.5315 54.4061 89.9903 53.9473 89.9903 53.3796C89.9961 52.8118 89.5315 52.353 88.9638 52.353Z" fill="#10255E"/>
<path d="M121.692 60.8807C121.801 60.9323 121.91 60.9896 122.019 61.0412L124.009 59.814L124.216 60.0893C124.33 61.1617 122.92 64.6484 120.178 66.518C119.949 66.7933 119.708 67.0743 119.444 67.3495C119.341 67.4528 118.194 68.5481 116.348 69.9875C116.33 69.999 116.313 70.0162 116.296 70.0277L116.348 70.0449L116.153 70.8134C116.904 71.3352 117.764 71.7195 118.716 71.9259C122.535 72.7403 126.297 70.3087 127.118 66.4893C127.932 62.6699 125.5 58.9079 121.681 58.0936C121.056 57.9617 120.431 57.91 119.829 57.9445C118.888 57.9903 117.988 58.2312 117.162 58.6269C117.168 58.6326 117.173 58.6326 117.185 58.6384C118.687 59.3839 120.201 60.1294 121.692 60.8807Z" fill="#4B6BC4"/>
<path d="M115.889 59.3896C114.598 60.3702 113.641 61.8039 113.268 63.5244C112.654 66.3975 113.876 69.2305 116.141 70.8133L116.336 70.0448L116.284 70.0276C116.302 70.0162 116.319 70.0047 116.336 69.9875C118.183 68.548 119.324 67.4584 119.433 67.3495C119.697 67.0742 119.943 66.7932 120.167 66.5179C119.33 67.0857 118.378 67.5158 117.294 67.6706C119.358 66.4204 117.775 63.6505 117.775 63.6505L122.008 61.0412C121.899 60.9896 121.79 60.9322 121.681 60.8806C120.19 60.1293 118.676 59.3838 117.156 58.6326" fill="#4B6BC4"/>
<path d="M76.3242 83.9634C76.1005 84.0723 75.8769 84.1813 75.6704 84.2903C75.8883 84.1928 76.112 84.0953 76.3414 83.9978C76.3356 83.9863 76.3299 83.9748 76.3242 83.9634Z" fill="#4E1ABA"/>
<path d="M95.3637 79.8455L95.467 77.6261L95.4727 77.4311C95.4498 77.4254 95.4325 77.4139 95.4096 77.4082C95.3981 77.5401 95.358 78.1767 95.2949 79.8398C95.3179 79.8398 95.3408 79.8398 95.3637 79.8455C95.3637 79.8398 95.3637 79.8398 95.3637 79.8455Z" fill="#2F50A8"/>
<path d="M95.3639 79.8857V79.8398C95.3639 79.8972 95.3582 79.9546 95.3582 80.0119L95.3639 79.8857Z" fill="#2F50A8"/>
<path d="M96.8205 79.8344H97.0843C99.7797 79.8516 102.349 80.0982 104.798 80.5053C105.308 79.4157 105.795 78.3548 106.26 77.3684C103.869 78.0451 101.701 78.0509 99.9288 77.982C98.4148 77.9878 96.9123 77.9247 95.4786 77.443L95.4729 77.6379L95.3696 79.8573C95.3811 79.8573 95.3983 79.8573 95.4155 79.8573C95.8972 79.8344 96.3617 79.8287 96.8205 79.8344Z" fill="#2F50A8"/>
<path d="M92.4562 84.5137C92.2841 88.5682 90.9766 97.3482 93.6777 98.9482C97.5143 98.7991 102.165 86.108 104.797 80.505C102.349 80.0979 101.018 78.3717 98.3229 78.3545L97.1817 78.819C96.7286 78.8133 95.444 78.4749 95.3236 78.9452C94.9852 80.2527 93.3565 80.9696 93.3393 80.9696L92.7888 82.4033L92.4562 84.5137Z" fill="#2F50A8"/>
<path d="M95.4775 77.4022C95.4605 77.3909 95.4322 77.3853 95.4153 77.3796C95.4153 77.3796 95.4153 77.3909 95.4153 77.4079C95.4379 77.4135 95.4549 77.4249 95.4775 77.4305V77.4022Z" fill="#2F50A8"/>
<path d="M95.4153 77.3796C95.4325 77.3911 95.4612 77.3968 95.4784 77.4026V77.4312C96.9121 77.913 98.4089 78.1194 99.9228 78.108C97.1759 78.0047 95.4153 77.3796 95.4153 77.3796Z" fill="#2F50A8"/>
<path d="M95.363 79.8455C95.363 79.8399 95.363 79.8399 95.363 79.8455C95.3403 79.8455 95.3234 79.8455 95.3008 79.8455C95.3177 79.8455 95.3403 79.8455 95.363 79.8455Z" fill="#2F50A8"/>
<path d="M95.3579 80.0177C95.3579 79.9604 95.3637 79.9031 95.3637 79.8457C95.3407 79.8457 95.3235 79.8457 95.3006 79.8457C95.2605 80.8436 95.2203 82.2142 95.1687 84.078L95.3579 80.0177Z" fill="#2F50A8"/>
<path d="M124.216 60.0892L124.009 59.814L122.019 61.0412C122.082 61.0756 122.145 61.1043 122.208 61.1387C122.455 61.2649 122.696 61.3853 122.943 61.5057C122.839 61.7867 122.73 62.0735 122.616 62.3545C122.283 63.1975 121.893 63.9832 121.893 63.9832C121.893 63.9832 121.256 65.1989 120.173 66.5122C122.92 64.6484 124.325 61.1616 124.216 60.0892Z" fill="#2F50A8"/>
<path d="M122.616 62.3602C122.73 62.0791 122.839 61.7924 122.942 61.5114C122.696 61.3852 122.455 61.2648 122.208 61.1444C122.145 61.11 122.082 61.0813 122.019 61.0469L117.787 63.6562C117.787 63.6562 119.37 66.4261 117.305 67.6763C118.383 67.5215 119.341 67.0971 120.178 66.5236C121.256 65.2103 121.899 63.9946 121.899 63.9946C121.899 63.9946 122.277 63.2032 122.616 62.3602Z" fill="#2F50A8"/>
<path d="M135.37 126.292C135.748 132.749 142.206 139.585 134.991 147.562C127.777 155.54 131.195 154.777 131.195 154.777L158.16 146.8L135.37 126.292Z" fill="#B80045"/>
<path d="M112.838 82.7419C117.145 82.7419 146.513 82.742 157.403 107.304C168.293 131.866 176.649 150.097 173.099 157.69C169.549 165.283 145.756 144.018 145.756 144.018C145.756 144.018 128.54 115.155 128.287 114.392C128.029 113.63 112.838 82.7419 112.838 82.7419Z" fill="#FF458B"/>
<path d="M113.853 158.699C107.018 158.195 103.221 156.164 100.939 156.422C98.6619 156.675 90.3063 159.967 88.7866 162.243C87.2668 164.52 84.9901 168.575 85.2425 169.842C85.4948 171.109 117.145 169.59 117.145 169.59L113.853 158.699Z" fill="#4B6BC4"/>
<path d="M145.756 144.018L108.027 156.681L108.279 169.848C108.279 169.848 173.856 174.912 173.099 157.696C172.342 140.468 145.756 144.018 145.756 144.018Z" fill="#FF458B"/>
<path d="M64.9809 83.757C65.4856 78.1885 66.753 74.6444 66.753 70.5899C66.753 66.5354 66.5007 62.2343 64.4763 59.4472C62.4519 56.6601 55.1056 52.6113 55.1056 52.6113C55.1056 52.6113 53.8382 46.5324 53.0812 42.4836C52.3242 38.4348 41.9385 34.885 41.4338 39.4442C40.9292 44.0033 42.7012 56.1554 43.9686 58.1798C45.236 60.2042 52.3242 67.8028 52.3242 67.8028L49.2848 78.4351L64.9809 83.757Z" fill="#4B6BC4"/>
<path d="M78.4008 103.502C75.8661 108.313 71.5649 142.24 73.5893 151.101C67.5104 156.922 55.3584 166.04 50.2945 166.292C45.2307 166.544 60.6745 103.754 60.6745 103.754C60.6745 103.754 65.0617 81.6407 82.6159 80.7977C83.6367 79.7884 78.4008 103.502 78.4008 103.502Z" fill="#B80045"/>
<path d="M68.2098 80.9698C68.2098 80.9698 66.2886 142.246 61.242 150.854C56.1954 159.462 52.3531 170.605 40.8146 166.55C35.7279 164.761 27.8024 151.324 30.2397 131.86C33.3307 107.207 48.0577 75.2751 51.1488 71.5991C54.2742 73.1188 68.2098 80.9698 68.2098 80.9698Z" fill="#FF458B"/>
<path d="M146.008 92.3648C147.299 93.7927 141.925 91.4701 138.668 95.6565C133.827 101.862 130.536 116.009 135.376 126.292C129.807 128.316 114.616 129.331 114.616 129.331L106.513 102.997L105.498 93.3741L113.125 82.3289C113.125 82.3289 138.662 84.2615 146.008 92.3648Z" fill="#D60051"/>
<path d="M45.2361 49.3193C45.9931 51.0914 45.9128 51.2577 48.6942 54.2972C51.4813 57.3366 57.6405 59.1947 60.6799 59.6993C63.7194 60.204 65.8298 64.0865 66.0821 62.5667C65.7036 56.4878 60.1753 55.6448 55.1114 52.6054C50.0476 49.5659 45.2361 49.3193 45.2361 49.3193Z" fill="#2F50A8"/>
<path d="M29.5341 0.957627C36.1177 1.97269 93.3396 49.6977 93.3396 49.6977C93.3396 49.6977 95.364 55.1401 91.0629 56.9121C86.7617 58.6842 17.8867 45.7694 17.8867 45.7694C17.8867 45.7694 38.5206 47.8397 42.4489 30.8302C43.9686 24.2524 22.9506 -0.057433 29.5341 0.957627Z" fill="#4E1ABA"/>
<path d="M119.255 58.432L116.015 58.0649C116.015 58.0649 114.019 59.5675 114.151 59.9058C114.277 60.2442 114.49 60.8349 114.49 60.8349C114.49 60.8349 116.009 61.2994 116.726 60.875C117.437 60.4621 119.255 58.432 119.255 58.432Z" fill="#4B6BC4"/>
<path d="M22.6525 46.4863C35.1631 46.4863 45.305 36.08 45.305 23.2432C45.305 10.4063 35.1631 0 22.6525 0C10.1419 0 0 10.4063 0 23.2432C0 36.08 10.1419 46.4863 22.6525 46.4863Z" fill="#7B52ED"/>
<path d="M22.6526 41.7151C32.5914 41.7151 40.6484 33.445 40.6484 23.2433C40.6484 13.0416 32.5914 4.77148 22.6526 4.77148C12.7137 4.77148 4.65674 13.0416 4.65674 23.2433C4.65674 33.445 12.7137 41.7151 22.6526 41.7151Z" fill="#00CFFF"/>
<path d="M88.7863 162.249C88.7863 162.249 98.7878 160.477 97.8989 161.36C97.01 162.249 87.7712 163.511 87.7712 163.511L88.7863 162.249Z" fill="#2F50A8"/>
<path d="M86.7565 166.172C88.4081 165.483 93.4662 165.793 94.9859 165.667C96.5056 165.541 97.5207 165.919 95.4906 166.682C93.4662 167.439 85.4891 168.58 85.4891 168.58C85.4891 168.58 85.2367 166.802 86.7565 166.172Z" fill="#2F50A8"/>
</svg>
