<?xml version="1.0" encoding="utf-8"?>
<!-- Generator: Adobe Illustrator 25.0.0, SVG Export Plug-In . SVG Version: 6.00 Build 0)  -->
<svg version="1.1" id="Layer_1" xmlns="http://www.w3.org/2000/svg" xmlns:xlink="http://www.w3.org/1999/xlink" x="0px" y="0px"
	 viewBox="0 0 18 18" style="enable-background:new 0 0 18 18;" xml:space="preserve">
<style type="text/css">
	.st0{display:none;}
	.st1{display:inline;fill:#4B6BC4;}
	.st2{fill:#4B6BC4;}
</style>
<g id="Layer_1_1_" class="st0">
	<path class="st1" d="M9,1.4c-3.4,0-6.2,2.8-6.2,6.2s2.8,6.2,6.2,6.2s6.2-2.8,6.2-6.2C15.2,4.3,12.5,1.4,9,1.4z M11.3,11L9,9.7
		L6.7,11l0.4-2.6L5.3,6.6l2.6-0.4L9,3.9l1.2,2.3l2.6,0.4l-1.9,1.8L11.3,11z"/>
	<path class="st1" d="M5.4,14.1l-2.5,2.5L2.8,14l-2.6-0.2l2.5-2.4"/>
	<path class="st1" d="M12.6,14.1l2.5,2.5l0.2-2.6l2.6-0.2l-2.4-2.4"/>
</g>
<path class="st2" d="M17.3,11.4c-0.1,0.1-0.2,0.4,0,0.6c0,0,0.1,0.2,0.1,0.6c0,0.5-0.2,0.9-0.7,1.3c-0.1,0.1-0.2,0.4-0.1,0.6
	c0,0,0.1,0.5-0.1,1c-0.2,0.4-0.8,0.8-1.8,0.9c-0.7,0.1-8.4-0.3-9-0.3H3.6c-0.1,0.1-0.3-0.1-0.3-0.2V9.3C3.3,9.2,3.4,9,3.6,9
	c0.5,0,1.5,0,1.7,0c0.2,0,0.6-0.5,1.1-1c1.8-1.3,3.6-4.5,3.7-4.7c0-0.1,0.2-0.5,0.2-0.6c0-0.4,0-1,0-1.3c0,0,0,0,0.1,0
	c0.2,0,0.7,0.1,1,0.5c0.3,0.5,0.3,1.5,0,2.9c-0.7,1.9-0.9,2-0.5,2.4c0.2,0.2,0.6,0.2,0.9,0.1c0.2,0,0.5-0.1,0.7-0.1l0,0
	c1.3-0.2,3.4-0.4,4.3,0.2C17.6,7.9,17,8.7,17,8.8c0,0.2,0.1,0.5,0.3,0.7c0,0,0.5,0.4,0.5,0.9C17.9,10.7,17.7,11.1,17.3,11.4z"/>
<path class="st2" d="M1.8,9L1.8,9c0.5,0,0.9,0.3,0.9,0.8v5.7c0,0.4-0.3,0.8-0.9,0.8l0,0c-0.9,0-1.6-0.6-1.6-1.4v-4.4
	C0.1,9.6,0.8,9,1.8,9z"/>
</svg>
