<?xml version="1.0" encoding="utf-8"?>
<!-- Generator: Adobe Illustrator 25.0.0, SVG Export Plug-In . SVG Version: 6.00 Build 0)  -->
<svg version="1.1" xmlns="http://www.w3.org/2000/svg" xmlns:xlink="http://www.w3.org/1999/xlink" x="0px" y="0px"
	 viewBox="0 0 18 18" style="enable-background:new 0 0 18 18;" xml:space="preserve">
<style type="text/css">
	.st0{fill:#4B6BC4;}
	.st1{display:none;}
	.st2{display:inline;fill:#4B6BC4;}
</style>
<g id="Layer_1">
	<path class="st0" d="M9,1.4c-3.4,0-6.2,2.8-6.2,6.2c0,3.4,2.8,6.2,6.2,6.2c3.4,0,6.2-2.8,6.2-6.2C15.2,4.3,12.5,1.4,9,1.4z
		 M11.3,11L9,9.7L6.7,11l0.4-2.6L5.3,6.6l2.6-0.4L9,3.9l1.2,2.3l2.6,0.4l-1.9,1.8L11.3,11z"/>
	<path class="st0" d="M5.4,14.1l-2.5,2.5L2.8,14l-2.6-0.2l2.5-2.4"/>
	<path class="st0" d="M12.6,14.1l2.5,2.5l0.2-2.6l2.6-0.2l-2.4-2.4"/>
</g>
<g id="Layer_2" class="st1">
	<path class="st2" d="M16.2,11.4c-0.1,0.1-0.2,0.4,0,0.6c0,0,0.1,0.2,0.1,0.6c0,0.5-0.2,0.9-0.6,1.3c-0.1,0.1-0.2,0.4-0.1,0.6
		c0,0,0.1,0.5-0.1,1c-0.2,0.4-0.7,0.8-1.6,0.9c-0.6,0.1-7.3-0.3-7.8-0.3H4.3C4.2,16.2,4,16,4,15.9V9.3C4,9.2,4.1,9,4.3,9
		c0.4,0,1.3,0,1.5,0c0.2,0,0.5-0.5,1-1c1.6-1.3,3.1-4.4,3.2-4.6c0-0.1,0.2-0.5,0.2-0.6c0-0.4,0-1,0-1.3c0,0,0,0,0.1,0
		c0.2,0,0.6,0.1,0.9,0.5c0.3,0.5,0.3,1.5,0,2.8c-0.6,1.9-0.8,2-0.4,2.4c0.2,0.2,0.5,0.2,0.8,0.1c0.2,0,0.4-0.1,0.6-0.1h0
		c1.1-0.2,3-0.4,3.7,0.2c0.6,0.5,0.1,1.3,0.1,1.4C16,9,16.1,9.3,16.3,9.5c0,0,0.4,0.4,0.4,0.9C16.7,10.7,16.6,11.1,16.2,11.4z"/>
	<path class="st2" d="M2.7,9L2.7,9c0.4,0,0.8,0.3,0.8,0.8v5.6c0,0.4-0.3,0.8-0.8,0.8l0,0c-0.8,0-1.4-0.6-1.4-1.4v-4.3
		C1.3,9.6,1.9,9,2.7,9z"/>
</g>
</svg>
