<svg width="18" height="16" viewBox="0 0 18 16" fill="none" xmlns="http://www.w3.org/2000/svg">
    <path d="M9.00161 0.888672C5.59741 0.888672 2.77441 3.71167 2.77441 7.11587C2.77441 10.5201 5.59741 13.3431 9.00161 13.3431C12.4058 13.3431 15.2288 10.5201 15.2288 7.11587C15.2288 3.71167 12.4888 0.888672 9.00161 0.888672ZM11.3264 10.437L9.00161 9.1916L6.67679 10.437L7.09194 7.86313L5.26529 6.03649L7.8392 5.62134L9.00161 3.29652L10.164 5.62134L12.7379 6.03649L10.8283 7.86313L11.3264 10.437Z" fill="#10255E" />
    <path d="M5.43104 13.5091L2.94016 16L2.7741 13.4261L0.200195 13.26L2.69107 10.8522" fill="#10255E" />
    <path d="M12.5713 13.5091L15.0622 16L15.2282 13.4261L17.8021 13.26L15.3943 10.8522" fill="#10255E" />
</svg>
