<svg width="59" height="48" viewBox="0 0 59 48" fill="none" xmlns="http://www.w3.org/2000/svg">
<path d="M59 32C59 40.8366 51.8366 48 43 48L16 48C7.16344 48 -3.18191e-06 40.8365 -2.40132e-06 32L-9.87953e-07 16C-2.07369e-07 7.16344 7.16344 -6.70162e-07 16 9.43704e-08L43 2.43039e-06C51.8366 3.19492e-06 59 7.16345 59 16L59 32Z" fill="white"/>
<path d="M30.351 18C23.751 18 20.251 22.9 20.251 23.7C20.251 24.5 23.751 29.4 30.351 29.4C36.951 29.4 40.451 24.5 40.451 23.7C40.451 22.9 37.051 18 30.351 18ZM30.351 26.8C28.551 26.8 27.151 25.4 27.151 23.7C27.151 22 28.551 20.6 30.351 20.6C32.151 20.6 33.551 22 33.551 23.7C33.551 25.4 32.151 26.8 30.351 26.8Z" stroke="#10255E" stroke-miterlimit="10"/>
</svg>
